<?xml version="1.0" encoding="utf-8"?>
<svg id="master-artboard" viewBox="0 0 612.8963623046875 586.4481811523438" xmlns="http://www.w3.org/2000/svg" width="612.8963623046875px" height="586.4481811523438px" version="1.1" style="shape-rendering:geometricPrecision; text-rendering:geometricPrecision; image-rendering:optimizeQuality; fill-rule:evenodd; clip-rule:evenodd"><rect id="ee-background" x="0" y="0" width="612.8963623046875" height="586.4481811523438" style="fill: white; fill-opacity: 0; pointer-events: none;"/><g transform="matrix(4.899999141693115, 0, 0, 4.899999141693115, -2889.6990661621094, -178.5236053466797)"><g id="g-1" transform="matrix(1, 0, 0, 1, 0, 0)">
	<g id="g-2">
		<path class="st0" d="M652,46c27.6,0,50,22.4,50,50s-22.4,50-50,50s-50-22.4-50-50S624.4,46,652,46z" style="fill: rgb(158, 218, 142); stroke: rgb(0, 0, 0); stroke-width: 1;"/>
	</g>
</g></g><g transform="matrix(0.9792841672897339, 0.6186533570289612, -0.6186533570289612, 0.9792841672897339, -479.42974853515625, -671.5776062011719)"><path fill="#CCCCCC" d="M1048.5,247.8v-6.5c0.1-0.3,0.1-0.6,0.1-0.9c0-0.3,0-0.6-0.1-0.9v-27.9v-19.7c0-7.6-6-13.8-13.4-13.8H985&#10;&#9;&#9;&#9;c-7.4,0-13.4,6.2-13.4,13.8v19.7v4.8c0,0.2,0,0.4,0,0.6c0,0.2,0,0.4,0,0.6v0.4c-0.1,0.3-0.1,0.7-0.1,1.1c0,0.4,0.1,0.7,0.1,1.1v0&#10;&#9;&#9;&#9;c-0.1,0.3-0.1,0.7-0.1,1.1s0.1,0.7,0.1,1.1v24.3c-0.1,0.4-0.2,0.8-0.2,1.2v198.3c0,0.7,0,1.5,0.1,2.2v2.4c0,0.9,0,1.7,0,2.3l0,0.7&#10;&#9;&#9;&#9;c0,1.1,0.3,2,0.8,2.7c0.2,0.3,0.7,1.2,1.4,2.5l19.1,33.1c0.1,0.1,0.1,0.3,0.2,0.4l9.3,16.1c0.1,0.2,0.2,0.4,0.4,0.6l2,3.5&#10;&#9;&#9;&#9;c1.2,2.1,3.2,3.3,5.3,3.3c2.2,0,4.2-1.2,5.3-3.3l2-3.5c0.1-0.2,0.2-0.4,0.4-0.6l9.3-16.1c0.1-0.1,0.1-0.3,0.2-0.4l19.1-33.1&#10;&#9;&#9;&#9;c0.7-1.3,1.2-2.1,1.4-2.5c0.5-0.7,0.7-1.5,0.8-2.7l0-0.7c0-0.6,0-1.4,0-2.3v-28.1c0-0.6-0.1-1.2-0.2-1.8V248.9&#10;&#9;&#9;&#9;C1048.4,248.5,1048.5,248.2,1048.5,247.8z M1005.2,493.7c1.2,0.7,2.5,1,3.9,1h0.7c1.4,0,2.8-0.4,4-1.1c0.6,0.3,1.2,0.6,1.9,0.8&#10;&#9;&#9;&#9;l-5.5,9.5c-0.1,0.1-0.1,0.2-0.2,0.3c-0.1-0.1-0.1-0.2-0.2-0.3l-5.6-9.7C1004.6,494.1,1004.9,493.9,1005.2,493.7z M1022.1,483.3&#10;&#9;&#9;&#9;L1022.1,483.3c-1.8,0-3.3,1-4,2.5c-0.7-1.5-2.2-2.5-3.9-2.5h-0.8c-1.7,0-3.2,1-3.9,2.5c-0.7-1.5-2.2-2.5-3.9-2.5h-0.7&#10;&#9;&#9;&#9;c-1.7,0-3.2,1-3.9,2.5c-0.6-1.2-1.6-2-2.9-2.3l-10.7-18.6c3.3-0.5,6.3-2.5,8.5-5.5c3.5,3.9,8.5,6.4,14.1,6.4&#10;&#9;&#9;&#9;c5.6,0,10.6-2.5,14.1-6.3c2.2,3,5.3,5,8.7,5.5L1022.1,483.3z M980.3,191.8c0-2.8,2.1-5.1,4.7-5.1h50.1c2.6,0,4.7,2.3,4.7,5.1v15.4&#10;&#9;&#9;&#9;h-59.4V191.8z M999.8,446.1v-194h20.2v194c0,0.6,0,1.3,0.1,1.9c-0.6,5.1-4.9,9.1-10.1,9.1c-5.6,0-10.2-4.6-10.2-10.3V446.1z&#10;&#9;&#9;&#9; M985.6,456.3c-2.6,0-5.5-4.4-5.5-10.2v-194h10.9v194C991.1,451.9,988.2,456.3,985.6,456.3z M1039.8,225.6V236h-59.4v-10.5H1039.8&#10;&#9;&#9;&#9;z M1039.6,446.1c0,5.8-2.9,10.2-5.5,10.2c-2.6,0-5.5-4.4-5.5-10.2v-194h10.9V446.1z M1045.2,458C1045.2,458,1045.2,458,1045.2,458&#10;&#9;&#9;&#9;c0.5-0.1,1-0.3,1.5-0.6C1046.3,457.7,1045.8,457.9,1045.2,458z" transform="matrix(1, 0, 0, 1, 0, 0)" style="fill: rgb(0, 0, 0); stroke: rgb(0, 0, 0); stroke-width: 0; fill-opacity: 1;"/></g></svg>