<?xml version="1.0" encoding="utf-8"?>
<svg id="master-artboard" viewBox="0 0 452.5105895996094 435.49676513671875" version="1.1" xmlns="http://www.w3.org/2000/svg" x="0px" y="0px" style="enable-background:new 0 0 336 235.2;" width="452.5105895996094px" height="435.49676513671875px"><defs><linearGradient id="gradient-0" gradientUnits="userSpaceOnUse" x1="524.4000244140625" y1="311.20001220703125" x2="524.4000244140625" y2="371.70001220703125">
                <stop offset="0" style="stop-color: #f69029"/>
                <stop offset="1" style="stop-color: #b25d07"/>
              </linearGradient><linearGradient id="gradient-1" gradientUnits="userSpaceOnUse" x1="508.50001525878906" y1="292.6000061035156" x2="508.50001525878906" y2="329">
                <stop offset="0" style="stop-color: #55b6c5"/>
                <stop offset="1" style="stop-color: #2e7a86"/>
              </linearGradient><linearGradient id="gradient-2" gradientUnits="userSpaceOnUse" x1="541.1000366210938" y1="295.3999938964844" x2="541.1000366210938" y2="332.29998779296875">
                <stop offset="0" style="stop-color: #ef4839"/>
                <stop offset="1" style="stop-color: #b31c0f"/>
              </linearGradient></defs><rect id="ee-background" x="0" y="0" width="452.5105895996094" height="435.49676513671875" style="fill: white; fill-opacity: 0; pointer-events: none;"/><g transform="matrix(3.7004754543304443, 0, 0, 3.7004754543304443, -2190.4981842041016, -136.82333374023438)"><g id="g-1" transform="matrix(1, 0, 0, 1, 0, 0)">
	<g id="g-2">
		<path class="st0" d="M652,46c27.6,0,50,22.4,50,50s-22.4,50-50,50s-50-22.4-50-50S624.4,46,652,46z" style="fill: rgb(105, 182, 255); stroke: rgb(0, 0, 0); stroke-width: 2;"/>
	</g>
</g></g><g transform="matrix(1.5648390054702759, 0, 0, 1.5648390054702759, 66.81316375732422, 158.17640686035156)"><g id="Layer_2_9_" transform="matrix(1, 0, 0, 1, 0, 0)">
	<g id="Layer_1-2_9_">
		
	</g>
</g></g><g transform="matrix(0.5283443331718445, 0, 0, 0.5283443331718445, 90.72149658203125, 80.13227081298828)"><g>
	<g>
		<path d="M437,268.152h-50.118c-6.821,0-13.425,0.932-19.71,2.646c-12.398-24.372-37.71-41.118-66.877-41.118h-88.59&#10;&#9;&#9;&#9;c-29.167,0-54.479,16.746-66.877,41.118c-6.285-1.714-12.889-2.646-19.71-2.646H75c-41.355,0-75,33.645-75,75v80.118&#10;&#9;&#9;&#9;c0,24.813,20.187,45,45,45h422c24.813,0,45-20.187,45-45v-80.118C512,301.797,478.355,268.152,437,268.152z M136.705,304.682&#10;&#9;&#9;&#9;v133.589H45c-8.271,0-15-6.729-15-15v-80.118c0-24.813,20.187-45,45-45h50.118c4.072,0,8.015,0.553,11.769,1.572&#10;&#9;&#9;&#9;C136.779,301.366,136.705,303.016,136.705,304.682z M345.295,438.271h-178.59V304.681c0-24.813,20.187-45,45-45h88.59&#10;&#9;&#9;&#9;c24.813,0,45,20.187,45,45V438.271z M482,423.271c0,8.271-6.729,15-15,15h-91.705v-133.59c0-1.667-0.074-3.317-0.182-4.957&#10;&#9;&#9;&#9;c3.754-1.018,7.697-1.572,11.769-1.572H437c24.813,0,45,20.187,45,45V423.271z" style="stroke: rgb(255, 246, 242); stroke-width: 0; fill: rgb(0, 0, 0); stroke-opacity: 1;"/>
	</g>
</g><g>
	<g>
		<path d="M100.06,126.504c-36.749,0-66.646,29.897-66.646,66.646c-0.001,36.749,29.897,66.646,66.646,66.646&#10;&#9;&#9;&#9;c36.748,0,66.646-29.897,66.646-66.646C166.706,156.401,136.809,126.504,100.06,126.504z M100.059,229.796&#10;&#9;&#9;&#9;c-20.207,0-36.646-16.439-36.646-36.646c0-20.207,16.439-36.646,36.646-36.646c20.207,0,36.646,16.439,36.646,36.646&#10;&#9;&#9;&#9;C136.705,213.357,120.266,229.796,100.059,229.796z" style="stroke: rgb(255, 246, 242); stroke-width: 0; fill: rgb(0, 0, 0); stroke-opacity: 1;"/>
	</g>
</g><g>
	<g>
		<path d="M256,43.729c-49.096,0-89.038,39.942-89.038,89.038c0,49.096,39.942,89.038,89.038,89.038s89.038-39.942,89.038-89.038&#10;&#9;&#9;&#9;C345.038,83.672,305.096,43.729,256,43.729z M256,191.805c-32.554,0-59.038-26.484-59.038-59.038&#10;&#9;&#9;&#9;c0-32.553,26.484-59.038,59.038-59.038s59.038,26.484,59.038,59.038C315.038,165.321,288.554,191.805,256,191.805z" style="stroke: rgb(255, 246, 242); stroke-width: 0; fill: rgb(0, 0, 0); stroke-opacity: 1;"/>
	</g>
</g><g>
	<g>
		<path d="M411.94,126.504c-36.748,0-66.646,29.897-66.646,66.646c0.001,36.749,29.898,66.646,66.646,66.646&#10;&#9;&#9;&#9;c36.749,0,66.646-29.897,66.646-66.646C478.586,156.401,448.689,126.504,411.94,126.504z M411.94,229.796&#10;&#9;&#9;&#9;c-20.206,0-36.646-16.439-36.646-36.646c0.001-20.207,16.44-36.646,36.646-36.646c20.207,0,36.646,16.439,36.646,36.646&#10;&#9;&#9;&#9;C448.586,213.357,432.147,229.796,411.94,229.796z" style="stroke: rgb(255, 246, 242); stroke-width: 0; fill: rgb(0, 0, 0); stroke-opacity: 1;"/>
	</g>
</g><g>
</g><g>
</g><g>
</g><g>
</g><g>
</g><g>
</g><g>
</g><g>
</g><g>
</g><g>
</g><g>
</g><g>
</g><g>
</g><g>
</g><g>
</g></g></svg>