<svg xmlns="http://www.w3.org/2000/svg" width="25" height="25" viewBox="0 0 25 25">
  <g id="group" transform="translate(0 -26.828)">
    <g id="Group_728" data-name="Group 728" transform="translate(0 26.828)">
      <circle id="Ellipse_57" data-name="Ellipse 57" cx="12.5" cy="12.5" r="12.5" fill="#41b3ff"/>
    </g>
    <g id="groups" transform="translate(3.487 34.822)">
      <path id="Path_145" data-name="Path 145" d="M9.013,11.07a7.969,7.969,0,0,1,3.184.676,2.241,2.241,0,0,1,1.322,2.05v1.217H4.506V13.8a2.226,2.226,0,0,1,1.322-2.05A7.841,7.841,0,0,1,9.013,11.07ZM3,11.257a1.5,1.5,0,1,0-1.5-1.5A1.507,1.507,0,0,0,3,11.257Zm.849.826A5.244,5.244,0,0,0,3,12.008a5.22,5.22,0,0,0-2.088.436A1.51,1.51,0,0,0,0,13.834v1.179H3.38V13.8A3.379,3.379,0,0,1,3.853,12.084Zm11.168-.826a1.5,1.5,0,1,0-1.5-1.5A1.507,1.507,0,0,0,15.021,11.257Zm3,2.576a1.51,1.51,0,0,0-.916-1.389,5.106,5.106,0,0,0-2.937-.361,3.379,3.379,0,0,1,.473,1.72v1.209h3.38ZM9.013,6A2.253,2.253,0,1,1,6.76,8.253,2.25,2.25,0,0,1,9.013,6Z" transform="translate(0 -6)" fill="#fff"/>
    </g>
  </g>
</svg>
