<svg xmlns="http://www.w3.org/2000/svg" width="25" height="25" viewBox="0 0 25 25">
  <g id="Group_776" data-name="Group 776" transform="translate(0.437 -26.83)">
    <g id="Group_728" data-name="Group 728" transform="translate(0 26.83)">
      <circle id="Ellipse_57" data-name="Ellipse 57" cx="12.5" cy="12.5" r="12.5" transform="translate(-0.437)" fill="#ff5858"/>
    </g>
    <g id="like_2_" data-name="like (2)" transform="translate(4.797 33.83)">
      <g id="Group_729" data-name="Group 729">
        <path id="Path_144" data-name="Path 144" d="M10.791,30a3.479,3.479,0,0,0-2.173.751A4.95,4.95,0,0,0,7.347,32.28a4.949,4.949,0,0,0-1.271-1.529A3.479,3.479,0,0,0,3.9,30,3.989,3.989,0,0,0,0,34.234c0,2.608,2.094,4.392,5.263,7.092.538.459,1.148.979,1.782,1.533a.459.459,0,0,0,.6,0c.634-.555,1.244-1.074,1.783-1.533,3.169-2.7,5.262-4.485,5.262-7.092A3.989,3.989,0,0,0,10.791,30Z" transform="translate(0 -30)" fill="#fff"/>
      </g>
    </g>
  </g>
</svg>
