<?xml version="1.0" encoding="utf-8"?>
<svg id="master-artboard" viewBox="0 0 236.51942443847656 228.21266174316406" version="1.1" xmlns="http://www.w3.org/2000/svg" x="0px" y="0px" style="enable-background:new 0 0 1400 980;" width="236.51942443847656px" height="228.21266174316406px"><defs><radialGradient id="gradient-0" gradientUnits="objectBoundingBox" cx="0.5" cy="0.5" r="0.5">
                <stop offset="0" style="stop-color: #000000"/>
                <stop offset="1" style="stop-color: #000000"/>
              </radialGradient></defs><rect id="ee-background" x="0" y="0" width="236.51942443847656" height="228.21266174316406" style="fill: white; fill-opacity: 0; pointer-events: none;"/><g transform="matrix(0.8145402669906616, 0, 0, 0.8145402669906616, -455.36077880859375, -223.05788040161133)"><rect id="rect-1" x="0" y="0" width="1400" height="980" style="fill: white; fill-opacity: 0; pointer-events: none;"/><g transform="matrix(21.72898292541504, 0, 0, 21.72898292541504, 444.07125854492176, 101.88988676305715)"><path d="M 0 0 H 24 V 24 H 0 V 0 Z" fill="none"/><g transform="matrix(0.7085139751434326, 0, 0, 0.7085139751434326, 3.4344654311621525, 6.412691645484196)"><path d="M17 2H7L2 7v10l5 5h10l5-5V7l-5-5zm-4 15h-2v-2h2v2zm0-4h-2l-.5-6h3l-.5 6z" style="stroke: rgb(255, 39, 10); stroke-width: 1; fill-opacity: 1; fill: rgb(255, 255, 255); stroke-opacity: 0.82;" transform="matrix(0.8682399392127991, 0, 0, 0.8682399392127991, 1.6909193949046397, 1.0321196890259312)"/></g></g></g></svg>