<?xml version="1.0" encoding="utf-8"?>
<svg id="master-artboard" viewBox="0 0 551.2996215820312 430.2293395996094" version="1.1" xmlns="http://www.w3.org/2000/svg" x="0px" y="0px" style="enable-background:new 0 0 1400 980;" width="551.2996215820312px" height="430.2293395996094px"><rect id="ee-background" x="0" y="0" width="551.2996215820312" height="430.2293395996094" style="fill: white; fill-opacity: 0; pointer-events: none;"/><g transform="matrix(0.000229038399993442, 0.49999991059303284, -3.3674614429473877, 0.0015435502864420414, 678.56787109375, 157.1927261352539)"><g id="g-3" transform="matrix(1, 0, 0, 1, 0, 0)">
	<g id="g-4">
		<path class="st0" d="M58,49h100v100H58V49z" style="fill: rgb(255, 239, 61);"/>
	</g>
</g></g><g transform="matrix(0.000229038399993442, 0.49999991059303284, -3.3674614429473877, 0.0015435502864420414, 678.56787109375, 294.9603042602539)"><g id="g-5" transform="matrix(1, 0, 0, 1, 0, 0)">
	<g id="g-6">
		<path class="st0" d="M58,49h100v100H58V49z" style="fill: rgb(143, 255, 64);"/>
	</g>
</g></g><g transform="matrix(0.00023740986944176257, 0.5182754397392273, -3.490546226501465, 0.001599969225935638, 687.2824096679688, 17.562679290771484)"><g id="g-1" transform="matrix(1, 0, 0, 1, 0, 0)">
	<g id="g-2">
		<path class="st0" d="M58,49h100v100H58V49z" style="fill: rgb(255, 95, 51);"/>
	</g>
</g></g><g transform="matrix(0.9644389152526855, 0, 0, 0.9644389152526855, 33.29774475097656, -34.0278377532959)"><g transform="translate(0.000000,512.000000) scale(0.100000,-0.100000)" fill="#000000" stroke="none">

<path d="M 1665 4468 C 1551 4446 1424 4360 1362 4263 C 1307 4177 1288 4099 1292 3985 C 1295 3894 1299 3878 1332 3807 C 1405 3655 1538 3560 1710 3540 C 1766 3533 2301 3530 3265 3532 L 4735 3535 L 4794 3558 C 4882 3591 4929 3622 4987 3682 C 5045 3744 5083 3814 5105 3897 C 5170 4145 5007 4404 4749 4465 C 4693 4478 4492 4480 3200 4479 C 2306 4478 1695 4474 1665 4468 Z M 4756.4287109375 4241.85693359375 C 4847.4287109375 4200.85693359375 4930.314375521332 4080.2170609679747 4905.80908203125 3984.90478515625 C 4877.80908203125 3876 4816.857421875 3769.14306640625 4732.9052734375 3758.14306640625 C 4672.421863503074 3750.21810532233 1775.2466811237298 3761.6754337086154 1726 3772.619140625 C 1645 3790.619140625 1525.8807098460422 3883.2456078305995 1536.0953369140625 4001.999755859375 C 1545.592529296875 4112.4130859375 1592.5714111328125 4228.85693359375 1667.5714111328125 4250.85693359375 C 1682.5714111328125 4255.85693359375 2410.47607421875 4259.85693359375 3218.47607421875 4259.85693359375 C 4633.47607421875 4260.85693359375 4717.4287109375 4259.85693359375 4756.4287109375 4241.85693359375 Z" style="fill: rgb(7, 7, 7); stroke: rgb(0, 0, 0); stroke-width: 0;"/>




</g></g><path d="M 1665 4468 C 1551 4446 1424 4360 1362 4263 C 1307 4177 1288 4099 1292 3985 C 1295 3894 1299 3878 1332 3807 C 1405 3655 1538 3560 1710 3540 C 1766 3533 2301 3530 3265 3532 L 4735 3535 L 4794 3558 C 4882 3591 4929 3622 4987 3682 C 5045 3744 5083 3814 5105 3897 C 5170 4145 5007 4404 4749 4465 C 4693 4478 4492 4480 3200 4479 C 2306 4478 1695 4474 1665 4468 Z M 4756.4287109375 4241.85693359375 C 4847.4287109375 4200.85693359375 4930.314375521332 4080.2170609679747 4905.80908203125 3984.90478515625 C 4877.80908203125 3876 4816.857421875 3769.14306640625 4732.9052734375 3758.14306640625 C 4672.421863503074 3750.21810532233 1775.2466811237298 3761.6754337086154 1726 3772.619140625 C 1645 3790.619140625 1525.8807098460422 3883.2456078305995 1536.0953369140625 4001.999755859375 C 1545.592529296875 4112.4130859375 1592.5714111328125 4228.85693359375 1667.5714111328125 4250.85693359375 C 1682.5714111328125 4255.85693359375 2410.47607421875 4259.85693359375 3218.47607421875 4259.85693359375 C 4633.47607421875 4260.85693359375 4717.4287109375 4259.85693359375 4756.4287109375 4241.85693359375 Z" style="fill: rgb(7, 7, 7); stroke: rgb(0, 0, 0); stroke-width: 0;" transform="matrix(0.09644389152526855, 0, 0, -0.09644389152526855, 32.17389678955078, 596.3331680297852)"/><path d="M 1665 4468 C 1551 4446 1424 4360 1362 4263 C 1307 4177 1288 4099 1292 3985 C 1295 3894 1299 3878 1332 3807 C 1405 3655 1538 3560 1710 3540 C 1766 3533 2301 3530 3265 3532 L 4735 3535 L 4794 3558 C 4882 3591 4929 3622 4987 3682 C 5045 3744 5083 3814 5105 3897 C 5170 4145 5007 4404 4749 4465 C 4693 4478 4492 4480 3200 4479 C 2306 4478 1695 4474 1665 4468 Z M 4756.4287109375 4241.85693359375 C 4847.4287109375 4200.85693359375 4930.314375521332 4080.2170609679747 4905.80908203125 3984.90478515625 C 4877.80908203125 3876 4816.857421875 3769.14306640625 4732.9052734375 3758.14306640625 C 4672.421863503074 3750.21810532233 1775.2466811237298 3761.6754337086154 1726 3772.619140625 C 1645 3790.619140625 1525.8807098460422 3883.2456078305995 1536.0953369140625 4001.999755859375 C 1545.592529296875 4112.4130859375 1592.5714111328125 4228.85693359375 1667.5714111328125 4250.85693359375 C 1682.5714111328125 4255.85693359375 2410.47607421875 4259.85693359375 3218.47607421875 4259.85693359375 C 4633.47607421875 4260.85693359375 4717.4287109375 4259.85693359375 4756.4287109375 4241.85693359375 Z" style="fill: rgb(7, 7, 7); stroke: rgb(0, 0, 0); stroke-width: 0;" transform="matrix(0.09644389152526855, 0, 0, -0.09644389152526855, 32.17389678955078, 736.7001113891602)"/><g transform="matrix(0.8335320353507996, 0, 0, 0.8335320353507996, -603.8258056640625, 288.9197463989258)"><g id="g-19" transform="matrix(0.8655723333358764, 0, 0, 0.8655723333358764, 250.6398468017578, -5.578707218170166)">
	<g id="g-20">
		<path class="st0" d="M652,46c27.6,0,50,22.4,50,50s-22.4,50-50,50s-50-22.4-50-50S624.4,46,652,46z" style="fill: rgb(119, 255, 74);"/>
	</g>
</g></g><g transform="matrix(0.8490568995475769, 0, 0, 0.8490570187568665, -478.6581115722656, -350.90612030029297)"><g id="g-9" transform="matrix(1, 0, 0, 1, 0, 0)">
	<g id="g-10">
		<g>
			<path class="st0" d="M654,884c-29.2,0-53-23.8-53-53s23.8-53,53-53s53,23.8,53,53S683.2,884,654,884z M654,784&#10;&#9;&#9;&#9;&#9;c-25.9,0-47,21.1-47,47s21.1,47,47,47s47-21.1,47-47S679.9,784,654,784z" style="fill: rgb(51, 51, 51); stroke: rgb(0, 0, 0); stroke-width: 11;"/>
		</g>
	</g>
</g></g><g transform="matrix(0.8935940265655518, 0, 0, 0.8935940265655518, -657.294189453125, 140.77782440185547)"><g id="g-15" transform="matrix(0.8655723333358764, 0, 0, 0.8655723333358764, 250.6398468017578, -5.578707218170166)">
	<g id="g-16">
		<path class="st0" d="M652,46c27.6,0,50,22.4,50,50s-22.4,50-50,50s-50-22.4-50-50S624.4,46,652,46z" style="fill: rgb(255, 236, 69);"/>
	</g>
</g></g><g transform="matrix(0.8490570187568665, 0, 0, 0.8490570187568665, -481.7052917480469, -494.2208480834961)"><g id="g-11" transform="matrix(1, 0, 0, 1, 0, 0)">
	<g id="g-12">
		<g>
			<path class="st0" d="M654,884c-29.2,0-53-23.8-53-53s23.8-53,53-53s53,23.8,53,53S683.2,884,654,884z M654,784&#10;&#9;&#9;&#9;&#9;c-25.9,0-47,21.1-47,47s21.1,47,47,47s47-21.1,47-47S679.9,784,654,784z" style="fill: rgb(51, 51, 51); stroke: rgb(0, 0, 0); stroke-width: 11;"/>
		</g>
	</g>
</g></g><g transform="matrix(0.8485478162765503, 0, 0, 0.8485478162765503, -618.63232421875, 11.050981521606445)"><g id="g-21" transform="matrix(0.8655723333358764, 0, 0, 0.8655723333358764, 250.6398468017578, -5.578707218170166)">
	<g id="g-22">
		<path class="st0" d="M652,46c27.6,0,50,22.4,50,50s-22.4,50-50,50s-50-22.4-50-50S624.4,46,652,46z" style="fill: rgb(255, 91, 59);"/>
	</g>
</g></g><g transform="matrix(0.8490570187568665, 0, 0, 0.8490570187568665, -483.0050048828125, -629.3890609741211)"><g id="g-13" transform="matrix(1, 0, 0, 1, 0, 0)">
	<g id="g-14">
		<g>
			<path class="st0" d="M654,884c-29.2,0-53-23.8-53-53s23.8-53,53-53s53,23.8,53,53S683.2,884,654,884z M654,784&#10;&#9;&#9;&#9;&#9;c-25.9,0-47,21.1-47,47s21.1,47,47,47s47-21.1,47-47S679.9,784,654,784z" style="fill: rgb(51, 51, 51); stroke: rgb(0, 0, 0); stroke-width: 11;"/>
		</g>
	</g>
</g></g></svg>