<svg xmlns="http://www.w3.org/2000/svg" width="19" height="19" viewBox="0 0 19 19"><g transform="translate(7161.919 20171.859)"><g transform="translate(-7166.919 -20201.689)"><g transform="translate(5 29.83)"><g transform="translate(0 0)" fill="#24e5a4"><path d="M 9.5 18.5 C 4.537380218505859 18.5 0.5 14.46261978149414 0.5 9.5 C 0.5 4.537380218505859 4.537380218505859 0.5 9.5 0.5 C 14.46261978149414 0.5 18.5 4.537380218505859 18.5 9.5 C 18.5 14.46261978149414 14.46261978149414 18.5 9.5 18.5 Z" stroke="none"/><path d="M 9.5 1 C 4.813079833984375 1 1 4.813079833984375 1 9.5 C 1 14.18692016601563 4.813079833984375 18 9.5 18 C 14.18692016601563 18 18 14.18692016601563 18 9.5 C 18 4.813079833984375 14.18692016601563 1 9.5 1 M 9.5 0 C 14.74670028686523 0 19 4.253299713134766 19 9.5 C 19 14.74670028686523 14.74670028686523 19 9.5 19 C 4.253299713134766 19 0 14.74670028686523 0 9.5 C 0 4.253299713134766 4.253299713134766 0 9.5 0 Z" stroke="none" fill="#fff"/></g></g></g><path d="M4.406,5.036A2.518,2.518,0,1,0,1.888,2.518,2.518,2.518,0,0,0,4.406,5.036Zm1.762.63H5.84a3.424,3.424,0,0,1-2.868,0H2.644A2.645,2.645,0,0,0,0,8.309v.818a.944.944,0,0,0,.944.944H6.352A.945.945,0,0,1,6.3,9.653l.134-1.2.024-.218.155-.155L8.134,6.561a2.617,2.617,0,0,0-1.965-.9ZM7.06,8.524l-.134,1.2a.313.313,0,0,0,.346.346l1.2-.134,2.713-2.713-1.41-1.41L7.06,8.524ZM12.452,5.29l-.746-.746a.471.471,0,0,0-.665,0l-.744.744-.081.081,1.412,1.41.822-.822a.474.474,0,0,0,0-.667Z" transform="translate(-7158.713 -20167.395)" fill="#fff"/></g></svg>