<svg xmlns="http://www.w3.org/2000/svg" width="19" height="19" viewBox="0 0 19 19"><g transform="translate(7135.919 20174.859)"><g transform="translate(-7140.919 -20204.689)"><g transform="translate(5 29.83)"><g transform="translate(0 0)" fill="#328cc7"><path d="M 9.5 18.5 C 4.537380218505859 18.5 0.5 14.46261978149414 0.5 9.5 C 0.5 4.537380218505859 4.537380218505859 0.5 9.5 0.5 C 14.46261978149414 0.5 18.5 4.537380218505859 18.5 9.5 C 18.5 14.46261978149414 14.46261978149414 18.5 9.5 18.5 Z" stroke="none"/><path d="M 9.5 1 C 4.813079833984375 1 1 4.813079833984375 1 9.5 C 1 14.18692016601563 4.813079833984375 18 9.5 18 C 14.18692016601563 18 18 14.18692016601563 18 9.5 C 18 4.813079833984375 14.18692016601563 1 9.5 1 M 9.5 0 C 14.74670028686523 0 19 4.253299713134766 19 9.5 C 19 14.74670028686523 14.74670028686523 19 9.5 19 C 4.253299713134766 19 0 14.74670028686523 0 9.5 C 0 4.253299713134766 4.253299713134766 0 9.5 0 Z" stroke="none" fill="#fff"/></g></g></g><path d="M4.984,5.7A2.848,2.848,0,1,0,2.136,2.848,2.848,2.848,0,0,0,4.984,5.7Zm2.132.725L6.052,10.681,5.34,7.655l.712-1.246H3.916l.712,1.246-.712,3.026L2.853,6.422A2.985,2.985,0,0,0,0,9.4v.926a1.068,1.068,0,0,0,1.068,1.068H8.9a1.068,1.068,0,0,0,1.068-1.068V9.4A2.985,2.985,0,0,0,7.116,6.422Z" transform="translate(-7131.403 -20171.055)" fill="#fff"/></g></svg>