<?xml version="1.0" encoding="utf-8"?>
<svg id="master-artboard" viewBox="0 0 612 612" version="1.1" xmlns="http://www.w3.org/2000/svg" x="0px" y="0px" style="enable-background:new 0 0 1400 980;" width="612px" height="612px"><rect id="ee-background" x="0" y="0" width="612" height="612" style="fill: white; fill-opacity: 0; pointer-events: none;"/><g transform="matrix(0.7270642518997192, 0, 0, 0.7270642518997192, 211.5490264892578, 50.335357666015625)"><path d="M 498.699219 222.695312 C 498.683594 222.683594 498.671875 222.667969 498.66015600000003 222.65625 L 289.80468800000006 13.808594 C 280.9023440000001 4.902343999999999 269.06640600000003 0 256.47656200000006 0 C 243.88671900000006 0 232.05078100000006 4.902344 223.14453100000006 13.808594 L 14.398438000000056 222.550781 C 14.328125000000055 222.621094 14.253906000000056 222.695312 14.187500000000055 222.765625 C -4.093749999999945 241.152344 -4.062499999999945 270.984375 14.277344000000054 289.32421899999997 C 22.656250000000057 297.707031 33.71875000000006 302.55859399999997 45.55078100000006 303.07031199999994 C 46.03515600000006 303.11718799999994 46.51953100000006 303.14062499999994 47.00781200000006 303.14062499999994 L 55.32812500000006 303.14062499999994 L 55.32812500000006 456.83593799999994 C 55.32812500000006 487.2539059999999 80.07812500000006 511.99999999999994 110.49609400000006 511.99999999999994 L 192.20703100000006 511.99999999999994 C 200.49218800000006 511.99999999999994 207.20703100000006 505.28124999999994 207.20703100000006 496.99999999999994 L 207.20703100000006 376.49999999999994 C 207.20703100000006 362.62109399999997 218.50000000000006 351.3320309999999 232.37890600000006 351.3320309999999 L 280.5742190000001 351.3320309999999 C 294.4531250000001 351.3320309999999 305.74218800000006 362.6210939999999 305.74218800000006 376.4999999999999 L 305.74218800000006 496.9999999999999 C 305.74218800000006 505.2812499999999 312.45703100000003 511.9999999999999 320.74218800000006 511.9999999999999 L 402.45312500000006 511.9999999999999 C 432.87500000000006 511.9999999999999 457.6210940000001 487.2539059999999 457.6210940000001 456.8359379999999 L 457.6210940000001 303.1406249999999 L 465.3398440000001 303.1406249999999 C 477.9257810000001 303.1406249999999 489.7617190000001 298.23828099999986 498.6718750000001 289.3281249999999 C 517.0312500000001 270.9609379999999 517.0390620000001 241.07421899999989 498.69921900000014 222.6953119999999 L 498.699219 222.695312 Z M 477.45703100000003 268.117188 C 474.21875000000006 271.35546899999997 469.914062 273.140625 465.339844 273.140625 L 442.621094 273.140625 C 434.33593800000006 273.140625 427.621094 279.855469 427.621094 288.140625 L 427.621094 456.835938 C 427.621094 470.710938 416.33203100000003 482 402.453125 482 L 335.742188 482 L 335.742188 376.5 C 335.742188 346.08203100000003 310.99609399999997 321.33203100000003 280.57421899999997 321.33203100000003 L 232.37890599999997 321.33203100000003 C 201.95703099999997 321.33203100000003 177.20703099999997 346.08203100000003 177.20703099999997 376.5 L 177.20703099999997 482 L 110.49609399999997 482 C 96.62109399999997 482 85.32812499999997 470.710938 85.32812499999997 456.835938 L 85.32812499999997 288.140625 C 85.32812499999997 279.85546899999997 78.61328099999997 273.140625 70.32812499999997 273.140625 L 47.99999999999997 273.140625 C 47.76562499999997 273.125 47.53515599999997 273.113281 47.29687499999997 273.109375 C 42.82812499999997 273.03125 38.63671899999997 271.257812 35.49609399999997 268.113281 C 28.816405999999972 261.43359399999997 28.816405999999972 250.56249999999997 35.49609399999997 243.87890599999997 C 35.49999999999997 243.87890599999997 35.49999999999997 243.87499999999997 35.50390599999997 243.87109399999997 L 35.51562499999997 243.85937499999997 L 90.69950866699219 188.67755126953125 L 244.36328125 35.01953125 C 247.59765599999997 31.78124999999997 251.89843799999997 29.99999999999997 256.47656199999994 29.99999999999997 C 261.050781 29.99999999999997 265.35156199999994 31.78124999999997 268.58984399999997 35.01953099999997 L 477.390625 243.81640599999997 C 477.421875 243.84765599999997 477.457031 243.87890599999997 477.488281 243.91015599999997 C 484.13281199999994 250.60156199999997 484.12109399999997 261.44921899999997 477.457031 268.117188 L 477.45703100000003 268.117188 Z M 477.45703100000003 268.117188" style="fill: rgb(0, 152, 242);" transform="matrix(1.6407673358917236, 0, 0, 1.6407673358917236, -290.894596481754, -65.61456718487887)"/></g></svg>