<?xml version="1.0" encoding="utf-8"?>
<svg id="master-artboard" viewBox="0 0 308.25689697265625 358.7461853027344" version="1.1" xmlns="http://www.w3.org/2000/svg" x="0px" y="0px" style="enable-background:new 0 0 1400 980;" width="308.25689697265625px" height="358.7461853027344px"><g transform="matrix(1.1424230337142944, 0, 0, 1.1424230337142944, -52.72853469848633, -51.98775863647461)"><rect id="ee-background" x="0" y="0" width="308.25689697265625" height="358.7461853027344" style="fill: white; fill-opacity: 0; pointer-events: none;"/><g transform="matrix(15.273647221104087, 0, 0, 15.273647221104087, 0.0994351127092159, -0.000002718892346820212)"><path id="Path_36" data-name="Path 36" d="M0,0H33.529V33.529H0Z" fill="none" transform="matrix(0.775626133037584, 0, 0, 0.775626133037584, 0, 0)"/><path d="M 9.320781707763672 12.390671730041504 L 9.320781707763672 12.390671730041504" style="fill: rgb(65, 179, 255); fill-opacity: 1; stroke: rgb(0, 0, 0); stroke-opacity: 1; stroke-width: 0; paint-order: fill;" transform="matrix(1.2197543687051102, 0, 0, 1.2197543687051102, -5.0875500014572745, -4.201553241333157)"/><path d="M 4.130053997039795 6.689380168914795" style="fill: rgb(65, 179, 255); fill-opacity: 1; stroke: rgb(0, 0, 0); stroke-opacity: 1; stroke-width: 0; paint-order: fill;" transform="matrix(0.9999999999999999, 0, 0, 0.9999999999999999, 2.467722928016265, 0.510563364417159)"/><path id="Path_37" data-name="Path 37" d="M 15.305439353942871 27.824396102905272 C 16.84715391668759 27.821095963670896 17.96669985066464 27.032104028055123 17.97 25.49038946533203 L 12.382 25.425667404174803 C 12.385300149335361 26.967381966897896 13.763724791198156 27.821095963670896 15.305439353942871 27.824396102905272 Z M 22.522487075805664 21.42572015380859 L 22.393046768188476 14.957477569580078 C 22.393046768188476 10.668477569580078 21.15155969238281 7.6609541854858385 17.141559692382813 6.710954185485839 L 17.01212129211426 5.376636123657226 C 16.906347949438967 3.763519471547829 15.35286831815126 3.4523018972638235 14.008754989494465 4.3504626251185226 C 13.465958002002518 4.713169345578093 13.640471202392526 4.85464613710462 13.59775646209717 5.506075477600097 L 13.597757415771486 6.779673862457275 C 9.597757415771486 7.729673862457275 7.971866386413577 10.859591270446778 7.971866386413577 15.162591270446779 L 7.992733257293703 21.776141510009765 L 5.313143730163574 23.22010107421875 L 5.32705545425415 24.62010107421875 L 24.90346081542969 24.691775421142577 L 25.104577377319337 23.356497482299805 L 22.522487075805664 21.42572015380859 Z M 20.764 22.760999999999996 L 9.588 22.760999999999996 L 9.588 14.375 C 9.588 10.91 11.697999999999999 8.088000000000001 15.175999999999998 8.088000000000001 C 18.653999999999996 8.088000000000001 20.764 10.91 20.764 14.375 L 20.764 22.760999999999996 Z" transform="matrix(0.8060337025097515, 0, 0, 0.8060337025097515, -0.3675245881827385, 0.7280867909555778)" fill="#41B3FF" style="stroke: rgb(0, 0, 0); stroke-width: 0;"/></g></g></svg>