<svg id="account_circle-white-24dp" xmlns="http://www.w3.org/2000/svg" width="33.529" height="33.529" viewBox="0 0 33.529 33.529">
  <path id="Path_40" data-name="Path 40" d="M0,0H33.529V33.529H0Z" fill="none"/>
  <path id="Path_41" data-name="Path 41" d="M15.971,2A13.971,13.971,0,1,0,29.941,15.971,13.976,13.976,0,0,0,15.971,2ZM9.083,24.744c.6-1.257,4.261-2.487,6.887-2.487s6.3,1.229,6.887,2.487a11.072,11.072,0,0,1-13.775,0Zm15.773-2.026c-2-2.431-6.846-3.255-8.885-3.255s-6.887.824-8.885,3.255a11.176,11.176,0,1,1,17.771,0ZM15.971,7.588a4.89,4.89,0,1,0,4.89,4.89A4.877,4.877,0,0,0,15.971,7.588Zm0,6.985a2.1,2.1,0,1,1,2.1-2.1A2.093,2.093,0,0,1,15.971,14.573Z" transform="translate(0.794 0.794)" fill="#41B3FF"/>
</svg>
