<svg id="poll" xmlns="http://www.w3.org/2000/svg" width="20.247" height="20.247" viewBox="0 0 20.247 20.247">
  <path id="Path_120" data-name="Path 120" d="M18.56,0H1.687A1.689,1.689,0,0,0,0,1.687V18.56a1.689,1.689,0,0,0,1.687,1.687H18.56a1.689,1.689,0,0,0,1.687-1.687V1.687A1.689,1.689,0,0,0,18.56,0Zm1.012,18.56a1.012,1.012,0,0,1-1.012,1.012H1.687A1.012,1.012,0,0,1,.675,18.56V1.687A1.012,1.012,0,0,1,1.687.675H18.56a1.012,1.012,0,0,1,1.012,1.012Zm0,0" fill="#1492e6"/>
  <path id="Path_121" data-name="Path 121" d="M51.712,176H48.337a.337.337,0,0,0-.337.337v10.124a.337.337,0,0,0,.337.337h3.375a.337.337,0,0,0,.337-.337V176.337A.337.337,0,0,0,51.712,176Zm-.337,10.124h-2.7v-9.449h2.7Zm0,0" transform="translate(-45.975 -168.576)" fill="#1473e6"/>
  <path id="Path_122" data-name="Path 122" d="M195.712,48h-3.375a.337.337,0,0,0-.337.337V63.86a.337.337,0,0,0,.337.337h3.375a.337.337,0,0,0,.337-.337V48.337A.337.337,0,0,0,195.712,48Zm-.337,15.523h-2.7V48.675h2.7Zm0,0" transform="translate(-183.901 -45.975)" fill="#1473e6"/>
  <path id="Path_123" data-name="Path 123" d="M339.712,256h-3.375a.337.337,0,0,0-.337.337v6.749a.337.337,0,0,0,.337.337h3.375a.337.337,0,0,0,.337-.337v-6.749A.337.337,0,0,0,339.712,256Zm-.337,6.749h-2.7v-6.074h2.7Zm0,0" transform="translate(-321.827 -245.202)" fill="#1473e6"/>
</svg>
