<svg xmlns="http://www.w3.org/2000/svg" width="23.377" height="21.915" viewBox="0 0 23.377 21.915">
  <g id="chat" transform="translate(0 -16.008)">
    <g id="Group_714" data-name="Group 714" transform="translate(0 16.008)">
      <g id="Group_712" data-name="Group 712" transform="translate(0)">
        <path id="Path_135" data-name="Path 135" d="M22.685,17.192l-1.531-.959a1.475,1.475,0,0,0-2.034.468l-4.308,6.884H1.618A1.621,1.621,0,0,0,0,25.205v8.8a1.621,1.621,0,0,0,1.618,1.62H3.677L4,37.542a.457.457,0,0,0,.721.292l2.99-2.207H9.395a.457.457,0,0,0,0-.913H7.559a.457.457,0,0,0-.271.089L4.776,36.657l-.262-1.562a.457.457,0,0,0-.45-.381H1.618a.707.707,0,0,1-.705-.707v-8.8a.707.707,0,0,1,.705-.707H14.241L13.058,26.39H3.387a.457.457,0,0,0,0,.913h9.1l-.979,1.564a.457.457,0,0,0-.069.256l0,.117H3.387a.457.457,0,1,0,0,.913H11.47l.059,1.955H3.387a.457.457,0,0,0,0,.913h8.625a.455.455,0,0,0,.182-.044l3.145-1.412a.457.457,0,0,0,.2-.174l3.729-5.96v8.574a.707.707,0,0,1-.705.707h-5.04a.457.457,0,0,0,0,.913h5.04a1.621,1.621,0,0,0,1.618-1.62v-8.8a1.606,1.606,0,0,0-.24-.849l3.211-5.131a1.477,1.477,0,0,0-.467-2.033ZM17.6,20.848l.855.536-4.624,7.385-.026-.113a.457.457,0,0,0-.547-.343l-.385.088ZM13.687,31.307l-1.293-.81-.031-1.04.658-.151.171.745a.457.457,0,0,0,.547.343l.744-.171.152.659Zm.92-2.051,4.625-7.388.854.535L15.36,29.957l-.089-.385a.457.457,0,0,0-.547-.343Zm5.963-7.627-2.483-1.556.619-.989,2.483,1.556Zm1.808-2.889-.7,1.125-2.483-1.556.7-1.124a.562.562,0,0,1,.775-.178l1.531.959a.562.562,0,0,1,.178.774Z" transform="translate(0 -16.008)" fill="#1492e6"/>
      </g>
      <g id="Group_713" data-name="Group 713" transform="translate(11.011 18.707)">
        <path id="Path_136" data-name="Path 136" d="M241.62,426.621a.456.456,0,1,1,.448-.367A.46.46,0,0,1,241.62,426.621Z" transform="translate(-241.165 -425.709)" fill="#1492e6"/>
      </g>
    </g>
  </g>
</svg>
