<svg xmlns="http://www.w3.org/2000/svg" width="22.212" height="22.212" viewBox="0 0 22.212 22.212">
  <g id="question_1_" data-name="question (1)" transform="translate(0 0)">
    <g id="Group_717" data-name="Group 717" transform="translate(6.335 2.861)">
      <g id="Group_716" data-name="Group 716">
        <path id="Path_141" data-name="Path 141" d="M149.083,66.286a4.859,4.859,0,0,0-3.059,4.5,1.3,1.3,0,0,0,2.6,0,2.238,2.238,0,0,1,2.239-2.24,2.269,2.269,0,0,1,2.242,2.238,2.229,2.229,0,0,1-1.437,2.094,3.277,3.277,0,0,0-1.531,1.2c-.687.992-.574,1.829-.574,3.129a1.321,1.321,0,0,0,.036.306.326.326,0,0,0,.633-.153,8.8,8.8,0,0,1-.019-1.437,2.6,2.6,0,0,1,1.688-2.435,2.888,2.888,0,1,0-3.928-2.7.651.651,0,0,1-1.3,0,4.193,4.193,0,1,1,5.7,3.914,1.335,1.335,0,0,0-.619.479c-.3.421-.234.665-.234,2.025a.653.653,0,0,1-.651.65.326.326,0,0,0-.325.325c0,.683,1.626.267,1.627-.975V75.924a.656.656,0,0,1,.436-.613,4.844,4.844,0,1,0-3.522-9.026Z" transform="translate(-146.024 -65.942)" fill="#1492e6"/>
      </g>
    </g>
    <g id="Group_719" data-name="Group 719" transform="translate(9.877 16.745)">
      <g id="Group_718" data-name="Group 718">
        <path id="Path_142" data-name="Path 142" d="M230.071,386.59a1.3,1.3,0,1,0-1.1,1.975A1.3,1.3,0,0,0,230.071,386.59Zm-1.266,1.3a.634.634,0,0,1-.482-.5.649.649,0,1,1,.482.5Z" transform="translate(-227.659 -385.961)" fill="#1492e6"/>
      </g>
    </g>
    <g id="Group_721" data-name="Group 721" transform="translate(0 0)">
      <g id="Group_720" data-name="Group 720" transform="translate(0 0)">
        <path id="Path_143" data-name="Path 143" d="M16.676,1.5A11.107,11.107,0,0,0,.557,14.586a10.619,10.619,0,0,0,1.6,3.083v0l0,0h0a.323.323,0,0,0,.269.073h0a.3.3,0,0,0,.062-.018h0l.007,0h0a.326.326,0,0,0,.134-.491,10.459,10.459,0,1,1,2.344,2.343.329.329,0,0,0-.346-.023L.981,21.532a.224.224,0,0,1-.329-.192,19.756,19.756,0,0,1,1.387-2.615.325.325,0,1,0-.572-.31C-.009,21.14,0,21.048,0,21.34a.875.875,0,0,0,1.29.765l3.474-1.881A11.106,11.106,0,1,0,16.676,1.5Z" transform="translate(0 0)" fill="#1492e6"/>
      </g>
    </g>
  </g>
</svg>
