<svg id="chat-bubble" xmlns="http://www.w3.org/2000/svg" width="25.13" height="20.516" viewBox="0 0 25.13 20.516">
  <path id="Path_137" data-name="Path 137" d="M4.319,20.516a.491.491,0,0,1-.491-.491V17.08H2.847A2.85,2.85,0,0,1,0,14.234V2.847A2.85,2.85,0,0,1,2.847,0H22.283A2.85,2.85,0,0,1,25.13,2.847V14.234a2.85,2.85,0,0,1-2.847,2.847H20.129a.491.491,0,0,1,0-.982h2.154a1.867,1.867,0,0,0,1.865-1.865V2.847A1.867,1.867,0,0,0,22.283.982H2.847A1.867,1.867,0,0,0,.982,2.847V14.234A1.867,1.867,0,0,0,2.847,16.1H4.319a.491.491,0,0,1,.491.491v2.251l2.6-2.6a.491.491,0,0,1,.347-.144H16.2a.491.491,0,0,1,0,.982H7.958L4.666,20.372a.49.49,0,0,1-.347.144Zm0,0" fill="#1492e6"/>
  <path id="Path_138" data-name="Path 138" d="M297.723,103.763a.491.491,0,0,1-.347-.144l-1.319-1.319-1.319,1.319a.491.491,0,0,1-.694,0l-1.666-1.666a.491.491,0,0,1,0-.694L293.7,99.94l-1.319-1.319a.491.491,0,0,1,0-.694l1.666-1.666a.491.491,0,0,1,.694,0l1.319,1.319,1.319-1.319a.491.491,0,0,1,.694,0l1.666,1.666a.491.491,0,0,1,0,.694l-1.319,1.319,1.319,1.319a.491.491,0,0,1,0,.694l-1.666,1.666A.491.491,0,0,1,297.723,103.763Zm-4.3-2.157.972.972,1.319-1.319a.491.491,0,0,1,.694,0l1.319,1.319.972-.972-1.319-1.319a.491.491,0,0,1,0-.694l1.319-1.319-.972-.972L296.4,98.621a.491.491,0,0,1-.694,0L294.392,97.3l-.972.972,1.319,1.319a.491.491,0,0,1,0,.694Zm0,0" transform="translate(-277.891 -91.4)" fill="#1492e6"/>
  <path id="Path_139" data-name="Path 139" d="M67.488,106.65a.489.489,0,0,1-.347-.144l-.73-.73-.021-.019-2.246-2.246a.491.491,0,0,1,0-.694l1.666-1.666a.491.491,0,0,1,.694,0l.984.984,2.671-2.671a.491.491,0,0,1,.694,0l1.666,1.666a.491.491,0,0,1,0,.694l-4.684,4.684a.489.489,0,0,1-.347.144Zm-.424-1.608.021.019.4.4,3.989-3.989-.972-.972-2.671,2.671a.491.491,0,0,1-.694,0l-.983-.984-.972.972Zm0,0" transform="translate(-60.859 -94.444)" fill="#1492e6"/>
  <path id="Path_140" data-name="Path 140" d="M360.612,328.951a.49.49,0,1,1,.347-.143A.5.5,0,0,1,360.612,328.951Zm0,0" transform="translate(-342.446 -311.872)" fill="#1492e6"/>
</svg>
