<svg xmlns="http://www.w3.org/2000/svg" width="20.221" height="20.227" viewBox="0 0 20.221 20.227">
  <g id="hand-gesture" transform="translate(-0.075 0)">
    <g id="Page-1_4_" transform="translate(0.075 0)">
      <g id="_x30_05---Get-Points" transform="translate(0 0)">
        <path id="Shape_25_" d="M70.875,5.552a.306.306,0,0,1,.08.266l-.3,1.821a.968.968,0,0,0,.391.955A.9.9,0,0,0,72,8.65L73.6,7.779a.228.228,0,0,1,.222,0l1.6.872a.9.9,0,0,0,.959-.057.968.968,0,0,0,.391-.955l-.3-1.821a.3.3,0,0,1,.081-.266l1.266-1.283a.978.978,0,0,0,.228-1,.934.934,0,0,0-.744-.641l-1.767-.266a.259.259,0,0,1-.191-.15L74.545.538a.916.916,0,0,0-1.668,0l-.8,1.675a.259.259,0,0,1-.191.15l-1.766.266a.934.934,0,0,0-.744.641.978.978,0,0,0,.228,1ZM70.019,3.48a.261.261,0,0,1,.205-.184l1.767-.267a.932.932,0,0,0,.7-.528l.8-1.677a.242.242,0,0,1,.45,0l.8,1.677a.933.933,0,0,0,.7.528L77.2,3.3a.261.261,0,0,1,.205.184.308.308,0,0,1-.067.315L76.068,5.078a.983.983,0,0,0-.266.849l.3,1.821a.294.294,0,0,1-.116.3.224.224,0,0,1-.246.015l-1.6-.872a.9.9,0,0,0-.868,0l-1.6.873a.224.224,0,0,1-.246-.015.294.294,0,0,1-.116-.3l.3-1.821a.983.983,0,0,0-.266-.849L70.088,3.795a.308.308,0,0,1-.068-.315Z" transform="translate(-66.631 0)" fill="#1492e6"/>
        <path id="Shape_24_" d="M326.259,20.481a.041.041,0,0,1,.008.034l-.175,1.062a.7.7,0,0,0,.285.695.665.665,0,0,0,.708.042l.925-.509.93.509a.665.665,0,0,0,.708-.042.7.7,0,0,0,.285-.695l-.175-1.063a.041.041,0,0,1,.008-.034l.74-.747a.711.711,0,0,0,.165-.728.684.684,0,0,0-.547-.466l-1.035-.165-.464-.978a.674.674,0,0,0-1.227,0l-.471.988-1.03.156a.684.684,0,0,0-.547.465.71.71,0,0,0,.165.728ZM326,19.206l1.03-.155a.684.684,0,0,0,.514-.387l.469-.986a.026.026,0,0,1,.006.009l.465.978a.684.684,0,0,0,.514.387l1.03.155v.054l-.74.749a.715.715,0,0,0-.193.617l.175,1.063a.045.045,0,0,1-.007.034l-.93-.508a.667.667,0,0,0-.641,0l-.924.509s-.017-.007-.012-.036l.175-1.063a.714.714,0,0,0-.194-.617L326,19.259l-.24.236Z" transform="translate(-312.503 -16.33)" fill="#1492e6"/>
        <path id="Shape_23_" d="M1.413,175.173a.337.337,0,0,0,.211-.074c.069-.056,1.708-1.368,2.388-2.048,2.631-2.632,4.583-2.935,5.822-2.935a1.987,1.987,0,0,1,1.281.458.978.978,0,0,0,.624.216h3.434a.713.713,0,0,1,.729.641.674.674,0,0,1-.674.708H11.517a.337.337,0,1,0,0,.674h3.708a1.348,1.348,0,0,0,1.347-1.418s0-.009,0-.013l2.933-2.457a.679.679,0,0,1,.957.086.688.688,0,0,1-.036.914l-4.207,4.282a.968.968,0,0,1-.655.293H9.473a3.692,3.692,0,0,0-1.382.268l-1.072.431a.337.337,0,0,0,.252.626l1.072-.431a3.028,3.028,0,0,1,1.131-.219h6.1a1.646,1.646,0,0,0,1.127-.492l4.207-4.284a1.355,1.355,0,0,0-1.836-1.989l-1.723,1.442-.1-.62a.476.476,0,0,1,.126-.409l1.58-1.606a1.135,1.135,0,0,0,.266-1.165,1.082,1.082,0,0,0-.863-.742l-2.2-.334a.413.413,0,0,1-.306-.233l-.994-2.1a1.058,1.058,0,0,0-1.931,0l-.993,2.093a.415.415,0,0,1-.308.236l-2.2.334a1.081,1.081,0,0,0-.864.742,1.134,1.134,0,0,0,.265,1.164l1.58,1.6a.477.477,0,0,1,.127.4l-.05.294a2.7,2.7,0,0,0-.645-.076c-1.359,0-3.49.325-6.3,3.133-.653.653-2.315,1.985-2.332,2a.337.337,0,0,0,.211.6Zm9.468-6.824-1.582-1.6a.466.466,0,0,1-.1-.477.4.4,0,0,1,.324-.287l2.205-.334a1.1,1.1,0,0,0,.813-.61l.995-2.1a.384.384,0,0,1,.712,0l1,2.1a1.1,1.1,0,0,0,.811.607l2.206.334a.4.4,0,0,1,.323.287.466.466,0,0,1-.106.476l-1.581,1.605a1.156,1.156,0,0,0-.312.989l.169,1.015-.42.351a1.416,1.416,0,0,0-1.159-.589H11.736a.3.3,0,0,1-.194-.061,2.667,2.667,0,0,0-.423-.284l.073-.435a1.157,1.157,0,0,0-.312-.987Z" transform="translate(-1.075 -155.621)" fill="#1492e6"/>
      </g>
    </g>
  </g>
</svg>
