<svg xmlns="http://www.w3.org/2000/svg" width="17.472" height="23.291" viewBox="0 0 17.472 23.291">
  <g id="clipboard" transform="translate(-63.958 0)">
    <g id="Group_705" data-name="Group 705" transform="translate(71.268 5.344)">
      <g id="Group_704" data-name="Group 704" transform="translate(0)">
        <g id="Group_697" data-name="Group 697">
          <g id="Group_695" data-name="Group 695" transform="translate(0 1.751)">
            <path id="Path_124" data-name="Path 124" d="M228.7,156.657H225a.341.341,0,1,1,0-.682H228.7a.341.341,0,1,1,0,.682Z" transform="translate(-224.657 -155.975)" fill="#1492e6"/>
          </g>
          <g id="Group_696" data-name="Group 696">
            <path id="Path_125" data-name="Path 125" d="M232.408,118.16H225a.341.341,0,1,1,0-.682h7.41a.341.341,0,1,1,0,.682Z" transform="translate(-224.657 -117.478)" fill="#1492e6"/>
          </g>
        </g>
        <g id="Group_700" data-name="Group 700" transform="translate(0 5.717)">
          <g id="Group_698" data-name="Group 698" transform="translate(0 1.751)">
            <path id="Path_126" data-name="Path 126" d="M228.7,282.344H225a.341.341,0,1,1,0-.682H228.7a.341.341,0,1,1,0,.682Z" transform="translate(-224.657 -281.662)" fill="#1492e6"/>
          </g>
          <g id="Group_699" data-name="Group 699">
            <path id="Path_127" data-name="Path 127" d="M232.408,243.846H225a.341.341,0,1,1,0-.682h7.41a.341.341,0,1,1,0,.682Z" transform="translate(-224.657 -243.164)" fill="#1492e6"/>
          </g>
        </g>
        <g id="Group_703" data-name="Group 703" transform="translate(0 11.435)">
          <g id="Group_701" data-name="Group 701" transform="translate(0 1.751)">
            <path id="Path_128" data-name="Path 128" d="M228.7,408.031H225a.341.341,0,1,1,0-.682H228.7a.341.341,0,1,1,0,.682Z" transform="translate(-224.657 -407.349)" fill="#1492e6"/>
          </g>
          <g id="Group_702" data-name="Group 702">
            <path id="Path_129" data-name="Path 129" d="M232.408,369.533H225a.341.341,0,1,1,0-.682h7.41a.341.341,0,1,1,0,.682Z" transform="translate(-224.657 -368.851)" fill="#1492e6"/>
          </g>
        </g>
      </g>
    </g>
    <g id="Group_706" data-name="Group 706" transform="translate(68.727 0)">
      <path id="Path_130" data-name="Path 130" d="M175.707,3.214h-5.9A1.018,1.018,0,0,1,168.79,2.2V1.017A1.018,1.018,0,0,1,169.807,0h5.9a1.018,1.018,0,0,1,1.017,1.017V2.2A1.018,1.018,0,0,1,175.707,3.214Zm-5.9-2.532a.335.335,0,0,0-.335.335V2.2a.335.335,0,0,0,.335.335h5.9a.335.335,0,0,0,.335-.335V1.017a.335.335,0,0,0-.335-.335Z" transform="translate(-168.79 0)" fill="#1492e6"/>
    </g>
    <g id="Group_710" data-name="Group 710" transform="translate(66.027 4.887)">
      <g id="Group_707" data-name="Group 707" transform="translate(0)">
        <path id="Path_131" data-name="Path 131" d="M111.88,110.772h-1.516a.917.917,0,0,1-.916-.916V108.34a.917.917,0,0,1,.916-.916h1.516a.917.917,0,0,1,.916.916v1.516A.917.917,0,0,1,111.88,110.772Zm-1.516-2.666a.234.234,0,0,0-.234.234v1.516a.234.234,0,0,0,.234.234h1.516a.234.234,0,0,0,.234-.234V108.34a.234.234,0,0,0-.234-.234Z" transform="translate(-109.448 -107.424)" fill="#1492e6"/>
      </g>
      <g id="Group_708" data-name="Group 708" transform="translate(0 5.717)">
        <path id="Path_132" data-name="Path 132" d="M111.88,236.458h-1.516a.917.917,0,0,1-.916-.916v-1.516a.917.917,0,0,1,.916-.916h1.516a.917.917,0,0,1,.916.916v1.516A.917.917,0,0,1,111.88,236.458Zm-1.516-2.666a.234.234,0,0,0-.234.234v1.516a.234.234,0,0,0,.234.234h1.516a.234.234,0,0,0,.234-.234v-1.516a.234.234,0,0,0-.234-.234Z" transform="translate(-109.448 -233.11)" fill="#1492e6"/>
      </g>
      <g id="Group_709" data-name="Group 709" transform="translate(0 11.435)">
        <path id="Path_133" data-name="Path 133" d="M111.88,362.144h-1.516a.917.917,0,0,1-.916-.916v-1.516a.917.917,0,0,1,.916-.916h1.516a.917.917,0,0,1,.916.916v1.516A.917.917,0,0,1,111.88,362.144Zm-1.516-2.666a.234.234,0,0,0-.234.234v1.516a.234.234,0,0,0,.234.234h1.516a.234.234,0,0,0,.234-.234v-1.516a.234.234,0,0,0-.234-.234Z" transform="translate(-109.448 -358.796)" fill="#1492e6"/>
      </g>
    </g>
    <g id="Group_711" data-name="Group 711" transform="translate(63.958 1.266)">
      <path id="Path_134" data-name="Path 134" d="M79.952,49.851H65.436a1.48,1.48,0,0,1-1.478-1.478V29.3a1.48,1.48,0,0,1,1.478-1.478h2.045a.341.341,0,0,1,0,.682H65.436a.8.8,0,0,0-.8.8V48.373a.8.8,0,0,0,.8.8H79.952a.8.8,0,0,0,.8-.8V29.3a.8.8,0,0,0-.8-.8H77.908a.341.341,0,0,1,0-.682h2.045A1.48,1.48,0,0,1,81.43,29.3V48.373A1.48,1.48,0,0,1,79.952,49.851Z" transform="translate(-63.958 -27.826)" fill="#1492e6"/>
    </g>
  </g>
</svg>
