<svg xmlns="http://www.w3.org/2000/svg" width="16.337" height="11.311" viewBox="0 0 16.337 11.311">
  <g id="Icon_ionic-ios-mail" data-name="Icon ionic-ios-mail" transform="translate(-3.375 -7.875)">
    <path id="Path_147" data-name="Path 147" d="M19.579,10.338l-4.226,4.3a.076.076,0,0,0,0,.11L18.31,17.9a.51.51,0,0,1,0,.723.512.512,0,0,1-.723,0l-2.945-3.138a.081.081,0,0,0-.114,0l-.719.73a3.162,3.162,0,0,1-2.254.95,3.225,3.225,0,0,1-2.3-.978l-.691-.7a.081.081,0,0,0-.114,0L5.5,18.624a.512.512,0,0,1-.723,0,.51.51,0,0,1,0-.723l2.957-3.15a.084.084,0,0,0,0-.11l-4.23-4.3a.077.077,0,0,0-.134.055v8.613a1.26,1.26,0,0,0,1.257,1.257H18.456a1.26,1.26,0,0,0,1.257-1.257V10.393A.079.079,0,0,0,19.579,10.338Z" transform="translate(0 -1.077)" fill="#a4a4a4"/>
    <path id="Path_148" data-name="Path 148" d="M11.919,15.066a2.135,2.135,0,0,0,1.536-.644L19.617,8.15a1.234,1.234,0,0,0-.778-.275H5a1.226,1.226,0,0,0-.778.275l6.162,6.272A2.135,2.135,0,0,0,11.919,15.066Z" transform="translate(-0.376)" fill="#a4a4a4"/>
  </g>
</svg>
