<svg xmlns="http://www.w3.org/2000/svg" width="13.53" height="13.53" viewBox="0 0 13.53 13.53">
  <path id="Icon_awesome-phone-alt" data-name="Icon awesome-phone-alt" d="M13.144,9.561l-2.96-1.268a.634.634,0,0,0-.74.182l-1.311,1.6A9.8,9.8,0,0,1,3.451,5.394l1.6-1.311a.633.633,0,0,0,.182-.74L3.967.384A.638.638,0,0,0,3.24.016L.492.651A.634.634,0,0,0,0,1.269,12.261,12.261,0,0,0,12.262,13.531a.634.634,0,0,0,.618-.492l.634-2.748a.642.642,0,0,0-.37-.729Z" transform="translate(0 0)" fill="#a4a4a4"/>
</svg>
