<?xml version="1.0" encoding="utf-8"?>
<svg id="master-artboard" viewBox="0 0 550 550" version="1.1" xmlns="http://www.w3.org/2000/svg" x="0px" y="0px" style="enable-background:new 0 0 1400 980;" width="550px" height="550px"><rect id="ee-background" x="0" y="0" width="550" height="550" style="fill: white; fill-opacity: 0; pointer-events: none;"/><g transform="matrix(5.196181297302246, 0, 0, 5.196181297302246, -1723.1953125, -3229.531494140625)"><path d="M 423.29998779296875 681.7999877929688 L 431.29998779296875 673.9000244140625 L 423.6000061035156 666.2000122070312 L 427.8999938964844 656.2000122070312 L 417.5 651.7999877929688 L 417.5 640.5 L 406.6000061035156 640.5 L 402.6000061035156 630.5 L 392.1000061035156 634.7000122070312 L 384.1000061035156 626.7000122070312 L 376.5 634.4000244140625 L 366.5 630.0999755859375 L 362.1000061035156 640.5 L 350.79998779296875 640.5 L 350.79998779296875 651.4000244140625 L 340.79998779296875 655.4000244140625 L 345 665.9000244140625 L 337 673.9000244140625 L 344.70001220703125 681.5 L 340.3999938964844 691.5 L 350.79998779296875 695.9000244140625 L 350.79998779296875 707.2000122070312 L 361.6000061035156 707.2000122070312 L 365.70001220703125 717.2000122070312 L 376.20001220703125 713 L 384.1000061035156 721 L 391.79998779296875 713.2999877929688 L 401.79998779296875 717.5999755859375 L 406.20001220703125 707.2000122070312 L 417.5 707.2000122070312 L 417.5 696.4000244140625 L 427.5 692.2999877929688 Z" class="st0" style="fill: rgb(0, 185, 253);" transform="matrix(1, 0, 0, 1, 0, 0)"/></g><g transform="matrix(2.378657102584839, 0, 0, 2.378657102584839, -1752.0328369140625, -1500.2327880859375)"><path fill="#CCCCCB" d="M909.5,687.1c-32.7,15.4-52,50.8-68.8,84.7c-5.9-9.7-11.1-20.1-15.9-31c-12.5,5.4-22.3,13.5-34,19.7&#10;&#9;&#9;&#9;c20.9,10.6,37,26,51.4,43.1c20.1-27.3,37.5-57.3,69.6-72.6c0-0.3,0-0.5,0-0.8C905.2,719.4,907.9,701.4,909.5,687.1z" transform="matrix(1, 0, 0, 1, 0, 0)" style="fill: rgb(245, 245, 245);"/></g></svg>