<?xml version="1.0" standalone="no"?>
<!DOCTYPE svg PUBLIC "-//W3C//DTD SVG 20010904//EN"
 "http://www.w3.org/TR/2001/REC-SVG-20010904/DTD/svg10.dtd">
<svg version="1.0" xmlns="http://www.w3.org/2000/svg"
 width="200.000000pt" height="200.000000pt" viewBox="0 0 200.000000 200.000000"
 preserveAspectRatio="xMidYMid meet">

<g transform="translate(0.000000,200.000000) scale(0.100000,-0.100000)"
fill="#000000" stroke="none">
<path d="M359 1900 c-42 -12 -77 -40 -101 -79 l-23 -36 -3 -608 c-2 -406 1
-620 8 -647 6 -21 22 -53 36 -70 43 -51 72 -60 188 -60 l105 0 3 563 c3 559 3
562 25 604 51 95 86 103 461 103 l302 0 0 55 c0 88 -47 153 -125 174 -46 13
-835 14 -876 1z"/>
<path d="M698 1584 c-60 -32 -58 -11 -58 -742 l0 -669 22 -28 c43 -54 49 -55
540 -55 499 0 496 0 542 63 21 28 21 39 24 660 2 348 0 652 -3 676 -5 32 -16
54 -40 78 l-33 33 -484 0 c-408 -1 -487 -3 -510 -16z"/>
</g>
</svg>
