<svg width="511.999" height="511.999" xmlns="http://www.w3.org/2000/svg">

 <g>
  <title>Layer 1</title>
  <g id="svg_1">
   <g id="svg_2">
    <path fill="#0098f2" id="svg_3" d="m438.09,273.32l-39.596,0c4.036,11.05 6.241,22.975 6.241,35.404l0,149.65c0,5.182 -0.902,10.156 -2.543,14.782l65.461,0c24.453,0 44.346,-19.894 44.346,-44.346l0,-81.581c0.001,-40.753 -33.155,-73.909 -73.909,-73.909z"/>
   </g>
  </g>
  <g id="svg_4">
   <g id="svg_5">
    <path fill="#0098f2" id="svg_6" d="m107.265,308.725c0,-12.43 2.205,-24.354 6.241,-35.404l-39.596,0c-40.754,0 -73.91,33.156 -73.91,73.91l0,81.581c0,24.452 19.893,44.346 44.346,44.346l65.462,0c-1.641,-4.628 -2.543,-9.601 -2.543,-14.783l0,-149.65z"/>
   </g>
  </g>
  <g id="svg_7">
   <g id="svg_8">
    <path fill="#0098f2" id="svg_9" d="m301.261,234.815l-90.522,0c-40.754,0 -73.91,33.156 -73.91,73.91l0,149.65c0,8.163 6.618,14.782 14.782,14.782l208.778,0c8.164,0 14.782,-6.618 14.782,-14.782l0,-149.65c0,-40.754 -33.156,-73.91 -73.91,-73.91z"/>
   </g>
  </g>
  <g id="svg_10">
   <g id="svg_11">
    <path fill="#0098f2" id="svg_12" d="m256,38.84c-49.012,0 -88.886,39.874 -88.886,88.887c0,33.245 18.349,62.28 45.447,77.524c12.853,7.23 27.671,11.362 43.439,11.362c15.768,0 30.586,-4.132 43.439,-11.362c27.099,-15.244 45.447,-44.28 45.447,-77.524c0,-49.012 -39.874,-88.887 -88.886,-88.887z"/>
   </g>
  </g>
  <g id="svg_13">
   <g id="svg_14">
    <path fill="#0098f2" id="svg_15" d="m99.918,121.689c-36.655,0 -66.475,29.82 -66.475,66.475c0,36.655 29.82,66.475 66.475,66.475c9.298,0 18.152,-1.926 26.195,-5.388c13.906,-5.987 25.372,-16.585 32.467,-29.86c4.98,-9.317 7.813,-19.946 7.813,-31.227c0,-36.654 -29.82,-66.475 -66.475,-66.475z"/>
   </g>
  </g>
  <g id="svg_16">
   <g id="svg_17">
    <path fill="#0098f2" id="svg_18" d="m412.082,121.689c-36.655,0 -66.475,29.82 -66.475,66.475c0,11.282 2.833,21.911 7.813,31.227c7.095,13.276 18.561,23.874 32.467,29.86c8.043,3.462 16.897,5.388 26.195,5.388c36.655,0 66.475,-29.82 66.475,-66.475c0,-36.655 -29.82,-66.475 -66.475,-66.475z"/>
   </g>
  </g>
  <g id="svg_19"/>
  <g id="svg_20"/>
  <g id="svg_21"/>
  <g id="svg_22"/>
  <g id="svg_23"/>
  <g id="svg_24"/>
  <g id="svg_25"/>
  <g id="svg_26"/>
  <g id="svg_27"/>
  <g id="svg_28"/>
  <g id="svg_29"/>
  <g id="svg_30"/>
  <g id="svg_31"/>
  <g id="svg_32"/>
  <g id="svg_33"/>
 </g>
</svg>