<svg width="512" height="512" viewBox="0 0 512 512" fill="none" xmlns="http://www.w3.org/2000/svg">
<g clip-path="url(#clip0_9_16)">
<path d="M288 89.1733C282.112 89.1733 277.333 84.3947 277.333 78.5067V42.6667C277.333 30.912 267.755 21.3333 256 21.3333C244.245 21.3333 234.667 30.912 234.667 42.6667V78.5067C234.667 84.3947 229.888 89.1733 224 89.1733C218.112 89.1733 213.333 84.416 213.333 78.5067V42.6667C213.333 19.136 232.469 0 256 0C279.531 0 298.667 19.136 298.667 42.6667V78.5067C298.667 84.416 293.888 89.1733 288 89.1733Z" fill="#0098F2"/>
<path d="M256 512C214.827 512 181.333 478.507 181.333 437.333C181.333 431.445 186.112 426.667 192 426.667C197.888 426.667 202.667 431.445 202.667 437.333C202.667 466.731 226.603 490.667 256 490.667C285.397 490.667 309.333 466.731 309.333 437.333C309.333 431.445 314.112 426.667 320 426.667C325.888 426.667 330.667 431.445 330.667 437.333C330.667 478.507 297.173 512 256 512Z" fill="#0098F2"/>
<path d="M437.333 448H74.6667C57.024 448 42.6667 433.643 42.6667 416C42.6667 406.635 46.7413 397.781 53.8667 391.68C87.488 363.264 106.667 321.92 106.667 278.144V213.333C106.667 130.987 173.653 64 256 64C338.347 64 405.333 130.987 405.333 213.333V278.144C405.333 321.941 424.512 363.264 457.963 391.531C465.259 397.781 469.333 406.635 469.333 416C469.333 433.643 454.997 448 437.333 448ZM256 85.3333C185.408 85.3333 128 142.741 128 213.333V278.144C128 328.235 106.069 375.488 67.8187 407.829C65.3653 409.92 64 412.885 64 416C64 421.888 68.7787 426.667 74.6667 426.667H437.333C443.221 426.667 448 421.888 448 416C448 412.885 446.635 409.92 444.267 407.893C405.952 375.488 384 328.213 384 278.144V213.333C384 142.741 326.592 85.3333 256 85.3333Z" fill="#0098F2"/>
</g>
<defs>
<clipPath id="clip0_9_16">
<rect width="512" height="512" fill="white"/>
</clipPath>
</defs>
</svg>
