<svg xmlns="http://www.w3.org/2000/svg" width="21" height="21" viewBox="0 0 21 21"><g transform="translate(-2.563 -25.83)"><g transform="translate(2.563 26.209)"><g transform="translate(0 -0.379)" fill="#ff5858" stroke="#fff" stroke-width="1"><circle cx="10.5" cy="10.5" r="10.5" stroke="none"/><circle cx="10.5" cy="10.5" r="10" fill="none"/></g></g><g transform="translate(6.957 32.086)"><g transform="translate(0 0.001)"><path d="M9.06,30a2.921,2.921,0,0,0-1.824.631,4.155,4.155,0,0,0-1.067,1.283A4.155,4.155,0,0,0,5.1,30.631,2.921,2.921,0,0,0,3.277,30,3.349,3.349,0,0,0,0,33.554c0,2.189,1.758,3.687,4.418,5.954.452.385.964.821,1.5,1.287a.386.386,0,0,0,.508,0c.532-.466,1.044-.9,1.5-1.287,2.66-2.267,4.418-3.765,4.418-5.954A3.349,3.349,0,0,0,9.06,30Z" transform="translate(0 -30)" fill="#fff"/></g></g></g></svg>