<svg xmlns="http://www.w3.org/2000/svg" xmlns:xlink="http://www.w3.org/1999/xlink" width="19" height="19" viewBox="0 0 19 19"><defs><clipPath id="a"><rect width="10.31" height="10.31" fill="none"/></clipPath></defs><g transform="translate(-2 -28.83)"><g transform="translate(2 28.83)"><g transform="translate(0 0)" fill="#aa6aff"><path d="M 9.5 18.5 C 4.537380218505859 18.5 0.5 14.46261978149414 0.5 9.5 C 0.5 4.537380218505859 4.537380218505859 0.5 9.5 0.5 C 14.46261978149414 0.5 18.5 4.537380218505859 18.5 9.5 C 18.5 14.46261978149414 14.46261978149414 18.5 9.5 18.5 Z" stroke="none"/><path d="M 9.5 1 C 4.813079833984375 1 1 4.813079833984375 1 9.5 C 1 14.18692016601563 4.813079833984375 18 9.5 18 C 14.18692016601563 18 18 14.18692016601563 18 9.5 C 18 4.813079833984375 14.18692016601563 1 9.5 1 M 9.5 0 C 14.74670028686523 0 19 4.253299713134766 19 9.5 C 19 14.74670028686523 14.74670028686523 19 9.5 19 C 4.253299713134766 19 0 14.74670028686523 0 9.5 C 0 4.253299713134766 4.253299713134766 0 9.5 0 Z" stroke="none" fill="#fff"/></g></g><g transform="translate(6.345 33.174)" clip-path="url(#a)"><path d="M4.106,10.31V6.2H0v-2.1H4.106V0H6.2V4.107H10.31V6.2H6.2V10.31Z" fill="#fff"/></g></g></svg>