<svg xmlns="http://www.w3.org/2000/svg" width="20.133" height="20.133" viewBox="0 0 20.133 20.133"><g transform="translate(-5 -26.375)"><g transform="translate(5 26.375)"><g transform="translate(0 0)" fill="#41b3ff" stroke="#fff" stroke-width="1"><circle cx="10.066" cy="10.066" r="10.066" stroke="none"/><circle cx="10.066" cy="10.066" r="9.566" fill="none"/></g></g><g transform="translate(7.858 32.928)"><path d="M7.387,10.155a6.532,6.532,0,0,1,2.61.554,1.837,1.837,0,0,1,1.083,1.681v1H3.694V12.4a1.824,1.824,0,0,1,1.083-1.681A6.427,6.427,0,0,1,7.387,10.155Zm-4.925.154A1.231,1.231,0,1,0,1.231,9.078,1.235,1.235,0,0,0,2.462,10.309Zm.7.677a4.3,4.3,0,0,0-.7-.062,4.279,4.279,0,0,0-1.711.357A1.238,1.238,0,0,0,0,12.421v.966H2.77V12.4A2.769,2.769,0,0,1,3.158,10.986Zm9.154-.677a1.231,1.231,0,1,0-1.231-1.231A1.235,1.235,0,0,0,12.312,10.309Zm2.462,2.111a1.238,1.238,0,0,0-.751-1.139,4.185,4.185,0,0,0-2.407-.3A2.769,2.769,0,0,1,12,12.4v.991h2.77ZM7.387,6A1.847,1.847,0,1,1,5.54,7.847,1.844,1.844,0,0,1,7.387,6Z" transform="translate(0 -6)" fill="#fff"/></g></g></svg>