<svg xmlns="http://www.w3.org/2000/svg" width="177.742" height="40.639" viewBox="0 0 177.742 47.639"><g transform="translate(41.008 1.422)"><path d="M57.7,12.49a1.852,1.852,0,0,1,2.545,0,1.669,1.669,0,0,1,.526,1.255v9.65a8.519,8.519,0,0,0,1.567,5.33,5.156,5.156,0,0,0,4.276,1.9,6,6,0,0,0,2.508-.529,6.468,6.468,0,0,0,2.038-1.447,7.1,7.1,0,0,0,1.4-2.19,7.769,7.769,0,0,0,.579-2.755V13.749a1.68,1.68,0,0,1,.523-1.259,1.74,1.74,0,0,1,1.259-.507,1.777,1.777,0,0,1,1.269.508,1.671,1.671,0,0,1,.535,1.262V32.441a1.683,1.683,0,0,1-.535,1.252,1.788,1.788,0,0,1-1.293.518,1.662,1.662,0,0,1-1.259-.525,1.77,1.77,0,0,1-.5-1.268V30.65a10.785,10.785,0,0,1-3.155,2.6,7.83,7.83,0,0,1-3.77.962,8.691,8.691,0,0,1-3.722-.777,8.048,8.048,0,0,1-2.849-2.216,10.264,10.264,0,0,1-1.821-3.429,14.5,14.5,0,0,1-.637-4.443v-9.6A1.7,1.7,0,0,1,57.7,12.49Z" transform="translate(-57.192 -4.813)" fill="#323232"/><path d="M93,24.8a7.35,7.35,0,0,0,.863,2.483A7.4,7.4,0,0,0,97.712,30.6a7.758,7.758,0,0,0,5.752-.163,6.294,6.294,0,0,0,2.244-1.7,1.881,1.881,0,0,1,.921-.437,2.051,2.051,0,0,1,.85.059,1.7,1.7,0,0,1,.826.732,1.854,1.854,0,0,1,.331,1.169A1.68,1.68,0,0,1,108,31.475a9.526,9.526,0,0,1-1.382,1.183,9.156,9.156,0,0,1-1.713.945,10.972,10.972,0,0,1-2.078.639,12.2,12.2,0,0,1-2.479.237,11.1,11.1,0,0,1-4.393-.873,11.226,11.226,0,0,1-6.011-5.973,11.334,11.334,0,0,1,0-8.781,11.263,11.263,0,0,1,2.421-3.576,11.512,11.512,0,0,1,3.589-2.408,11.371,11.371,0,0,1,8.763-.014,11.222,11.222,0,0,1,3.579,2.386,11.568,11.568,0,0,1,2.42,3.539,10.849,10.849,0,0,1,.921,4.327,1.632,1.632,0,0,1-.485,1.223,1.736,1.736,0,0,1-1.263.47H93Zm15-2.958a7.1,7.1,0,0,0-.863-2.546,7.735,7.735,0,0,0-1.676-2.053,7.649,7.649,0,0,0-2.3-1.361,7.738,7.738,0,0,0-2.762-.493,7.467,7.467,0,0,0-2.752.505,7.682,7.682,0,0,0-2.279,1.372,7.479,7.479,0,0,0-1.641,2.053,7.335,7.335,0,0,0-.839,2.522Z" transform="translate(-66.209 -4.813)" fill="#323232"/><path d="M128.314,23.364a10.219,10.219,0,0,1-2.242-1.273,6.211,6.211,0,0,1-1.581-1.731,4.431,4.431,0,0,1-.6-2.355,5.259,5.259,0,0,1,.636-2.6,6.1,6.1,0,0,1,1.686-1.931,7.713,7.713,0,0,1,2.393-1.2,9.361,9.361,0,0,1,2.759-.413,10.2,10.2,0,0,1,2.028.206,8.683,8.683,0,0,1,1.909.619,6.692,6.692,0,0,1,1.616,1.043,4.945,4.945,0,0,1,1.147,1.453,1.7,1.7,0,0,1,.188.992,1.459,1.459,0,0,1-.376.78,1.7,1.7,0,0,1-.827.485,1.337,1.337,0,0,1-.968-.108,10.083,10.083,0,0,0-2.016-1.628,4.719,4.719,0,0,0-2.464-.614,7.464,7.464,0,0,0-1.521.154,4.108,4.108,0,0,0-1.321.505,2.841,2.841,0,0,0-.931.908,2.425,2.425,0,0,0-.353,1.33,2.323,2.323,0,0,0,.341,1.284,3.072,3.072,0,0,0,.941.917,7.126,7.126,0,0,0,1.39.683q.787.294,1.706.577,1.483.471,2.812.989A10.247,10.247,0,0,1,137,23.695a5.859,5.859,0,0,1,1.612,1.767,4.875,4.875,0,0,1,.6,2.507,5.659,5.659,0,0,1-.589,2.567,6.325,6.325,0,0,1-1.64,2.05,7.887,7.887,0,0,1-2.466,1.365,9.175,9.175,0,0,1-3.043.494,11.717,11.717,0,0,1-2.36-.242,9.526,9.526,0,0,1-2.218-.739,8.386,8.386,0,0,1-1.9-1.25,5.846,5.846,0,0,1-1.38-1.775,1.735,1.735,0,0,1-.225-1.392,1.611,1.611,0,0,1,.723-.921,1.8,1.8,0,0,1,1.218-.2,2.043,2.043,0,0,1,1.268.815,4.956,4.956,0,0,0,1.975,1.889,6.447,6.447,0,0,0,2.924.591,5.671,5.671,0,0,0,1.6-.224,4.776,4.776,0,0,0,1.372-.636,3.364,3.364,0,0,0,.971-1,2.493,2.493,0,0,0,.367-1.343,2.3,2.3,0,0,0-.426-1.4,3.885,3.885,0,0,0-1.121-1,7.747,7.747,0,0,0-1.57-.718c-.582-.2-1.174-.381-1.77-.554Q129.575,23.9,128.314,23.364Z" transform="translate(-75.909 -4.778)" fill="#323232"/><path d="M153.458,23.364a10.219,10.219,0,0,1-2.242-1.273,6.211,6.211,0,0,1-1.581-1.731,4.431,4.431,0,0,1-.6-2.355,5.259,5.259,0,0,1,.636-2.6,6.1,6.1,0,0,1,1.686-1.931,7.713,7.713,0,0,1,2.393-1.2,9.361,9.361,0,0,1,2.759-.413,10.2,10.2,0,0,1,2.028.206,8.683,8.683,0,0,1,1.909.619,6.691,6.691,0,0,1,1.616,1.043,4.945,4.945,0,0,1,1.147,1.453,1.7,1.7,0,0,1,.188.992,1.459,1.459,0,0,1-.376.78,1.7,1.7,0,0,1-.827.485,1.337,1.337,0,0,1-.968-.108,10.083,10.083,0,0,0-2.016-1.628,4.719,4.719,0,0,0-2.464-.614,7.464,7.464,0,0,0-1.521.154,4.108,4.108,0,0,0-1.321.505,2.841,2.841,0,0,0-.931.908,2.425,2.425,0,0,0-.353,1.33,2.323,2.323,0,0,0,.341,1.284,3.072,3.072,0,0,0,.941.917,7.126,7.126,0,0,0,1.39.683q.787.294,1.706.577,1.483.471,2.812.989a10.248,10.248,0,0,1,2.34,1.261,5.859,5.859,0,0,1,1.612,1.767,4.875,4.875,0,0,1,.6,2.507,5.659,5.659,0,0,1-.589,2.567,6.324,6.324,0,0,1-1.64,2.05,7.887,7.887,0,0,1-2.466,1.365,9.175,9.175,0,0,1-3.043.494,11.717,11.717,0,0,1-2.36-.242,9.526,9.526,0,0,1-2.218-.739,8.385,8.385,0,0,1-1.9-1.25,5.846,5.846,0,0,1-1.38-1.775,1.735,1.735,0,0,1-.225-1.392,1.611,1.611,0,0,1,.723-.921,1.8,1.8,0,0,1,1.218-.2,2.043,2.043,0,0,1,1.268.815,4.956,4.956,0,0,0,1.975,1.889,6.447,6.447,0,0,0,2.924.591,5.671,5.671,0,0,0,1.6-.224,4.775,4.775,0,0,0,1.372-.636,3.365,3.365,0,0,0,.971-1,2.493,2.493,0,0,0,.367-1.343,2.3,2.3,0,0,0-.426-1.4,3.885,3.885,0,0,0-1.121-1,7.747,7.747,0,0,0-1.57-.718c-.582-.2-1.174-.381-1.77-.554Q154.719,23.9,153.458,23.364Z" transform="translate(-83.024 -4.778)" fill="#323232"/><path d="M175.74,2.581a2.121,2.121,0,0,1,2.953,0,1.984,1.984,0,0,1,.6,1.463,2.069,2.069,0,0,1-2.079,2.061A1.993,1.993,0,0,1,175.74,5.5a1.989,1.989,0,0,1-.6-1.452A1.98,1.98,0,0,1,175.74,2.581ZM179,29.61a1.765,1.765,0,0,1-1.769,1.772,1.771,1.771,0,0,1-1.278-.52,1.675,1.675,0,0,1-.538-1.252v-18.7a1.726,1.726,0,0,1,.525-1.276,1.77,1.77,0,0,1,1.291-.52,1.687,1.687,0,0,1,1.266.52,1.767,1.767,0,0,1,.5,1.276Z" transform="translate(-90.569 -1.983)" fill="#323232"/><path d="M239.652,33.717a1.806,1.806,0,0,1-1.29.494,1.742,1.742,0,0,1-1.255-.493,1.653,1.653,0,0,1-.514-1.246V22.926a11.043,11.043,0,0,0-.4-3.1,6.765,6.765,0,0,0-1.152-2.316,4.89,4.89,0,0,0-1.846-1.446,5.9,5.9,0,0,0-2.456-.494,5.977,5.977,0,0,0-2.5.529,6.39,6.39,0,0,0-2.035,1.459,7.318,7.318,0,0,0-1.4,2.19,7.583,7.583,0,0,0-.576,2.718v9.979a1.763,1.763,0,0,1-1.769,1.766,1.776,1.776,0,0,1-1.278-.518,1.674,1.674,0,0,1-.538-1.249V13.774a1.719,1.719,0,0,1,.525-1.271,1.77,1.77,0,0,1,1.291-.52,1.691,1.691,0,0,1,1.266.518,1.759,1.759,0,0,1,.5,1.271l-.037,1.766a10.74,10.74,0,0,1,3.158-2.595,7.9,7.9,0,0,1,3.8-.961,8.629,8.629,0,0,1,3.713.779,8.168,8.168,0,0,1,2.839,2.2,10.311,10.311,0,0,1,1.833,3.419,14.154,14.154,0,0,1,.651,4.42v9.663A1.647,1.647,0,0,1,239.652,33.717Z" transform="translate(-103.445 -4.813)" fill="#323232"/></g><path d="M0,17.831A17.777,17.777,0,0,0,21.843,35.19l1.233,1.657A3.811,3.811,0,1,0,29.19,32.3l-2.846-3.825A3.81,3.81,0,0,0,21.8,27.238a10.2,10.2,0,1,1,5.879-6.718,3.811,3.811,0,1,0,7.354,2A17.832,17.832,0,1,0,0,17.831Z" fill="#04bbfd"/><g transform="translate(26.677 38.654)"><circle cx="4.492" cy="4.492" r="4.492" fill="#04bbfd"/></g><g transform="translate(124.428 0.544)"><circle cx="2.873" cy="2.873" r="2.873" fill="#04bbfd"/></g><path d="M206.4,18.406a11.344,11.344,0,0,0-2.417-3.572,11.462,11.462,0,0,0-3.578-2.4,11.338,11.338,0,0,0-8.782,0,11.52,11.52,0,0,0-3.6,2.4,11.237,11.237,0,0,0-2.43,3.572,11.253,11.253,0,0,0,0,8.761,11.64,11.64,0,0,0,1.187,2.094l-1.407,5.249,5.824-1.56c.143.068.28.143.427.207a11.355,11.355,0,0,0,8.782,0,11.339,11.339,0,0,0,3.578-2.417,11.525,11.525,0,0,0,2.417-3.572,11.236,11.236,0,0,0,0-8.761Zm-2.787,7.556a8.24,8.24,0,0,1-1.746,2.6,8.371,8.371,0,0,1-2.62,1.775,8.354,8.354,0,0,1-6.477,0c-.123-.054-.238-.117-.358-.175l-4.048,1.085.977-3.646a8.483,8.483,0,0,1-.948-1.641,7.861,7.861,0,0,1-.644-3.17,8.034,8.034,0,0,1,.644-3.207,8.175,8.175,0,0,1,1.76-2.6,8.29,8.29,0,0,1,2.618-1.749,8.492,8.492,0,0,1,6.477,0,8.336,8.336,0,0,1,2.62,1.749,8.058,8.058,0,0,1,1.746,2.6,8.164,8.164,0,0,1,.632,3.207A8,8,0,0,1,203.612,25.962Z" transform="translate(-52.268 -3.267)" fill="#323232"/></svg>