<?xml version="1.0" encoding="utf-8"?>
<svg id="master-artboard" viewBox="0 0 648.0628662109375 638.9588623046875" version="1.1" xmlns="http://www.w3.org/2000/svg" x="0px" y="0px" style="enable-background:new 0 0 1400 980;" width="648.0628662109375px" height="638.9588623046875px"><defs><linearGradient id="paint0_linear_387_7" x1="2.28429" y1="52.3701" x2="43.2257" y2="11.4468" gradientUnits="userSpaceOnUse">
<stop stop-color="#A055FF"/>
<stop offset="1" stop-color="#5200FF"/>
</linearGradient><linearGradient id="paint1_linear_387_7" x1="25.9867" y1="28.6692" x2="35.936" y2="18.7199" gradientUnits="userSpaceOnUse">
<stop stop-color="#A055FF"/>
<stop offset="1" stop-color="#5200FF"/>
</linearGradient><linearGradient id="paint0_linear_37_1076" x1="17.5937" y1="28.0249" x2="46.3641" y2="27.0365" gradientUnits="userSpaceOnUse">
<stop stop-color="#B820C7"/>
<stop offset="1" stop-color="#0127ED"/>
</linearGradient><linearGradient id="paint1_linear_37_1076" x1="244.567" y1="214.557" x2="663.783" y2="200.181" gradientUnits="userSpaceOnUse">
<stop stop-color="#B921C7"/>
<stop offset="1" stop-color="#1D33F2"/>
</linearGradient><linearGradient id="paint0_linear_388_13" x1="24" y1="48" x2="24" y2="0" gradientUnits="userSpaceOnUse">
<stop stop-color="#009EFD"/>
<stop offset="1" stop-color="#2AF598"/>
</linearGradient><linearGradient id="paint0_linear_515_233" x1="28.5325" y1="-9.0741" x2="12.186" y2="55.3475" gradientUnits="userSpaceOnUse">
<stop stop-color="#30FDD8"/>
<stop offset="1" stop-color="#009F82"/>
</linearGradient><linearGradient id="paint0_linear_515_251" x1="0.513625" y1="34.3706" x2="29.1906" y2="7.7713" gradientUnits="userSpaceOnUse">
<stop stop-color="#FFF33B"/>
<stop offset="0.04" stop-color="#FEE72E"/>
<stop offset="0.117" stop-color="#FED51B"/>
<stop offset="0.196" stop-color="#FDCA10"/>
<stop offset="0.281" stop-color="#FDC70C"/>
<stop offset="0.669" stop-color="#F3903F"/>
<stop offset="0.888" stop-color="#ED683C"/>
<stop offset="1" stop-color="#E93E3A"/>
</linearGradient><linearGradient id="paint0_linear_388_18" x1="-6.86466" y1="39.4969" x2="43.8144" y2="6.22356" gradientUnits="userSpaceOnUse">
<stop stop-color="#FFF33B"/>
<stop offset="0.04" stop-color="#FEE72E"/>
<stop offset="0.117" stop-color="#FED51B"/>
<stop offset="0.196" stop-color="#FDCA10"/>
<stop offset="0.281" stop-color="#FDC70C"/>
<stop offset="0.669" stop-color="#F3903F"/>
<stop offset="0.888" stop-color="#ED683C"/>
<stop offset="1" stop-color="#E93E3A"/>
</linearGradient><linearGradient id="paint1_linear_388_18" x1="-59.962" y1="298.676" x2="325.199" y2="45.7857" gradientUnits="userSpaceOnUse">
<stop stop-color="#FFF33B"/>
<stop offset="0.04" stop-color="#FEE72E"/>
<stop offset="0.117" stop-color="#FED51B"/>
<stop offset="0.196" stop-color="#FDCA10"/>
<stop offset="0.281" stop-color="#FDC70C"/>
<stop offset="0.669" stop-color="#F3903F"/>
<stop offset="0.888" stop-color="#ED683C"/>
<stop offset="1" stop-color="#E93E3A"/>
</linearGradient><linearGradient id="paint2_linear_388_18" x1="45.5723" y1="410.543" x2="430.733" y2="157.653" gradientUnits="userSpaceOnUse">
<stop stop-color="#FFF33B"/>
<stop offset="0.04" stop-color="#FEE72E"/>
<stop offset="0.117" stop-color="#FED51B"/>
<stop offset="0.196" stop-color="#FDCA10"/>
<stop offset="0.281" stop-color="#FDC70C"/>
<stop offset="0.669" stop-color="#F3903F"/>
<stop offset="0.888" stop-color="#ED683C"/>
<stop offset="1" stop-color="#E93E3A"/>
</linearGradient><linearGradient id="paint3_linear_388_18" x1="142.577" y1="622.005" x2="616.359" y2="-276.182" gradientUnits="userSpaceOnUse">
<stop stop-color="#FFF33B"/>
<stop offset="0.04" stop-color="#FEE72E"/>
<stop offset="0.117" stop-color="#FED51B"/>
<stop offset="0.196" stop-color="#FDCA10"/>
<stop offset="0.281" stop-color="#FDC70C"/>
<stop offset="0.669" stop-color="#F3903F"/>
<stop offset="0.888" stop-color="#ED683C"/>
<stop offset="1" stop-color="#E93E3A"/>
</linearGradient><linearGradient id="paint0_linear_515_209" x1="30.5455" y1="1.55494" x2="5.24512" y2="30.385" gradientUnits="userSpaceOnUse">
<stop stop-color="#04B4FF"/>
<stop offset="0.895833" stop-color="#ACCDFF"/>
</linearGradient><linearGradient id="paint0_linear_444_241" x1="8.5" y1="17" x2="8.5" y2="0" gradientUnits="userSpaceOnUse">
<stop stop-color="#00B59C"/>
<stop offset="1" stop-color="#9CFFAC"/>
</linearGradient><linearGradient id="paint1_linear_444_241" x1="8.5" y1="13" x2="8.5" y2="2" gradientUnits="userSpaceOnUse">
<stop stop-color="#C3FFE8"/>
<stop offset="0.9973" stop-color="#F0FFF4"/>
</linearGradient></defs><g transform="matrix(1.1587318181991577, 0, 0, 1.1587318181991577, -1.377202446672186, -2.8396435609651007)"><rect id="ee-background" x="0" y="0" width="648.0628662109375" height="638.9588623046875" style="fill: white; fill-opacity: 0; pointer-events: none;"/><g transform="matrix(5.276678085327148, 0, 0, 5.276678085327148, -3160.598021507263, -232.45123291015625)"><g id="g-1" transform="matrix(1, 0, 0, 1, 0, 0)">
	<g id="g-2">
		<path class="st0" d="M652,46c27.6,0,50,22.4,50,50s-22.4,50-50,50s-50-22.4-50-50S624.4,46,652,46z" style="fill: rgb(127, 241, 169); fill-opacity: 0.23;" transform="matrix(1.0092889070510864, 0, 0, 1.0092889070510864, -6.288587093353328, -0.427291296903217)"/>
	<path d="M 649.176025390625 59.637386322021484" style="fill: rgb(248, 167, 42); fill-opacity: 0.17; stroke: rgb(0, 0, 0); stroke-opacity: 1; stroke-width: 0; paint-order: fill;" transform="matrix(1.0092889404296874, 0, 0, 1.0092889404296874, -5.591942138671827, -0.4272912597656213)"/><path d="M 633.3854370117188 63.58504104614258" style="fill: rgb(244, 27, 27); fill-opacity: 0.17; stroke: rgb(0, 0, 0); stroke-opacity: 1; stroke-width: 0; paint-order: fill;"/><path d="M 635.475341796875 58.24409484863281" style="fill: rgb(127, 241, 169); fill-opacity: 0.23; stroke: rgb(0, 0, 0); stroke-opacity: 1; stroke-width: 0; paint-order: fill;"/></g>
</g></g></g><g transform="matrix(22.80297088623047, 0, 0, 22.80297088623047, 125.23677847946817, 132.04341725216716)"><path d="M17 8.5C17 13.1945 13.1945 17 8.5 17C3.80552 17 0 13.1945 0 8.5C0 3.80552 3.80552 0 8.5 0C13.1945 0 17 3.80552 17 8.5Z" fill="url(#paint0_linear_444_241)"/><path d="M10.4272 7.81458C11.2059 7.22422 11.7103 6.2862 11.7103 5.23164C11.7103 3.44974 10.2702 2 8.49994 2C6.72983 2 5.28969 3.44974 5.28969 5.23164C5.28969 6.2862 5.79401 7.22422 6.57267 7.81458C4.48787 8.60234 3 10.6294 3 13H3.99338C3.99338 10.4984 6.01506 8.46341 8.50006 8.46341C10.9849 8.46341 13.0066 10.4984 13.0066 13H14C13.9999 10.6294 12.5121 8.60234 10.4272 7.81458ZM6.28307 5.23164C6.28307 4.00104 7.27748 3 8.49994 3C9.72239 3 10.7168 4.00104 10.7168 5.23164C10.7168 6.46224 9.72239 7.46341 8.49994 7.46341C7.27748 7.46341 6.28307 6.46224 6.28307 5.23164Z" fill="url(#paint1_linear_444_241)"/></g></svg>