<?xml version="1.0" encoding="utf-8"?>
<svg id="master-artboard" viewBox="0 0 557.9874877929688 551.4295043945312" version="1.1" xmlns="http://www.w3.org/2000/svg" x="0px" y="0px" style="enable-background:new 0 0 336 235.2;" width="557.9874877929688px" height="551.4295043945312px"><defs><linearGradient id="paint0_linear_387_7" x1="2.28429" y1="52.3701" x2="43.2257" y2="11.4468" gradientUnits="userSpaceOnUse">
<stop stop-color="#A055FF"/>
<stop offset="1" stop-color="#5200FF"/>
</linearGradient><linearGradient id="paint1_linear_387_7" x1="25.9867" y1="28.6692" x2="35.936" y2="18.7199" gradientUnits="userSpaceOnUse">
<stop stop-color="#A055FF"/>
<stop offset="1" stop-color="#5200FF"/>
</linearGradient><linearGradient id="paint0_linear_37_1076" x1="17.5937" y1="28.0249" x2="46.3641" y2="27.0365" gradientUnits="userSpaceOnUse">
<stop stop-color="#B820C7"/>
<stop offset="1" stop-color="#0127ED"/>
</linearGradient><linearGradient id="paint1_linear_37_1076" x1="244.567" y1="214.557" x2="663.783" y2="200.181" gradientUnits="userSpaceOnUse">
<stop stop-color="#B921C7"/>
<stop offset="1" stop-color="#1D33F2"/>
</linearGradient></defs><rect id="ee-background" x="0" y="0" width="557.9874877929688" height="551.4295043945312" style="fill: white; fill-opacity: 0; pointer-events: none;"/><g transform="matrix(5.276678085327148, 0, 0, 5.276678085327148, -3160.598021507263, -232.45123291015625)"><g id="g-1" transform="matrix(1, 0, 0, 1, 0, 0)">
	<g id="g-2">
		<path class="st0" d="M652,46c27.6,0,50,22.4,50,50s-22.4,50-50,50s-50-22.4-50-50S624.4,46,652,46z" style="fill: rgb(186, 33, 200); fill-opacity: 0.17;"/>
	</g>
</g></g><g transform="matrix(5.532010555267334, 0, 0, 5.532010555267334, 152.71166899666935, 123.75617980957031)"><path d="M7.58894 48.2143H34.6706C36.2098 48.2143 37.6858 47.6029 38.7741 46.5146C39.8625 45.4263 40.4739 43.9502 40.4739 42.4111V27.8644C40.4739 27.3513 40.2701 26.8593 39.9073 26.4965C39.5445 26.1338 39.0525 25.93 38.5395 25.93C38.0264 25.93 37.5344 26.1338 37.1716 26.4965C36.8089 26.8593 36.6051 27.3513 36.6051 27.8644V42.4111C36.6051 42.9242 36.4013 43.4162 36.0385 43.779C35.6757 44.1417 35.1837 44.3455 34.6706 44.3455H7.58894C7.07591 44.3455 6.58388 44.1417 6.22111 43.779C5.85834 43.4162 5.65454 42.9242 5.65454 42.4111V13.395C5.65454 12.882 5.85834 12.39 6.22111 12.0272C6.58388 11.6644 7.07591 11.4606 7.58894 11.4606H24.0701C24.5831 11.4606 25.0752 11.2568 25.4379 10.894C25.8007 10.5313 26.0045 10.0392 26.0045 9.5262C26.0045 9.01317 25.8007 8.52114 25.4379 8.15837C25.0752 7.7956 24.5831 7.5918 24.0701 7.5918H7.58894C6.04983 7.5918 4.57376 8.20321 3.48545 9.29152C2.39713 10.3798 1.78572 11.8559 1.78572 13.395L1.78572 42.4111C1.78572 43.9502 2.39713 45.4263 3.48545 46.5146C4.57376 47.6029 6.04983 48.2143 7.58894 48.2143Z" fill="url(#paint0_linear_37_1076)"/><path d="M42.5554 1.80984C41.8329 1.73844 41.1036 1.82632 40.4188 2.0673C39.734 2.30827 39.1103 2.69647 38.5918 3.20455L21.3233 20.4653C21.0154 20.7716 20.8204 21.1732 20.7701 21.6046L20.0331 27.8121C20.0008 28.0835 20.0265 28.3587 20.1083 28.6194C20.1901 28.8802 20.3262 29.1207 20.5077 29.325C20.6892 29.5293 20.9119 29.6929 21.1612 29.8049C21.4105 29.9169 21.6806 29.9748 21.9539 29.9748C22.0302 29.9751 22.1065 29.9705 22.1822 29.9613L28.3897 29.2243C28.8211 29.174 29.2228 28.9789 29.5291 28.671L46.7898 11.4122C47.2968 10.8926 47.6843 10.2685 47.9252 9.58354C48.1661 8.89861 48.2546 8.16936 48.1845 7.4467C48.0518 5.99955 47.4111 4.64611 46.3758 3.62625C45.3571 2.58817 44.0036 1.94462 42.5554 1.80984ZM44.0623 8.67505L27.2755 25.4618L24.1708 25.8294L24.5402 22.7343L41.329 5.94754C41.9577 5.31112 43.1144 5.83534 43.6387 6.35376C44.1629 6.87218 44.7026 8.03476 44.0623 8.67505Z" fill="url(#paint1_linear_37_1076)"/></g></svg>