<?xml version="1.0" encoding="utf-8"?>
<svg id="master-artboard" viewBox="0 0 557.9874877929688 551.4295043945312" version="1.1" xmlns="http://www.w3.org/2000/svg" x="0px" y="0px" style="enable-background:new 0 0 336 235.2;" width="557.9874877929688px" height="551.4295043945312px"><defs><linearGradient id="paint0_linear_387_7" x1="2.28429" y1="52.3701" x2="43.2257" y2="11.4468" gradientUnits="userSpaceOnUse">
<stop stop-color="#A055FF"/>
<stop offset="1" stop-color="#5200FF"/>
</linearGradient><linearGradient id="paint1_linear_387_7" x1="25.9867" y1="28.6692" x2="35.936" y2="18.7199" gradientUnits="userSpaceOnUse">
<stop stop-color="#A055FF"/>
<stop offset="1" stop-color="#5200FF"/>
</linearGradient></defs><rect id="ee-background" x="0" y="0" width="557.9874877929688" height="551.4295043945312" style="fill: white; fill-opacity: 0; pointer-events: none;"/><g transform="matrix(5.276678085327148, 0, 0, 5.276678085327148, -3160.598021507263, -232.45123291015625)"><g id="g-1" transform="matrix(1, 0, 0, 1, 0, 0)">
	<g id="g-2">
		<path class="st0" d="M652,46c27.6,0,50,22.4,50,50s-22.4,50-50,50s-50-22.4-50-50S624.4,46,652,46z" style="fill: rgb(123, 45, 255); fill-opacity: 0.17;"/>
	</g>
</g></g><g transform="matrix(6.316639423370361, 0, 0, 6.316639423370361, 105.04727935791016, 93.60040144422283)"><path d="M49.4855 6.59997C49.4855 6.2161 49.333 5.84796 49.0616 5.57652C48.7902 5.30509 48.422 5.1526 48.0382 5.1526C43.1939 5.13911 38.4016 6.15097 33.9762 8.12167C29.5509 10.0924 25.5927 12.9773 22.3618 16.5868L19.2355 15.7184C16.8992 15.0977 14.4347 15.1532 12.1287 15.8783C9.82264 16.6034 7.76989 17.9684 6.20921 19.8144L2.2 24.5039C2.02165 24.7157 1.90777 24.9741 1.87185 25.2486C1.83594 25.5231 1.8795 25.8021 1.99736 26.0526C2.11676 26.3034 2.30579 26.5145 2.5419 26.6608C2.77801 26.8071 3.05123 26.8824 3.32894 26.8776H9.43684C11.4275 26.8445 13.3531 27.5867 14.8066 28.9473L13.996 30.5829C13.8621 30.8542 13.8166 31.1608 13.866 31.4593C13.9153 31.7579 14.057 32.0335 14.271 32.2474L14.8645 32.8552C13.3089 33.7735 12.0195 35.0815 11.1236 36.65C10.2276 38.2186 9.75602 39.9936 9.75526 41.8V43.421C9.75526 43.8049 9.90775 44.1731 10.1792 44.4445C10.4506 44.7159 10.8188 44.8684 11.2026 44.8684H12.9105C14.7183 44.8662 16.4943 44.3924 18.063 43.4938C19.6316 42.5952 20.9388 41.303 21.8553 39.7447L22.4487 40.3526C22.6637 40.5698 22.9419 40.7134 23.2435 40.7628C23.5451 40.8122 23.8546 40.7649 24.1276 40.6276L25.7632 39.8026C27.1316 41.2776 27.8872 43.2183 27.8763 45.2303L27.8039 51.3382C27.802 51.6134 27.8785 51.8835 28.0247 52.1168C28.1708 52.3501 28.3804 52.5369 28.6289 52.6553C28.823 52.7493 29.0357 52.7987 29.2513 52.8C29.5895 52.8007 29.9172 52.6829 30.1776 52.4671L34.8816 48.5303C36.7293 46.9712 38.0945 44.9179 38.8174 42.6109C39.5402 40.3039 39.5908 37.8386 38.9632 35.5039L38.0947 32.3197C41.6997 29.0783 44.5782 25.111 46.5414 20.6783C48.5045 16.2456 49.5079 11.4479 49.4855 6.59997ZM45.4474 15.0671C42.8769 13.9067 40.8183 11.8481 39.6579 9.2776C41.9331 8.64088 44.2738 8.26695 46.6342 8.16313C46.4921 10.5009 46.0941 12.816 45.4474 15.0671ZM9.40789 23.925H6.51315L8.35131 21.7105C9.56326 20.273 11.1611 19.2121 12.9563 18.6531C14.7514 18.094 16.6691 18.0601 18.4829 18.5552L20.3789 19.0763C19.149 20.7259 18.0642 22.4789 17.1368 24.3158L16.1526 26.2697C14.232 24.7519 11.8558 23.9258 9.40789 23.925ZM12.9105 41.9737H12.65V41.7131C12.6487 40.2812 13.0567 38.8786 13.826 37.6708C14.5953 36.463 15.6938 35.5003 16.9921 34.896L19.7276 37.6316C19.1219 38.9287 18.1589 40.0263 16.9514 40.7954C15.7439 41.5644 14.3421 41.9732 12.9105 41.9737ZM23.7658 37.6316L17.05 30.9158L19.7132 25.5895C23.2662 18.4613 29.3824 12.9396 36.8355 10.1315C38.2887 13.6234 41.0609 16.4008 44.55 17.8605C41.7401 25.302 36.2174 31.4038 29.0921 34.9395L23.7658 37.6316ZM36.1842 36.1842C36.683 37.9978 36.6508 39.9165 36.0916 41.7124C35.5323 43.5084 34.4693 45.106 33.0289 46.3158L30.7566 48.2408V45.2737C30.7748 42.8093 29.9472 40.4133 28.4118 38.4855L30.3947 37.5303C32.2365 36.5979 33.9944 35.5084 35.6487 34.2737L36.1842 36.1842Z" fill="url(#paint0_linear_387_7)"/><path d="M35.7645 27.0802C36.7121 26.1337 37.3022 24.8879 37.4342 23.555C37.5663 22.2222 37.2322 20.8848 36.4887 19.7707C35.7453 18.6566 34.6386 17.8347 33.3571 17.4451C32.0757 17.0555 30.6988 17.1222 29.461 17.6339C28.2233 18.1456 27.2012 19.0707 26.569 20.2515C25.9368 21.4322 25.7336 22.7957 25.9939 24.1095C26.2543 25.4233 26.9621 26.6062 27.9968 27.4567C29.0315 28.3072 30.3291 28.7726 31.6684 28.7736C32.4289 28.7742 33.1821 28.625 33.8849 28.3344C34.5877 28.0439 35.2264 27.6177 35.7645 27.0802ZM29.6132 25.025C29.2099 24.6193 28.9359 24.1033 28.8257 23.542C28.7154 22.9807 28.774 22.3994 28.9938 21.8714C29.2137 21.3433 29.5851 20.8923 30.0611 20.5751C30.5371 20.258 31.0964 20.089 31.6684 20.0894C32.2392 20.0918 32.7965 20.2629 33.2703 20.5811C33.7441 20.8994 34.1133 21.3506 34.3313 21.878C34.5494 22.4055 34.6067 22.9856 34.4961 23.5456C34.3854 24.1055 34.1116 24.6202 33.7092 25.025C33.4404 25.2941 33.1211 25.5076 32.7697 25.6533C32.4183 25.799 32.0416 25.874 31.6612 25.874C31.2808 25.874 30.9041 25.799 30.5527 25.6533C30.2013 25.5076 29.882 25.2941 29.6132 25.025Z" fill="url(#paint1_linear_387_7)"/></g></svg>