<?xml version="1.0" encoding="utf-8"?>
<svg id="master-artboard" viewBox="0 0 557.9874877929688 551.4295043945312" version="1.1" xmlns="http://www.w3.org/2000/svg" x="0px" y="0px" style="enable-background:new 0 0 336 235.2;" width="557.9874877929688px" height="551.4295043945312px"><defs><linearGradient id="paint0_linear_387_7" x1="2.28429" y1="52.3701" x2="43.2257" y2="11.4468" gradientUnits="userSpaceOnUse">
<stop stop-color="#A055FF"/>
<stop offset="1" stop-color="#5200FF"/>
</linearGradient><linearGradient id="paint1_linear_387_7" x1="25.9867" y1="28.6692" x2="35.936" y2="18.7199" gradientUnits="userSpaceOnUse">
<stop stop-color="#A055FF"/>
<stop offset="1" stop-color="#5200FF"/>
</linearGradient><linearGradient id="paint0_linear_37_1076" x1="17.5937" y1="28.0249" x2="46.3641" y2="27.0365" gradientUnits="userSpaceOnUse">
<stop stop-color="#B820C7"/>
<stop offset="1" stop-color="#0127ED"/>
</linearGradient><linearGradient id="paint1_linear_37_1076" x1="244.567" y1="214.557" x2="663.783" y2="200.181" gradientUnits="userSpaceOnUse">
<stop stop-color="#B921C7"/>
<stop offset="1" stop-color="#1D33F2"/>
</linearGradient><linearGradient id="paint0_linear_388_13" x1="24" y1="48" x2="24" y2="0" gradientUnits="userSpaceOnUse">
<stop stop-color="#009EFD"/>
<stop offset="1" stop-color="#2AF598"/>
</linearGradient></defs><rect id="ee-background" x="0" y="0" width="557.9874877929688" height="551.4295043945312" style="fill: white; fill-opacity: 0; pointer-events: none;"/><g transform="matrix(5.276678085327148, 0, 0, 5.276678085327148, -3160.598021507263, -232.45123291015625)"><g id="g-1" transform="matrix(1, 0, 0, 1, 0, 0)">
	<g id="g-2">
		<path class="st0" d="M652,46c27.6,0,50,22.4,50,50s-22.4,50-50,50s-50-22.4-50-50S624.4,46,652,46z" style="fill: rgb(38, 236, 163); fill-opacity: 0.17;"/>
	</g>
</g></g><g transform="matrix(5.837892055511475, 0, 0, 5.837892055511475, 131.66274561100886, 126.77896121005523)"><path d="M20.7095 19.5011H14.3953C13.5668 19.5011 12.8953 20.1727 12.8953 21.0011V46.5C12.8953 47.3284 13.5668 48 14.3953 48H20.7095C21.5379 48 22.2095 47.3284 22.2095 46.5V21.0011C22.2095 20.1727 21.5379 19.5011 20.7095 19.5011ZM19.2095 45H15.8953V22.5011H19.2095V45ZM33.6048 23.1644H27.2908C26.4623 23.1644 25.7908 23.836 25.7908 24.6644V46.5C25.7908 47.3284 26.4623 48 27.2908 48H33.6048C34.4333 48 35.1048 47.3284 35.1048 46.5V24.6644C35.1048 23.836 34.4333 23.1644 33.6048 23.1644ZM32.1048 45H28.7908V26.1644H32.1048V45ZM46.5 11.7668H40.186C39.3576 11.7668 38.686 12.4384 38.686 13.2667V46.5C38.686 47.3284 39.3576 48 40.186 48H46.5C47.3285 48 48 47.3284 48 46.5V13.2667C48 12.4383 47.3285 11.7668 46.5 11.7668ZM45 45H41.686V14.7667H45V45ZM7.81406 31.1092H1.5C0.671531 31.1092 0 31.7808 0 32.6092V46.5C0 47.3284 0.671531 48 1.5 48H7.81406C8.64253 48 9.31406 47.3284 9.31406 46.5V32.6092C9.31406 31.7807 8.64253 31.1092 7.81406 31.1092ZM6.31406 45H3V34.1092H6.31406V45ZM41.2109 8.79497C41.8503 9.12572 42.5749 9.31388 43.3431 9.31388C45.911 9.31388 48 7.22475 48 4.65694C48 2.08913 45.911 0 43.3431 0C40.7752 0 38.686 2.08913 38.686 4.65694C38.686 5.36391 38.8451 6.03422 39.1283 6.63506L32.6531 12.6595C31.9963 12.3049 31.2452 12.1031 30.4478 12.1031C28.988 12.1031 27.6836 12.7788 26.8291 13.8331L22.2067 12.1354C22.2076 12.0983 22.2095 12.0613 22.2095 12.0239C22.2095 9.456 20.1203 7.36688 17.5523 7.36688C14.9844 7.36688 12.8953 9.456 12.8953 12.0239C12.8953 12.7478 13.0614 13.4335 13.3574 14.0452L6.74747 20.5451C6.11831 20.2276 5.40844 20.0476 4.65694 20.0476C2.08913 20.0477 0 22.1368 0 24.7047C0 27.2726 2.08912 29.3617 4.65703 29.3617C7.22494 29.3617 9.31406 27.2726 9.31406 24.7047C9.31406 23.9809 9.14794 23.2951 8.85206 22.6834L15.462 16.1835C16.0912 16.501 16.801 16.681 17.5525 16.681C19.0123 16.681 20.3167 16.0054 21.1713 14.9511L25.7938 16.6488C25.7929 16.6859 25.791 16.7228 25.791 16.7602C25.791 19.3281 27.8801 21.4172 30.448 21.4172C33.016 21.4172 35.1052 19.3281 35.1052 16.7602C35.1052 16.0821 34.9583 15.4379 34.6965 14.8562L41.2109 8.79497ZM4.65703 26.3617C3.74334 26.3617 3 25.6184 3 24.7047C3 23.791 3.74334 23.0477 4.65703 23.0477C5.57072 23.0477 6.31406 23.791 6.31406 24.7047C6.31406 25.6184 5.57072 26.3617 4.65703 26.3617ZM17.5524 13.681C16.6388 13.681 15.8954 12.9377 15.8954 12.024C15.8954 11.1103 16.6388 10.367 17.5524 10.367C18.4661 10.367 19.2096 11.1103 19.2096 12.024C19.2096 12.9377 18.4661 13.681 17.5524 13.681ZM43.3431 3C44.2567 3 45 3.74334 45 4.65694C45 5.57053 44.2567 6.31388 43.3431 6.31388C42.4294 6.31388 41.686 5.57062 41.686 4.65694C41.686 3.74325 42.4294 3 43.3431 3ZM30.4478 18.4172C29.5341 18.4172 28.7907 17.6738 28.7907 16.7602C28.7907 15.8465 29.5341 15.1031 30.4478 15.1031C31.3614 15.1031 32.1049 15.8465 32.1049 16.7602C32.1049 17.6738 31.3614 18.4172 30.4478 18.4172Z" fill="url(#paint0_linear_388_13)"/></g></svg>