<?xml version="1.0" encoding="utf-8"?>
<svg id="master-artboard" viewBox="0 0 557.9874877929688 551.4295043945312" version="1.1" xmlns="http://www.w3.org/2000/svg" x="0px" y="0px" style="enable-background:new 0 0 336 235.2;" width="557.9874877929688px" height="551.4295043945312px"><defs><linearGradient id="paint0_linear_387_7" x1="2.28429" y1="52.3701" x2="43.2257" y2="11.4468" gradientUnits="userSpaceOnUse">
<stop stop-color="#A055FF"/>
<stop offset="1" stop-color="#5200FF"/>
</linearGradient><linearGradient id="paint1_linear_387_7" x1="25.9867" y1="28.6692" x2="35.936" y2="18.7199" gradientUnits="userSpaceOnUse">
<stop stop-color="#A055FF"/>
<stop offset="1" stop-color="#5200FF"/>
</linearGradient><linearGradient id="paint0_linear_37_1076" x1="17.5937" y1="28.0249" x2="46.3641" y2="27.0365" gradientUnits="userSpaceOnUse">
<stop stop-color="#B820C7"/>
<stop offset="1" stop-color="#0127ED"/>
</linearGradient><linearGradient id="paint1_linear_37_1076" x1="244.567" y1="214.557" x2="663.783" y2="200.181" gradientUnits="userSpaceOnUse">
<stop stop-color="#B921C7"/>
<stop offset="1" stop-color="#1D33F2"/>
</linearGradient><linearGradient id="paint0_linear_388_13" x1="24" y1="48" x2="24" y2="0" gradientUnits="userSpaceOnUse">
<stop stop-color="#009EFD"/>
<stop offset="1" stop-color="#2AF598"/>
</linearGradient><linearGradient id="paint0_linear_388_18" x1="-6.86466" y1="39.4969" x2="43.8144" y2="6.22356" gradientUnits="userSpaceOnUse">
<stop stop-color="#FFF33B"/>
<stop offset="0.04" stop-color="#FEE72E"/>
<stop offset="0.117" stop-color="#FED51B"/>
<stop offset="0.196" stop-color="#FDCA10"/>
<stop offset="0.281" stop-color="#FDC70C"/>
<stop offset="0.669" stop-color="#F3903F"/>
<stop offset="0.888" stop-color="#ED683C"/>
<stop offset="1" stop-color="#E93E3A"/>
</linearGradient><linearGradient id="paint1_linear_388_18" x1="-59.962" y1="298.676" x2="325.199" y2="45.7857" gradientUnits="userSpaceOnUse">
<stop stop-color="#FFF33B"/>
<stop offset="0.04" stop-color="#FEE72E"/>
<stop offset="0.117" stop-color="#FED51B"/>
<stop offset="0.196" stop-color="#FDCA10"/>
<stop offset="0.281" stop-color="#FDC70C"/>
<stop offset="0.669" stop-color="#F3903F"/>
<stop offset="0.888" stop-color="#ED683C"/>
<stop offset="1" stop-color="#E93E3A"/>
</linearGradient><linearGradient id="paint2_linear_388_18" x1="45.5723" y1="410.543" x2="430.733" y2="157.653" gradientUnits="userSpaceOnUse">
<stop stop-color="#FFF33B"/>
<stop offset="0.04" stop-color="#FEE72E"/>
<stop offset="0.117" stop-color="#FED51B"/>
<stop offset="0.196" stop-color="#FDCA10"/>
<stop offset="0.281" stop-color="#FDC70C"/>
<stop offset="0.669" stop-color="#F3903F"/>
<stop offset="0.888" stop-color="#ED683C"/>
<stop offset="1" stop-color="#E93E3A"/>
</linearGradient><linearGradient id="paint3_linear_388_18" x1="142.577" y1="622.005" x2="616.359" y2="-276.182" gradientUnits="userSpaceOnUse">
<stop stop-color="#FFF33B"/>
<stop offset="0.04" stop-color="#FEE72E"/>
<stop offset="0.117" stop-color="#FED51B"/>
<stop offset="0.196" stop-color="#FDCA10"/>
<stop offset="0.281" stop-color="#FDC70C"/>
<stop offset="0.669" stop-color="#F3903F"/>
<stop offset="0.888" stop-color="#ED683C"/>
<stop offset="1" stop-color="#E93E3A"/>
</linearGradient></defs><rect id="ee-background" x="0" y="0" width="557.9874877929688" height="551.4295043945312" style="fill: white; fill-opacity: 0; pointer-events: none;"/><g transform="matrix(5.276678085327148, 0, 0, 5.276678085327148, -3160.598021507263, -232.45123291015625)"><g id="g-1" transform="matrix(1, 0, 0, 1, 0, 0)">
	<g id="g-2">
		<path class="st0" d="M652,46c27.6,0,50,22.4,50,50s-22.4,50-50,50s-50-22.4-50-50S624.4,46,652,46z" style="fill: rgb(255, 174, 1); fill-opacity: 0.17;"/>
	</g>
</g></g><g transform="matrix(6.074747085571289, 0, 0, 6.074747085571289, 117.5551709274722, 104.5603231173132)"><path d="M27.2715 25.5767C28.9512 25.5767 30.5931 25.0786 31.9897 24.1454C33.3863 23.2122 34.4748 21.8857 35.1175 20.3339C35.7603 18.782 35.9283 17.0744 35.6005 15.427C35.2727 13.7796 34.4637 12.2664 33.2759 11.0788C32.088 9.89118 30.5747 9.0825 28.9272 8.75501C27.2797 8.42753 25.5721 8.59595 24.0204 9.23898C22.4686 9.88201 21.1424 10.9708 20.2095 12.3675C19.2766 13.7643 18.7788 15.4064 18.7791 17.0861C18.7818 19.3374 19.6775 21.4957 21.2696 23.0875C22.8617 24.6792 25.0201 25.5745 27.2715 25.5767ZM27.2715 12.0313C28.2712 12.0313 29.2485 12.3277 30.0798 12.8832C30.9111 13.4386 31.5589 14.228 31.9415 15.1517C32.3241 16.0754 32.4242 17.0917 32.2292 18.0723C32.0341 19.0528 31.5527 19.9535 30.8458 20.6604C30.1389 21.3674 29.2382 21.8488 28.2576 22.0438C27.2771 22.2389 26.2607 22.1388 25.3371 21.7562C24.4134 21.3736 23.6239 20.7257 23.0685 19.8944C22.5131 19.0632 22.2166 18.0859 22.2166 17.0861C22.2184 15.746 22.7516 14.4614 23.6992 13.5138C24.6467 12.5662 25.9314 12.0331 27.2715 12.0313Z" fill="url(#paint0_linear_388_18)"/><path d="M11.2286 30.568C12.5204 30.568 13.7831 30.1849 14.8572 29.4673C15.9313 28.7496 16.7684 27.7296 17.2627 26.5361C17.7571 25.3427 17.8864 24.0295 17.6344 22.7626C17.3824 21.4956 16.7603 20.3319 15.8469 19.4185C14.9335 18.505 13.7698 17.883 12.5028 17.631C11.2359 17.379 9.92267 17.5083 8.72924 18.0027C7.53581 18.497 6.51576 19.3341 5.7981 20.4082C5.08044 21.4822 4.69739 22.745 4.69739 24.0367C4.69739 25.7689 5.3855 27.4302 6.61035 28.655C7.83519 29.8799 9.49644 30.568 11.2286 30.568ZM11.2286 20.943C11.8405 20.943 12.4387 21.1244 12.9474 21.4644C13.4562 21.8043 13.8527 22.2875 14.0869 22.8528C14.321 23.4181 14.3823 24.0402 14.2629 24.6403C14.1436 25.2404 13.8489 25.7917 13.4162 26.2244C12.9836 26.657 12.4323 26.9517 11.8322 27.071C11.2321 27.1904 10.61 27.1292 10.0447 26.895C9.4794 26.6608 8.99622 26.2643 8.65628 25.7555C8.31633 25.2468 8.13489 24.6486 8.13489 24.0367C8.13489 23.2162 8.46083 22.4293 9.04102 21.8491C9.62121 21.2689 10.4081 20.943 11.2286 20.943Z" fill="url(#paint1_linear_388_18)"/><path d="M43.3125 30.568C44.6043 30.568 45.867 30.1849 46.9411 29.4673C48.0151 28.7496 48.8523 27.7296 49.3466 26.5361C49.8409 25.3427 49.9703 24.0295 49.7183 22.7626C49.4663 21.4956 48.8442 20.3319 47.9308 19.4185C47.0174 18.505 45.8536 17.883 44.5867 17.631C43.3197 17.379 42.0065 17.5083 40.8131 18.0027C39.6197 18.497 38.5996 19.3341 37.882 20.4082C37.1643 21.4822 36.7812 22.745 36.7812 24.0367C36.7812 25.7689 37.4694 27.4302 38.6942 28.655C39.9191 29.8799 41.5803 30.568 43.3125 30.568ZM43.3125 20.943C43.9244 20.943 44.5225 21.1244 45.0313 21.4644C45.5401 21.8043 45.9366 22.2875 46.1708 22.8528C46.4049 23.4181 46.4662 24.0402 46.3468 24.6403C46.2274 25.2404 45.9328 25.7917 45.5001 26.2244C45.0674 26.657 44.5162 26.9517 43.9161 27.071C43.3159 27.1904 42.6939 27.1292 42.1286 26.895C41.5633 26.6608 41.0801 26.2643 40.7401 25.7555C40.4002 25.2468 40.2188 24.6486 40.2188 24.0367C40.2188 23.2162 40.5447 22.4293 41.1249 21.8491C41.7051 21.2689 42.492 20.943 43.3125 20.943Z" fill="url(#paint2_linear_388_18)"/><path d="M43.5411 34.0158C42.0344 34.0258 40.5539 34.4116 39.2339 35.1382C37.979 33.1515 36.2493 31.5084 34.2009 30.3571C32.1524 29.2058 29.8495 28.5824 27.5 28.5433C25.1505 28.5824 22.8477 29.2058 20.7992 30.3571C18.7507 31.5084 17.021 33.1515 15.7661 35.1382C14.4461 34.4116 12.9657 34.0258 11.4589 34.0158C8.75516 34.1478 6.21339 35.344 4.38851 37.3434C2.56364 39.3428 1.60389 41.983 1.71878 44.6876C1.71878 45.1434 1.89986 45.5806 2.22219 45.9029C2.54452 46.2252 2.98169 46.4063 3.43753 46.4063C3.89337 46.4063 4.33054 46.2252 4.65287 45.9029C4.9752 45.5806 5.15628 45.1434 5.15628 44.6876C5.04363 42.895 5.6421 41.1303 6.82194 39.7761C8.00177 38.4219 9.66785 37.5873 11.4589 37.4533C12.4087 37.4606 13.3412 37.7084 14.1694 38.1735C13.3594 40.2149 12.9447 42.3916 12.9474 44.5879C12.9474 45.0437 13.1285 45.4809 13.4508 45.8032C13.7731 46.1255 14.2103 46.3066 14.6661 46.3066C15.122 46.3066 15.5591 46.1255 15.8815 45.8032C16.2038 45.4809 16.3849 45.0437 16.3849 44.5879C16.3849 37.6355 21.3692 31.9808 27.5 31.9808C33.6308 31.9808 38.6152 37.6355 38.6152 44.5879C38.6152 45.0437 38.7963 45.4809 39.1186 45.8032C39.4409 46.1255 39.8781 46.3066 40.3339 46.3066C40.7898 46.3066 41.2269 46.1255 41.5493 45.8032C41.8716 45.4809 42.0527 45.0437 42.0527 44.5879C42.0554 42.3916 41.6407 40.2149 40.8307 38.1735C41.6588 37.7084 42.5913 37.4606 43.5411 37.4533C45.3322 37.5873 46.9983 38.4219 48.1781 39.7761C49.3579 41.1303 49.9564 42.895 49.8438 44.6876C49.8438 45.1434 50.0249 45.5806 50.3472 45.9029C50.6695 46.2252 51.1067 46.4063 51.5625 46.4063C52.0184 46.4063 52.4555 46.2252 52.7779 45.9029C53.1002 45.5806 53.2813 45.1434 53.2813 44.6876C53.3962 41.983 52.4364 39.3428 50.6115 37.3434C48.7867 35.344 46.2449 34.1478 43.5411 34.0158Z" fill="url(#paint3_linear_388_18)"/></g></svg>