<svg width="17" height="27" viewBox="0 0 17 27" fill="none" xmlns="http://www.w3.org/2000/svg">
<path d="M9.44338 2.02144C8.9989 1.057 7.84725 0.623625 6.9553 1.199C4.76171 2.61403 3.01341 4.64253 1.9413 7.05087C0.607375 10.0474 0.411506 13.4269 1.39029 16.5581C2.36907 19.6893 4.45555 22.3579 7.2599 24.0654C9.5136 25.4376 12.107 26.1136 14.7172 26.0324C15.7789 25.9994 16.4798 24.9883 16.2958 23.9423C16.1119 22.8963 15.11 22.2172 14.0482 22.1901C12.3684 22.1472 10.7168 21.6671 9.26295 20.7819C7.25751 19.5608 5.76544 17.6525 5.06549 15.4133C4.36555 13.1742 4.50562 10.7574 5.45953 8.61456C6.15087 7.06156 7.2354 5.72943 8.59204 4.74067C9.45047 4.11502 9.88821 2.98663 9.44338 2.02144Z" fill="#FCC02E"/>
</svg>
