<?xml version="1.0" encoding="utf-8"?>
<svg id="master-artboard" viewBox="0 0 195.30322265625 132.57736206054688" version="1.1" xmlns="http://www.w3.org/2000/svg" x="0px" y="0px" style="enable-background:new 0 0 336 235.2;" width="195.30322265625px" height="132.57736206054688px"><rect id="ee-background" x="0" y="0" width="195.30322265625" height="132.57736206054688" style="fill: white; fill-opacity: 0; pointer-events: none;"/><defs><linearGradient id="paint0_linear_37_768" x1="7.24442" y1="1.70113" x2="3.0181" y2="6.23912" gradientUnits="userSpaceOnUse">
<stop stop-color="#EE2C7E"/>
<stop offset="1" stop-color="#EF845C"/>
</linearGradient><linearGradient id="paint1_linear_37_768" x1="7.24442" y1="18.7011" x2="3.0181" y2="23.2391" gradientUnits="userSpaceOnUse">
<stop stop-color="#EE2C7E"/>
<stop offset="1" stop-color="#EF845C"/>
</linearGradient><linearGradient id="paint2_linear_37_768" x1="23.2444" y1="1.70113" x2="19.0181" y2="6.23912" gradientUnits="userSpaceOnUse">
<stop stop-color="#EE2C7E"/>
<stop offset="1" stop-color="#EF845C"/>
</linearGradient><linearGradient id="paint3_linear_37_768" x1="23.2444" y1="18.7011" x2="19.0181" y2="23.2391" gradientUnits="userSpaceOnUse">
<stop stop-color="#EE2C7E"/>
<stop offset="1" stop-color="#EF845C"/>
</linearGradient><linearGradient id="paint4_linear_37_768" x1="39.2444" y1="1.70113" x2="35.0181" y2="6.23912" gradientUnits="userSpaceOnUse">
<stop stop-color="#EE2C7E"/>
<stop offset="1" stop-color="#EF845C"/>
</linearGradient><linearGradient id="paint5_linear_37_768" x1="39.2444" y1="18.7011" x2="35.0181" y2="23.2391" gradientUnits="userSpaceOnUse">
<stop stop-color="#EE2C7E"/>
<stop offset="1" stop-color="#EF845C"/>
</linearGradient><linearGradient id="paint6_linear_37_768" x1="55.2444" y1="1.70113" x2="51.0181" y2="6.23912" gradientUnits="userSpaceOnUse">
<stop stop-color="#EE2C7E"/>
<stop offset="1" stop-color="#EF845C"/>
</linearGradient><linearGradient id="paint7_linear_37_768" x1="55.2444" y1="18.7011" x2="51.0181" y2="23.2391" gradientUnits="userSpaceOnUse">
<stop stop-color="#EE2C7E"/>
<stop offset="1" stop-color="#EF845C"/>
</linearGradient><linearGradient id="paint8_linear_37_768" x1="71.2444" y1="1.70113" x2="67.0181" y2="6.23912" gradientUnits="userSpaceOnUse">
<stop stop-color="#EE2C7E"/>
<stop offset="1" stop-color="#EF845C"/>
</linearGradient><linearGradient id="paint9_linear_37_768" x1="71.2444" y1="18.7011" x2="67.0181" y2="23.2391" gradientUnits="userSpaceOnUse">
<stop stop-color="#EE2C7E"/>
<stop offset="1" stop-color="#EF845C"/>
</linearGradient><linearGradient id="paint10_linear_37_768" x1="87.2444" y1="1.70113" x2="83.0181" y2="6.23912" gradientUnits="userSpaceOnUse">
<stop stop-color="#EE2C7E"/>
<stop offset="1" stop-color="#EF845C"/>
</linearGradient><linearGradient id="paint11_linear_37_768" x1="87.2444" y1="18.7011" x2="83.0181" y2="23.2391" gradientUnits="userSpaceOnUse">
<stop stop-color="#EE2C7E"/>
<stop offset="1" stop-color="#EF845C"/>
</linearGradient><linearGradient id="paint12_linear_37_768" x1="103.244" y1="1.70113" x2="99.0181" y2="6.23912" gradientUnits="userSpaceOnUse">
<stop stop-color="#EE2C7E"/>
<stop offset="1" stop-color="#EF845C"/>
</linearGradient><linearGradient id="paint13_linear_37_768" x1="103.244" y1="18.7011" x2="99.0181" y2="23.2391" gradientUnits="userSpaceOnUse">
<stop stop-color="#EE2C7E"/>
<stop offset="1" stop-color="#EF845C"/>
</linearGradient><linearGradient id="paint14_linear_37_768" x1="119.244" y1="1.70113" x2="115.018" y2="6.23912" gradientUnits="userSpaceOnUse">
<stop stop-color="#EE2C7E"/>
<stop offset="1" stop-color="#EF845C"/>
</linearGradient><linearGradient id="paint15_linear_37_768" x1="119.244" y1="18.7011" x2="115.018" y2="23.2391" gradientUnits="userSpaceOnUse">
<stop stop-color="#EE2C7E"/>
<stop offset="1" stop-color="#EF845C"/>
</linearGradient><linearGradient id="paint16_linear_37_768" x1="135.244" y1="1.70113" x2="131.018" y2="6.23912" gradientUnits="userSpaceOnUse">
<stop stop-color="#EE2C7E"/>
<stop offset="1" stop-color="#EF845C"/>
</linearGradient><linearGradient id="paint17_linear_37_768" x1="135.244" y1="18.7011" x2="131.018" y2="23.2391" gradientUnits="userSpaceOnUse">
<stop stop-color="#EE2C7E"/>
<stop offset="1" stop-color="#EF845C"/>
</linearGradient><linearGradient id="paint18_linear_37_768" x1="151.244" y1="1.70113" x2="147.018" y2="6.23912" gradientUnits="userSpaceOnUse">
<stop stop-color="#EE2C7E"/>
<stop offset="1" stop-color="#EF845C"/>
</linearGradient><linearGradient id="paint19_linear_37_768" x1="151.244" y1="18.7011" x2="147.018" y2="23.2391" gradientUnits="userSpaceOnUse">
<stop stop-color="#EE2C7E"/>
<stop offset="1" stop-color="#EF845C"/>
</linearGradient><linearGradient id="gradient-1" x1="7.24442" y1="1.70113" x2="3.0181" y2="6.23912" gradientUnits="userSpaceOnUse">
<stop stop-color="#EE2C7E"/>
<stop offset="1" stop-color="#EF845C"/>
</linearGradient><linearGradient id="gradient-2" x1="7.24442" y1="18.7011" x2="3.0181" y2="23.2391" gradientUnits="userSpaceOnUse">
<stop stop-color="#EE2C7E"/>
<stop offset="1" stop-color="#EF845C"/>
</linearGradient><linearGradient id="gradient-3" x1="23.2444" y1="1.70113" x2="19.0181" y2="6.23912" gradientUnits="userSpaceOnUse">
<stop stop-color="#EE2C7E"/>
<stop offset="1" stop-color="#EF845C"/>
</linearGradient><linearGradient id="gradient-4" x1="23.2444" y1="18.7011" x2="19.0181" y2="23.2391" gradientUnits="userSpaceOnUse">
<stop stop-color="#EE2C7E"/>
<stop offset="1" stop-color="#EF845C"/>
</linearGradient><linearGradient id="gradient-5" x1="39.2444" y1="1.70113" x2="35.0181" y2="6.23912" gradientUnits="userSpaceOnUse">
<stop stop-color="#EE2C7E"/>
<stop offset="1" stop-color="#EF845C"/>
</linearGradient><linearGradient id="gradient-6" x1="39.2444" y1="18.7011" x2="35.0181" y2="23.2391" gradientUnits="userSpaceOnUse">
<stop stop-color="#EE2C7E"/>
<stop offset="1" stop-color="#EF845C"/>
</linearGradient><linearGradient id="gradient-7" x1="55.2444" y1="1.70113" x2="51.0181" y2="6.23912" gradientUnits="userSpaceOnUse">
<stop stop-color="#EE2C7E"/>
<stop offset="1" stop-color="#EF845C"/>
</linearGradient><linearGradient id="gradient-8" x1="55.2444" y1="18.7011" x2="51.0181" y2="23.2391" gradientUnits="userSpaceOnUse">
<stop stop-color="#EE2C7E"/>
<stop offset="1" stop-color="#EF845C"/>
</linearGradient><linearGradient id="gradient-9" x1="71.2444" y1="1.70113" x2="67.0181" y2="6.23912" gradientUnits="userSpaceOnUse">
<stop stop-color="#EE2C7E"/>
<stop offset="1" stop-color="#EF845C"/>
</linearGradient><linearGradient id="gradient-10" x1="71.2444" y1="18.7011" x2="67.0181" y2="23.2391" gradientUnits="userSpaceOnUse">
<stop stop-color="#EE2C7E"/>
<stop offset="1" stop-color="#EF845C"/>
</linearGradient><linearGradient id="gradient-11" x1="87.2444" y1="1.70113" x2="83.0181" y2="6.23912" gradientUnits="userSpaceOnUse">
<stop stop-color="#EE2C7E"/>
<stop offset="1" stop-color="#EF845C"/>
</linearGradient><linearGradient id="gradient-12" x1="87.2444" y1="18.7011" x2="83.0181" y2="23.2391" gradientUnits="userSpaceOnUse">
<stop stop-color="#EE2C7E"/>
<stop offset="1" stop-color="#EF845C"/>
</linearGradient><linearGradient id="gradient-13" x1="103.244" y1="1.70113" x2="99.0181" y2="6.23912" gradientUnits="userSpaceOnUse">
<stop stop-color="#EE2C7E"/>
<stop offset="1" stop-color="#EF845C"/>
</linearGradient><linearGradient id="gradient-14" x1="103.244" y1="18.7011" x2="99.0181" y2="23.2391" gradientUnits="userSpaceOnUse">
<stop stop-color="#EE2C7E"/>
<stop offset="1" stop-color="#EF845C"/>
</linearGradient><linearGradient id="gradient-15" x1="119.244" y1="1.70113" x2="115.018" y2="6.23912" gradientUnits="userSpaceOnUse">
<stop stop-color="#EE2C7E"/>
<stop offset="1" stop-color="#EF845C"/>
</linearGradient><linearGradient id="gradient-16" x1="119.244" y1="18.7011" x2="115.018" y2="23.2391" gradientUnits="userSpaceOnUse">
<stop stop-color="#EE2C7E"/>
<stop offset="1" stop-color="#EF845C"/>
</linearGradient><linearGradient id="gradient-17" x1="135.244" y1="1.70113" x2="131.018" y2="6.23912" gradientUnits="userSpaceOnUse">
<stop stop-color="#EE2C7E"/>
<stop offset="1" stop-color="#EF845C"/>
</linearGradient><linearGradient id="gradient-18" x1="135.244" y1="18.7011" x2="131.018" y2="23.2391" gradientUnits="userSpaceOnUse">
<stop stop-color="#EE2C7E"/>
<stop offset="1" stop-color="#EF845C"/>
</linearGradient><linearGradient id="gradient-19" x1="151.244" y1="1.70113" x2="147.018" y2="6.23912" gradientUnits="userSpaceOnUse">
<stop stop-color="#EE2C7E"/>
<stop offset="1" stop-color="#EF845C"/>
</linearGradient><linearGradient id="gradient-20" x1="151.244" y1="18.7011" x2="147.018" y2="23.2391" gradientUnits="userSpaceOnUse">
<stop stop-color="#EE2C7E"/>
<stop offset="1" stop-color="#EF845C"/>
</linearGradient><linearGradient id="gradient-21" x1="7.24442" y1="1.70113" x2="3.0181" y2="6.23912" gradientUnits="userSpaceOnUse">
<stop stop-color="#EE2C7E"/>
<stop offset="1" stop-color="#EF845C"/>
</linearGradient><linearGradient id="gradient-22" x1="7.24442" y1="18.7011" x2="3.0181" y2="23.2391" gradientUnits="userSpaceOnUse">
<stop stop-color="#EE2C7E"/>
<stop offset="1" stop-color="#EF845C"/>
</linearGradient><linearGradient id="gradient-23" x1="23.2444" y1="1.70113" x2="19.0181" y2="6.23912" gradientUnits="userSpaceOnUse">
<stop stop-color="#EE2C7E"/>
<stop offset="1" stop-color="#EF845C"/>
</linearGradient><linearGradient id="gradient-24" x1="23.2444" y1="18.7011" x2="19.0181" y2="23.2391" gradientUnits="userSpaceOnUse">
<stop stop-color="#EE2C7E"/>
<stop offset="1" stop-color="#EF845C"/>
</linearGradient><linearGradient id="gradient-25" x1="39.2444" y1="1.70113" x2="35.0181" y2="6.23912" gradientUnits="userSpaceOnUse">
<stop stop-color="#EE2C7E"/>
<stop offset="1" stop-color="#EF845C"/>
</linearGradient><linearGradient id="gradient-26" x1="39.2444" y1="18.7011" x2="35.0181" y2="23.2391" gradientUnits="userSpaceOnUse">
<stop stop-color="#EE2C7E"/>
<stop offset="1" stop-color="#EF845C"/>
</linearGradient><linearGradient id="gradient-27" x1="55.2444" y1="1.70113" x2="51.0181" y2="6.23912" gradientUnits="userSpaceOnUse">
<stop stop-color="#EE2C7E"/>
<stop offset="1" stop-color="#EF845C"/>
</linearGradient><linearGradient id="gradient-28" x1="55.2444" y1="18.7011" x2="51.0181" y2="23.2391" gradientUnits="userSpaceOnUse">
<stop stop-color="#EE2C7E"/>
<stop offset="1" stop-color="#EF845C"/>
</linearGradient><linearGradient id="gradient-29" x1="71.2444" y1="1.70113" x2="67.0181" y2="6.23912" gradientUnits="userSpaceOnUse">
<stop stop-color="#EE2C7E"/>
<stop offset="1" stop-color="#EF845C"/>
</linearGradient><linearGradient id="gradient-30" x1="71.2444" y1="18.7011" x2="67.0181" y2="23.2391" gradientUnits="userSpaceOnUse">
<stop stop-color="#EE2C7E"/>
<stop offset="1" stop-color="#EF845C"/>
</linearGradient><linearGradient id="gradient-31" x1="87.2444" y1="1.70113" x2="83.0181" y2="6.23912" gradientUnits="userSpaceOnUse">
<stop stop-color="#EE2C7E"/>
<stop offset="1" stop-color="#EF845C"/>
</linearGradient><linearGradient id="gradient-32" x1="87.2444" y1="18.7011" x2="83.0181" y2="23.2391" gradientUnits="userSpaceOnUse">
<stop stop-color="#EE2C7E"/>
<stop offset="1" stop-color="#EF845C"/>
</linearGradient><linearGradient id="gradient-33" x1="103.244" y1="1.70113" x2="99.0181" y2="6.23912" gradientUnits="userSpaceOnUse">
<stop stop-color="#EE2C7E"/>
<stop offset="1" stop-color="#EF845C"/>
</linearGradient><linearGradient id="gradient-34" x1="103.244" y1="18.7011" x2="99.0181" y2="23.2391" gradientUnits="userSpaceOnUse">
<stop stop-color="#EE2C7E"/>
<stop offset="1" stop-color="#EF845C"/>
</linearGradient><linearGradient id="gradient-35" x1="119.244" y1="1.70113" x2="115.018" y2="6.23912" gradientUnits="userSpaceOnUse">
<stop stop-color="#EE2C7E"/>
<stop offset="1" stop-color="#EF845C"/>
</linearGradient><linearGradient id="gradient-36" x1="119.244" y1="18.7011" x2="115.018" y2="23.2391" gradientUnits="userSpaceOnUse">
<stop stop-color="#EE2C7E"/>
<stop offset="1" stop-color="#EF845C"/>
</linearGradient><linearGradient id="gradient-37" x1="135.244" y1="1.70113" x2="131.018" y2="6.23912" gradientUnits="userSpaceOnUse">
<stop stop-color="#EE2C7E"/>
<stop offset="1" stop-color="#EF845C"/>
</linearGradient><linearGradient id="gradient-38" x1="135.244" y1="18.7011" x2="131.018" y2="23.2391" gradientUnits="userSpaceOnUse">
<stop stop-color="#EE2C7E"/>
<stop offset="1" stop-color="#EF845C"/>
</linearGradient><linearGradient id="gradient-39" x1="151.244" y1="1.70113" x2="147.018" y2="6.23912" gradientUnits="userSpaceOnUse">
<stop stop-color="#EE2C7E"/>
<stop offset="1" stop-color="#EF845C"/>
</linearGradient><linearGradient id="gradient-40" x1="151.244" y1="18.7011" x2="147.018" y2="23.2391" gradientUnits="userSpaceOnUse">
<stop stop-color="#EE2C7E"/>
<stop offset="1" stop-color="#EF845C"/>
</linearGradient></defs><g transform="matrix(1.1861802599827491, 0, 0, 1.1861802599827491, 4.543438911437988, 9.74951171875)"><path d="M 6 3 A 3 3 0 0 1 3 6 A 3 3 0 0 1 0 3 A 3 3 0 0 1 3 0 A 3 3 0 0 1 6 3 Z" fill="url(#paint0_linear_37_768)"/><path d="M 6 20 A 3 3 0 0 1 3 23 A 3 3 0 0 1 0 20 A 3 3 0 0 1 3 17 A 3 3 0 0 1 6 20 Z" fill="url(#paint1_linear_37_768)"/><path d="M 22 3 A 3 3 0 0 1 19 6 A 3 3 0 0 1 16 3 A 3 3 0 0 1 19 0 A 3 3 0 0 1 22 3 Z" fill="url(#paint2_linear_37_768)"/><path d="M 22 20 A 3 3 0 0 1 19 23 A 3 3 0 0 1 16 20 A 3 3 0 0 1 19 17 A 3 3 0 0 1 22 20 Z" fill="url(#paint3_linear_37_768)"/><path d="M 38 3 A 3 3 0 0 1 35 6 A 3 3 0 0 1 32 3 A 3 3 0 0 1 35 0 A 3 3 0 0 1 38 3 Z" fill="url(#paint4_linear_37_768)"/><path d="M 38 20 A 3 3 0 0 1 35 23 A 3 3 0 0 1 32 20 A 3 3 0 0 1 35 17 A 3 3 0 0 1 38 20 Z" fill="url(#paint5_linear_37_768)"/><path d="M 54 3 A 3 3 0 0 1 51 6 A 3 3 0 0 1 48 3 A 3 3 0 0 1 51 0 A 3 3 0 0 1 54 3 Z" fill="url(#paint6_linear_37_768)"/><path d="M 54 20 A 3 3 0 0 1 51 23 A 3 3 0 0 1 48 20 A 3 3 0 0 1 51 17 A 3 3 0 0 1 54 20 Z" fill="url(#paint7_linear_37_768)"/><path d="M 70 3 A 3 3 0 0 1 67 6 A 3 3 0 0 1 64 3 A 3 3 0 0 1 67 0 A 3 3 0 0 1 70 3 Z" fill="url(#paint8_linear_37_768)"/><path d="M 70 20 A 3 3 0 0 1 67 23 A 3 3 0 0 1 64 20 A 3 3 0 0 1 67 17 A 3 3 0 0 1 70 20 Z" fill="url(#paint9_linear_37_768)"/><path d="M 86 3 A 3 3 0 0 1 83 6 A 3 3 0 0 1 80 3 A 3 3 0 0 1 83 0 A 3 3 0 0 1 86 3 Z" fill="url(#paint10_linear_37_768)"/><path d="M 86 20 A 3 3 0 0 1 83 23 A 3 3 0 0 1 80 20 A 3 3 0 0 1 83 17 A 3 3 0 0 1 86 20 Z" fill="url(#paint11_linear_37_768)"/><path d="M 102 3 A 3 3 0 0 1 99 6 A 3 3 0 0 1 96 3 A 3 3 0 0 1 99 0 A 3 3 0 0 1 102 3 Z" fill="url(#paint12_linear_37_768)"/><path d="M 102 20 A 3 3 0 0 1 99 23 A 3 3 0 0 1 96 20 A 3 3 0 0 1 99 17 A 3 3 0 0 1 102 20 Z" fill="url(#paint13_linear_37_768)"/><path d="M 118 3 A 3 3 0 0 1 115 6 A 3 3 0 0 1 112 3 A 3 3 0 0 1 115 0 A 3 3 0 0 1 118 3 Z" fill="url(#paint14_linear_37_768)"/><path d="M 118 20 A 3 3 0 0 1 115 23 A 3 3 0 0 1 112 20 A 3 3 0 0 1 115 17 A 3 3 0 0 1 118 20 Z" fill="url(#paint15_linear_37_768)"/><path d="M 134 3 A 3 3 0 0 1 131 6 A 3 3 0 0 1 128 3 A 3 3 0 0 1 131 0 A 3 3 0 0 1 134 3 Z" fill="url(#paint16_linear_37_768)"/><path d="M 134 20 A 3 3 0 0 1 131 23 A 3 3 0 0 1 128 20 A 3 3 0 0 1 131 17 A 3 3 0 0 1 134 20 Z" fill="url(#paint17_linear_37_768)"/><path d="M 150 3 A 3 3 0 0 1 147 6 A 3 3 0 0 1 144 3 A 3 3 0 0 1 147 0 A 3 3 0 0 1 150 3 Z" fill="url(#paint18_linear_37_768)"/><path d="M 150 20 A 3 3 0 0 1 147 23 A 3 3 0 0 1 144 20 A 3 3 0 0 1 147 17 A 3 3 0 0 1 150 20 Z" fill="url(#paint19_linear_37_768)"/></g><g transform="matrix(1.1861802339553833, 0, 0, 1.1861802339553833, 4.825144290923959, 51.141808483448074)"><path d="M 6 3 A 3 3 0 0 1 3 6 A 3 3 0 0 1 0 3 A 3 3 0 0 1 3 0 A 3 3 0 0 1 6 3 Z" fill="url(#paint0_linear_37_768)"/><path d="M 6 20 A 3 3 0 0 1 3 23 A 3 3 0 0 1 0 20 A 3 3 0 0 1 3 17 A 3 3 0 0 1 6 20 Z" fill="url(#paint1_linear_37_768)"/><path d="M 22 3 A 3 3 0 0 1 19 6 A 3 3 0 0 1 16 3 A 3 3 0 0 1 19 0 A 3 3 0 0 1 22 3 Z" fill="url(#paint2_linear_37_768)"/><path d="M 22 20 A 3 3 0 0 1 19 23 A 3 3 0 0 1 16 20 A 3 3 0 0 1 19 17 A 3 3 0 0 1 22 20 Z" fill="url(#paint3_linear_37_768)"/><path d="M 38 3 A 3 3 0 0 1 35 6 A 3 3 0 0 1 32 3 A 3 3 0 0 1 35 0 A 3 3 0 0 1 38 3 Z" fill="url(#paint4_linear_37_768)"/><path d="M 38 20 A 3 3 0 0 1 35 23 A 3 3 0 0 1 32 20 A 3 3 0 0 1 35 17 A 3 3 0 0 1 38 20 Z" fill="url(#paint5_linear_37_768)"/><path d="M 54 3 A 3 3 0 0 1 51 6 A 3 3 0 0 1 48 3 A 3 3 0 0 1 51 0 A 3 3 0 0 1 54 3 Z" fill="url(#paint6_linear_37_768)"/><path d="M 54 20 A 3 3 0 0 1 51 23 A 3 3 0 0 1 48 20 A 3 3 0 0 1 51 17 A 3 3 0 0 1 54 20 Z" fill="url(#paint7_linear_37_768)"/><path d="M 70 3 A 3 3 0 0 1 67 6 A 3 3 0 0 1 64 3 A 3 3 0 0 1 67 0 A 3 3 0 0 1 70 3 Z" fill="url(#paint8_linear_37_768)"/><path d="M 70 20 A 3 3 0 0 1 67 23 A 3 3 0 0 1 64 20 A 3 3 0 0 1 67 17 A 3 3 0 0 1 70 20 Z" fill="url(#paint9_linear_37_768)"/><path d="M 86 3 A 3 3 0 0 1 83 6 A 3 3 0 0 1 80 3 A 3 3 0 0 1 83 0 A 3 3 0 0 1 86 3 Z" fill="url(#paint10_linear_37_768)"/><path d="M 86 20 A 3 3 0 0 1 83 23 A 3 3 0 0 1 80 20 A 3 3 0 0 1 83 17 A 3 3 0 0 1 86 20 Z" fill="url(#paint11_linear_37_768)"/><path d="M 102 3 A 3 3 0 0 1 99 6 A 3 3 0 0 1 96 3 A 3 3 0 0 1 99 0 A 3 3 0 0 1 102 3 Z" fill="url(#paint12_linear_37_768)"/><path d="M 102 20 A 3 3 0 0 1 99 23 A 3 3 0 0 1 96 20 A 3 3 0 0 1 99 17 A 3 3 0 0 1 102 20 Z" fill="url(#paint13_linear_37_768)"/><path d="M 118 3 A 3 3 0 0 1 115 6 A 3 3 0 0 1 112 3 A 3 3 0 0 1 115 0 A 3 3 0 0 1 118 3 Z" fill="url(#paint14_linear_37_768)"/><path d="M 118 20 A 3 3 0 0 1 115 23 A 3 3 0 0 1 112 20 A 3 3 0 0 1 115 17 A 3 3 0 0 1 118 20 Z" fill="url(#paint15_linear_37_768)"/><path d="M 134 3 A 3 3 0 0 1 131 6 A 3 3 0 0 1 128 3 A 3 3 0 0 1 131 0 A 3 3 0 0 1 134 3 Z" fill="url(#paint16_linear_37_768)"/><path d="M 134 20 A 3 3 0 0 1 131 23 A 3 3 0 0 1 128 20 A 3 3 0 0 1 131 17 A 3 3 0 0 1 134 20 Z" fill="url(#paint17_linear_37_768)"/><path d="M 150 3 A 3 3 0 0 1 147 6 A 3 3 0 0 1 144 3 A 3 3 0 0 1 147 0 A 3 3 0 0 1 150 3 Z" fill="url(#paint18_linear_37_768)"/><path d="M 150 20 A 3 3 0 0 1 147 23 A 3 3 0 0 1 144 20 A 3 3 0 0 1 147 17 A 3 3 0 0 1 150 20 Z" fill="url(#paint19_linear_37_768)"/></g><g transform="matrix(1.1861802339553833, 0, 0, 1.1861802339553833, 3.6892943382263184, 93.36649415239339)"><path d="M 6 3 A 3 3 0 0 1 3 6 A 3 3 0 0 1 0 3 A 3 3 0 0 1 3 0 A 3 3 0 0 1 6 3 Z" fill="url(#paint0_linear_37_768)"/><path d="M 6 20 A 3 3 0 0 1 3 23 A 3 3 0 0 1 0 20 A 3 3 0 0 1 3 17 A 3 3 0 0 1 6 20 Z" fill="url(#paint1_linear_37_768)"/><path d="M 22 3 A 3 3 0 0 1 19 6 A 3 3 0 0 1 16 3 A 3 3 0 0 1 19 0 A 3 3 0 0 1 22 3 Z" fill="url(#paint2_linear_37_768)"/><path d="M 22 20 A 3 3 0 0 1 19 23 A 3 3 0 0 1 16 20 A 3 3 0 0 1 19 17 A 3 3 0 0 1 22 20 Z" fill="url(#paint3_linear_37_768)"/><path d="M 38 3 A 3 3 0 0 1 35 6 A 3 3 0 0 1 32 3 A 3 3 0 0 1 35 0 A 3 3 0 0 1 38 3 Z" fill="url(#paint4_linear_37_768)"/><path d="M 38 20 A 3 3 0 0 1 35 23 A 3 3 0 0 1 32 20 A 3 3 0 0 1 35 17 A 3 3 0 0 1 38 20 Z" fill="url(#paint5_linear_37_768)"/><path d="M 54 3 A 3 3 0 0 1 51 6 A 3 3 0 0 1 48 3 A 3 3 0 0 1 51 0 A 3 3 0 0 1 54 3 Z" fill="url(#paint6_linear_37_768)"/><path d="M 54 20 A 3 3 0 0 1 51 23 A 3 3 0 0 1 48 20 A 3 3 0 0 1 51 17 A 3 3 0 0 1 54 20 Z" fill="url(#paint7_linear_37_768)"/><path d="M 70 3 A 3 3 0 0 1 67 6 A 3 3 0 0 1 64 3 A 3 3 0 0 1 67 0 A 3 3 0 0 1 70 3 Z" fill="url(#paint8_linear_37_768)"/><path d="M 70 20 A 3 3 0 0 1 67 23 A 3 3 0 0 1 64 20 A 3 3 0 0 1 67 17 A 3 3 0 0 1 70 20 Z" fill="url(#paint9_linear_37_768)"/><path d="M 86 3 A 3 3 0 0 1 83 6 A 3 3 0 0 1 80 3 A 3 3 0 0 1 83 0 A 3 3 0 0 1 86 3 Z" fill="url(#paint10_linear_37_768)"/><path d="M 86 20 A 3 3 0 0 1 83 23 A 3 3 0 0 1 80 20 A 3 3 0 0 1 83 17 A 3 3 0 0 1 86 20 Z" fill="url(#paint11_linear_37_768)"/><path d="M 102 3 A 3 3 0 0 1 99 6 A 3 3 0 0 1 96 3 A 3 3 0 0 1 99 0 A 3 3 0 0 1 102 3 Z" fill="url(#paint12_linear_37_768)"/><path d="M 102 20 A 3 3 0 0 1 99 23 A 3 3 0 0 1 96 20 A 3 3 0 0 1 99 17 A 3 3 0 0 1 102 20 Z" fill="url(#paint13_linear_37_768)"/><path d="M 118 3 A 3 3 0 0 1 115 6 A 3 3 0 0 1 112 3 A 3 3 0 0 1 115 0 A 3 3 0 0 1 118 3 Z" fill="url(#paint14_linear_37_768)"/><path d="M 118 20 A 3 3 0 0 1 115 23 A 3 3 0 0 1 112 20 A 3 3 0 0 1 115 17 A 3 3 0 0 1 118 20 Z" fill="url(#paint15_linear_37_768)"/><path d="M 134 3 A 3 3 0 0 1 131 6 A 3 3 0 0 1 128 3 A 3 3 0 0 1 131 0 A 3 3 0 0 1 134 3 Z" fill="url(#paint16_linear_37_768)"/><path d="M 134 20 A 3 3 0 0 1 131 23 A 3 3 0 0 1 128 20 A 3 3 0 0 1 131 17 A 3 3 0 0 1 134 20 Z" fill="url(#paint17_linear_37_768)"/><path d="M 150 3 A 3 3 0 0 1 147 6 A 3 3 0 0 1 144 3 A 3 3 0 0 1 147 0 A 3 3 0 0 1 150 3 Z" fill="url(#paint18_linear_37_768)"/><path d="M 150 20 A 3 3 0 0 1 147 23 A 3 3 0 0 1 144 20 A 3 3 0 0 1 147 17 A 3 3 0 0 1 150 20 Z" fill="url(#paint19_linear_37_768)"/></g></svg>