<?xml version="1.0" encoding="utf-8"?>
<svg id="master-artboard" viewBox="0 0 1726.2796630859375 906.089599609375" version="1.1" xmlns="http://www.w3.org/2000/svg" x="0px" y="0px" style="enable-background:new 0 0 336 235.2;" width="1726.2796630859375px" height="906.089599609375px"><defs><linearGradient id="paint0_linear_444_933" x1="-45.5129" y1="149.151" x2="87.9369" y2="-7.35051" gradientUnits="userSpaceOnUse">
<stop stop-color="#EE2C7E"/>
<stop offset="1" stop-color="#EF845C"/>
</linearGradient><filter id="filter0_d_37_767" x="0.920959" y="0.826294" width="547.903" height="306.277" filterUnits="userSpaceOnUse" color-interpolation-filters="sRGB">
<feFlood flood-opacity="0" result="BackgroundImageFix"/>
<feColorMatrix in="SourceAlpha" type="matrix" values="0 0 0 0 0 0 0 0 0 0 0 0 0 0 0 0 0 0 127 0" result="hardAlpha"/>
<feOffset dy="10"/>
<feGaussianBlur stdDeviation="5"/>
<feComposite in2="hardAlpha" operator="out"/>
<feColorMatrix type="matrix" values="0 0 0 0 0 0 0 0 0 0 0 0 0 0 0 0 0 0 0.1 0"/>
<feBlend mode="normal" in2="BackgroundImageFix" result="effect1_dropShadow_37_767"/>
<feBlend mode="normal" in="SourceGraphic" in2="effect1_dropShadow_37_767" result="shape"/>
</filter></defs><rect id="ee-background" x="0" y="0" width="1726.2796630859375" height="906.089599609375" style="fill: white; fill-opacity: 0; pointer-events: none;"/><g transform="matrix(7.099173069000246, -0.6510612964630129, 0.6510612964630129, 7.099173069000246, 6.415973663330192, 363.21764859157065)"><path d="M10.4766 79.1913C2.88425 77.2869 -1.81948 69.532 1.14347 62.2869C8.41951 44.4954 20.7397 29.0901 36.7263 18.0579C56.6237 4.32703 80.8395 -1.69008 104.85 1.13077C128.86 3.95162 151.022 15.4175 167.195 33.3861C180.189 47.8231 188.603 65.6644 191.558 84.6579C192.761 92.3924 186.388 98.8459 178.561 98.9388V98.9388C170.734 99.0316 164.455 92.6986 162.815 85.0447C160.224 72.9537 154.507 61.6613 146.126 52.3494C134.56 39.4998 118.712 31.3004 101.542 29.2831C84.3721 27.2659 67.055 31.5688 52.8261 41.388C42.5147 48.5037 34.3363 58.1636 29.0138 69.325C25.6446 76.3903 18.0689 81.0957 10.4766 79.1913V79.1913Z" fill="url(#paint0_linear_444_933)" transform="matrix(1, 0, 0, 1, 7.670400597066234, -11.442712970245282)"/></g><g transform="matrix(2.9158403873443604, 0, 0, 2.9158403873443604, 31.010684967041016, 16.94351577758789)"><g filter="url(#filter0_d_37_767)">
<path d="M37.4665 207.1C16.7043 200.681 4.82802 178.477 14.1293 158.836C36.9703 110.605 73.4368 69.7462 119.411 41.5612C176.633 6.48128 244.668 -6.56589 310.808 4.85724C376.947 16.2804 436.665 51.3924 478.804 103.633C512.662 145.606 533.311 196.33 538.651 249.428C540.825 271.051 522.189 287.985 500.477 287.068V287.068C478.764 286.151 462.308 267.652 458.91 246.187C453.543 212.279 439.389 180.116 417.551 153.043C387.416 115.685 344.711 90.5756 297.414 82.4067C250.117 74.2379 201.463 83.5681 160.543 108.654C130.89 126.834 106.767 152.386 90.3372 182.53C79.9366 201.611 58.2286 213.519 37.4665 207.1V207.1Z" fill="#24BCF9"/>
</g></g></svg>