<svg width="93" height="46" viewBox="0 0 93 46" fill="none" xmlns="http://www.w3.org/2000/svg">
<circle cx="2" cy="2" r="2" fill="#24BCF9"/>
<circle cx="2" cy="13" r="2" fill="#24BCF9"/>
<circle cx="2" cy="23" r="2" fill="#24BCF9"/>
<circle cx="2" cy="34" r="2" fill="#24BCF9"/>
<circle cx="2" cy="44" r="2" fill="#24BCF9"/>
<circle cx="12" cy="2" r="2" fill="#24BCF9"/>
<circle cx="12" cy="13" r="2" fill="#24BCF9"/>
<circle cx="12" cy="23" r="2" fill="#24BCF9"/>
<circle cx="12" cy="34" r="2" fill="#24BCF9"/>
<circle cx="12" cy="44" r="2" fill="#24BCF9"/>
<circle cx="22" cy="2" r="2" fill="#24BCF9"/>
<circle cx="22" cy="13" r="2" fill="#24BCF9"/>
<circle cx="22" cy="23" r="2" fill="#24BCF9"/>
<circle cx="22" cy="34" r="2" fill="#24BCF9"/>
<circle cx="22" cy="44" r="2" fill="#24BCF9"/>
<circle cx="32" cy="2" r="2" fill="#24BCF9"/>
<circle cx="32" cy="13" r="2" fill="#24BCF9"/>
<circle cx="32" cy="23" r="2" fill="#24BCF9"/>
<circle cx="32" cy="34" r="2" fill="#24BCF9"/>
<circle cx="32" cy="44" r="2" fill="#24BCF9"/>
<circle cx="42" cy="2" r="2" fill="#24BCF9"/>
<circle cx="42" cy="13" r="2" fill="#24BCF9"/>
<circle cx="42" cy="23" r="2" fill="#24BCF9"/>
<circle cx="42" cy="34" r="2" fill="#24BCF9"/>
<circle cx="42" cy="44" r="2" fill="#24BCF9"/>
<circle cx="52" cy="2" r="2" fill="#24BCF9"/>
<circle cx="52" cy="13" r="2" fill="#24BCF9"/>
<circle cx="52" cy="23" r="2" fill="#24BCF9"/>
<circle cx="52" cy="34" r="2" fill="#24BCF9"/>
<circle cx="52" cy="44" r="2" fill="#24BCF9"/>
<circle cx="62" cy="2" r="2" fill="#24BCF9"/>
<circle cx="62" cy="13" r="2" fill="#24BCF9"/>
<circle cx="62" cy="23" r="2" fill="#24BCF9"/>
<circle cx="62" cy="34" r="2" fill="#24BCF9"/>
<circle cx="62" cy="44" r="2" fill="#24BCF9"/>
<circle cx="71" cy="2" r="2" fill="#24BCF9"/>
<circle cx="71" cy="13" r="2" fill="#24BCF9"/>
<circle cx="71" cy="23" r="2" fill="#24BCF9"/>
<circle cx="71" cy="34" r="2" fill="#24BCF9"/>
<circle cx="71" cy="44" r="2" fill="#24BCF9"/>
<circle cx="81" cy="2" r="2" fill="#24BCF9"/>
<circle cx="81" cy="13" r="2" fill="#24BCF9"/>
<circle cx="81" cy="23" r="2" fill="#24BCF9"/>
<circle cx="81" cy="34" r="2" fill="#24BCF9"/>
<circle cx="81" cy="44" r="2" fill="#24BCF9"/>
<circle cx="91" cy="2" r="2" fill="#24BCF9"/>
<circle cx="91" cy="13" r="2" fill="#24BCF9"/>
<circle cx="91" cy="23" r="2" fill="#24BCF9"/>
<circle cx="91" cy="34" r="2" fill="#24BCF9"/>
<circle cx="91" cy="44" r="2" fill="#24BCF9"/>
</svg>
