<?xml version="1.0" encoding="utf-8"?>
<svg id="master-artboard" viewBox="0 0 670.7800903320312 1138.7362060546875" version="1.1" xmlns="http://www.w3.org/2000/svg" x="0px" y="0px" style="enable-background:new 0 0 1400 980;" width="670.7800903320312px" height="1138.7362060546875px"><defs><linearGradient id="paint0_linear_103_265" x1="-176.44" y1="-67.5278" x2="222.957" y2="166.391" gradientUnits="userSpaceOnUse">
<stop stop-color="#EE2C7E"/>
<stop offset="1" stop-color="#EF845C"/>
</linearGradient><filter id="filter0_d_37_763" x="0.417969" y="0.0822754" width="267.918" height="562.185" filterUnits="userSpaceOnUse" color-interpolation-filters="sRGB">
<feFlood flood-opacity="0" result="BackgroundImageFix"/>
<feColorMatrix in="SourceAlpha" type="matrix" values="0 0 0 0 0 0 0 0 0 0 0 0 0 0 0 0 0 0 127 0" result="hardAlpha"/>
<feOffset dy="10"/>
<feGaussianBlur stdDeviation="3"/>
<feComposite in2="hardAlpha" operator="out"/>
<feColorMatrix type="matrix" values="0 0 0 0 0 0 0 0 0 0 0 0 0 0 0 0 0 0 0.1 0"/>
<feBlend mode="normal" in2="BackgroundImageFix" result="effect1_dropShadow_37_763"/>
<feBlend mode="normal" in="SourceGraphic" in2="effect1_dropShadow_37_763" result="shape"/>
</filter></defs><rect id="ee-background" x="0" y="0" width="670.7800903320312" height="1138.7362060546875" style="fill: white; fill-opacity: 0; pointer-events: none;"/><g transform="matrix(2.490003824234009, 0, 0, 2.490003824234009, 86.36876100757434, 29.706871032714844)"><path d="M0.65336 28.9176C1.87708 11.3448 17.2027 -2.13652 34.4238 1.56949C76.7132 10.6702 115.706 31.8882 146.456 62.9549C184.729 101.621 207.615 152.899 210.839 207.209C214.063 261.518 197.403 315.143 163.974 358.066C137.115 392.552 100.906 418.234 59.9899 432.274C43.3281 437.991 26.5153 426.418 23.2213 409.113V409.113C19.9272 391.808 31.4813 375.398 47.7919 368.745C73.5584 358.234 96.3219 341.113 113.646 318.869C137.552 288.174 149.465 249.826 147.16 210.989C144.855 172.151 128.489 135.481 101.119 107.83C81.2851 87.7924 56.656 73.484 29.827 66.0955C12.8439 61.4184 -0.570361 46.4904 0.65336 28.9176V28.9176Z" fill="url(#paint0_linear_103_265)"/></g><g transform="matrix(1.804963231086731, 0, 0, 1.804963231086731, 28.017425537109375, 83.77162551879883)"><g filter="url(#filter0_d_37_763)">
<path d="M15.7879 32.5543C19.0578 10.5968 39.6416 -4.83001 60.9125 1.52386C113.147 17.1269 160.045 47.6287 195.617 89.6918C239.89 142.045 263.588 208.726 262.285 277.277C260.981 345.828 234.764 411.559 188.532 462.191C151.387 502.871 103.363 531.567 50.5731 545.173C29.0759 550.714 9.09354 534.515 6.66097 512.449V512.449C4.22839 490.383 20.3625 470.905 41.5107 464.154C74.9194 453.489 105.207 434.222 129.166 407.983C162.227 371.776 180.975 324.77 181.907 275.748C182.839 226.726 165.892 179.041 134.232 141.603C111.288 114.472 81.7551 94.0676 48.776 82.1399C27.8998 74.5895 12.5181 54.5118 15.7879 32.5543V32.5543Z" fill="#24BCF9"/>
</g></g></svg>