<?xml version="1.0" encoding="utf-8"?>
<svg id="master-artboard" viewBox="0 0 648.0628662109375 638.9588623046875" version="1.1" xmlns="http://www.w3.org/2000/svg" x="0px" y="0px" style="enable-background:new 0 0 1400 980;" width="648.0628662109375px" height="638.9588623046875px"><defs><linearGradient id="paint0_linear_387_7" x1="2.28429" y1="52.3701" x2="43.2257" y2="11.4468" gradientUnits="userSpaceOnUse">
<stop stop-color="#A055FF"/>
<stop offset="1" stop-color="#5200FF"/>
</linearGradient><linearGradient id="paint1_linear_387_7" x1="25.9867" y1="28.6692" x2="35.936" y2="18.7199" gradientUnits="userSpaceOnUse">
<stop stop-color="#A055FF"/>
<stop offset="1" stop-color="#5200FF"/>
</linearGradient><linearGradient id="paint0_linear_37_1076" x1="17.5937" y1="28.0249" x2="46.3641" y2="27.0365" gradientUnits="userSpaceOnUse">
<stop stop-color="#B820C7"/>
<stop offset="1" stop-color="#0127ED"/>
</linearGradient><linearGradient id="paint1_linear_37_1076" x1="244.567" y1="214.557" x2="663.783" y2="200.181" gradientUnits="userSpaceOnUse">
<stop stop-color="#B921C7"/>
<stop offset="1" stop-color="#1D33F2"/>
</linearGradient><linearGradient id="paint0_linear_388_13" x1="24" y1="48" x2="24" y2="0" gradientUnits="userSpaceOnUse">
<stop stop-color="#009EFD"/>
<stop offset="1" stop-color="#2AF598"/>
</linearGradient><linearGradient id="paint0_linear_515_233" x1="28.5325" y1="-9.0741" x2="12.186" y2="55.3475" gradientUnits="userSpaceOnUse">
<stop stop-color="#30FDD8"/>
<stop offset="1" stop-color="#009F82"/>
</linearGradient><linearGradient id="paint0_linear_515_251" x1="0.513625" y1="34.3706" x2="29.1906" y2="7.7713" gradientUnits="userSpaceOnUse">
<stop stop-color="#FFF33B"/>
<stop offset="0.04" stop-color="#FEE72E"/>
<stop offset="0.117" stop-color="#FED51B"/>
<stop offset="0.196" stop-color="#FDCA10"/>
<stop offset="0.281" stop-color="#FDC70C"/>
<stop offset="0.669" stop-color="#F3903F"/>
<stop offset="0.888" stop-color="#ED683C"/>
<stop offset="1" stop-color="#E93E3A"/>
</linearGradient><linearGradient id="paint0_linear_388_18" x1="-6.86466" y1="39.4969" x2="43.8144" y2="6.22356" gradientUnits="userSpaceOnUse">
<stop stop-color="#FFF33B"/>
<stop offset="0.04" stop-color="#FEE72E"/>
<stop offset="0.117" stop-color="#FED51B"/>
<stop offset="0.196" stop-color="#FDCA10"/>
<stop offset="0.281" stop-color="#FDC70C"/>
<stop offset="0.669" stop-color="#F3903F"/>
<stop offset="0.888" stop-color="#ED683C"/>
<stop offset="1" stop-color="#E93E3A"/>
</linearGradient><linearGradient id="paint1_linear_388_18" x1="-59.962" y1="298.676" x2="325.199" y2="45.7857" gradientUnits="userSpaceOnUse">
<stop stop-color="#FFF33B"/>
<stop offset="0.04" stop-color="#FEE72E"/>
<stop offset="0.117" stop-color="#FED51B"/>
<stop offset="0.196" stop-color="#FDCA10"/>
<stop offset="0.281" stop-color="#FDC70C"/>
<stop offset="0.669" stop-color="#F3903F"/>
<stop offset="0.888" stop-color="#ED683C"/>
<stop offset="1" stop-color="#E93E3A"/>
</linearGradient><linearGradient id="paint2_linear_388_18" x1="45.5723" y1="410.543" x2="430.733" y2="157.653" gradientUnits="userSpaceOnUse">
<stop stop-color="#FFF33B"/>
<stop offset="0.04" stop-color="#FEE72E"/>
<stop offset="0.117" stop-color="#FED51B"/>
<stop offset="0.196" stop-color="#FDCA10"/>
<stop offset="0.281" stop-color="#FDC70C"/>
<stop offset="0.669" stop-color="#F3903F"/>
<stop offset="0.888" stop-color="#ED683C"/>
<stop offset="1" stop-color="#E93E3A"/>
</linearGradient><linearGradient id="paint3_linear_388_18" x1="142.577" y1="622.005" x2="616.359" y2="-276.182" gradientUnits="userSpaceOnUse">
<stop stop-color="#FFF33B"/>
<stop offset="0.04" stop-color="#FEE72E"/>
<stop offset="0.117" stop-color="#FED51B"/>
<stop offset="0.196" stop-color="#FDCA10"/>
<stop offset="0.281" stop-color="#FDC70C"/>
<stop offset="0.669" stop-color="#F3903F"/>
<stop offset="0.888" stop-color="#ED683C"/>
<stop offset="1" stop-color="#E93E3A"/>
</linearGradient><linearGradient id="paint0_linear_515_209" x1="30.5455" y1="1.55494" x2="5.24512" y2="30.385" gradientUnits="userSpaceOnUse">
<stop stop-color="#04B4FF"/>
<stop offset="0.895833" stop-color="#ACCDFF"/>
</linearGradient><linearGradient id="paint0_linear_444_241" x1="8.5" y1="17" x2="8.5" y2="0" gradientUnits="userSpaceOnUse">
<stop stop-color="#00B59C"/>
<stop offset="1" stop-color="#9CFFAC"/>
</linearGradient><linearGradient id="paint1_linear_444_241" x1="8.5" y1="13" x2="8.5" y2="2" gradientUnits="userSpaceOnUse">
<stop stop-color="#C3FFE8"/>
<stop offset="0.9973" stop-color="#F0FFF4"/>
</linearGradient></defs><g transform="matrix(1.1587318181991577, 0, 0, 1.1587318181991577, -1.377202446672186, -2.8396435609651007)"><rect id="ee-background" x="0" y="0" width="648.0628662109375" height="638.9588623046875" style="fill: white; fill-opacity: 0; pointer-events: none;"/><g transform="matrix(5.276678085327148, 0, 0, 5.276678085327148, -3160.598021507263, -232.45123291015625)"><g id="g-1" transform="matrix(1, 0, 0, 1, 0, 0)">
	<g id="g-2">
		<path class="st0" d="M652,46c27.6,0,50,22.4,50,50s-22.4,50-50,50s-50-22.4-50-50S624.4,46,652,46z" style="fill: rgb(1, 185, 255); fill-opacity: 0.23;" transform="matrix(1.0092889070510864, 0, 0, 1.0092889070510864, -6.288587093353328, -0.427291296903217)"/>
	<path d="M 649.176025390625 59.637386322021484" style="fill: rgb(248, 167, 42); fill-opacity: 0.17; stroke: rgb(0, 0, 0); stroke-opacity: 1; stroke-width: 0; paint-order: fill;" transform="matrix(1.0092889404296874, 0, 0, 1.0092889404296874, -5.591942138671827, -0.4272912597656213)"/><path d="M 633.3854370117188 63.58504104614258" style="fill: rgb(244, 27, 27); fill-opacity: 0.17; stroke: rgb(0, 0, 0); stroke-opacity: 1; stroke-width: 0; paint-order: fill;"/><path d="M 635.475341796875 58.24409484863281" style="fill: rgb(127, 241, 169); fill-opacity: 0.23; stroke: rgb(0, 0, 0); stroke-opacity: 1; stroke-width: 0; paint-order: fill;"/></g>
</g></g></g><g transform="matrix(22.802971552766394, 0, 0, 22.802971552766394, 113.87820434570312, 117.84519958496094)"/><g transform="matrix(20.483076095581055, 0, 0, 20.483076095581055, 164.69927608055434, 172.02375422996846)"><path d="M15.8305 5.31438L11.259 1.15441C11.1459 1.05148 11.012 1 10.8572 1C10.7025 1 10.5685 1.05148 10.4555 1.15441C10.3423 1.2574 10.2857 1.37929 10.2857 1.5201V3.60009H8.28572C4.04151 3.60009 1.43748 4.69157 0.473063 6.87449C0.157677 7.60023 0 8.50221 0 9.58013C0 10.4792 0.377994 11.7007 1.13392 13.2445C1.15175 13.2825 1.18289 13.3473 1.22761 13.4394C1.2723 13.5314 1.31242 13.6126 1.34814 13.6831C1.38398 13.7534 1.42269 13.813 1.46432 13.8617C1.53568 13.9538 1.61905 14 1.71431 14C1.8036 14 1.87355 13.9729 1.92418 13.9188C1.97469 13.8647 1.99999 13.7969 1.99999 13.7158C1.99999 13.6669 1.99255 13.5953 1.97763 13.5004C1.96274 13.4056 1.95527 13.3421 1.95527 13.3095C1.92547 12.9413 1.91058 12.6079 1.91058 12.3102C1.91058 11.7632 1.96274 11.273 2.06682 10.8397C2.17105 10.4063 2.31537 10.0312 2.49995 9.71433C2.68449 9.39731 2.9225 9.12397 3.21425 8.89374C3.50587 8.66351 3.81981 8.47535 4.15612 8.32907C4.49249 8.18277 4.88831 8.06766 5.34367 7.98373C5.79901 7.89978 6.25731 7.84153 6.71868 7.809C7.18004 7.77647 7.70236 7.76031 8.28572 7.76031H10.2857V9.84035C10.2857 9.98116 10.3422 10.1031 10.4552 10.206C10.5684 10.3088 10.7023 10.3603 10.857 10.3603C11.0117 10.3603 11.1457 10.3088 11.259 10.206L15.8304 6.04584C15.9435 5.94291 16 5.82108 16 5.68024C16 5.53943 15.9435 5.41751 15.8305 5.31438Z" fill="#24BCF9"/></g></svg>