<?xml version="1.0" encoding="utf-8"?>
<svg id="master-artboard" viewBox="0 0 216.43701171875 186.0358123779297" version="1.1" xmlns="http://www.w3.org/2000/svg" x="0px" y="0px" style="enable-background:new 0 0 1400 980;" width="216.43701171875px" height="186.0358123779297px"><defs><clipPath id="clip0_460_75">
<path d="M 0 0 H 24 V 24 H 0 V 0 Z" fill="white" transform="translate(102)"/>
</clipPath></defs><rect id="ee-background" x="0" y="0" width="216.43701171875" height="186.0358123779297" style="fill: white; fill-opacity: 0; pointer-events: none;"/><g transform="matrix(8.26470947265625, 0, 0, 8.26470947265625, -408.90869140625, -6.158592224121094)"><path d="M75 4.72974C74.117 5.12528 73.168 5.39166 72.172 5.51173C73.189 4.89724 73.97 3.92353 74.337 2.76315C73.386 3.33224 72.332 3.74594 71.21 3.96893C70.313 3.0033 69.032 2.3999 67.616 2.3999C64.437 2.3999 62.101 5.39267 62.819 8.49945C58.728 8.2926 55.1 6.31491 52.671 3.30903C51.381 5.542 52.002 8.46313 54.194 9.94235C53.388 9.91612 52.628 9.69313 51.965 9.3208C51.911 11.6224 53.546 13.7756 55.914 14.2549C55.221 14.4446 54.462 14.489 53.69 14.3397C54.316 16.3133 56.134 17.7492 58.29 17.7895C56.22 19.4272 53.612 20.1587 51 19.8479C53.179 21.2575 55.768 22.0799 58.548 22.0799C67.69 22.0799 72.855 14.2892 72.543 7.30174C73.505 6.60047 74.34 5.72564 75 4.72974Z" fill="white"/><path d="M12 2.163C15.204 2.163 15.584 2.175 16.85 2.233C20.102 2.381 21.621 3.924 21.769 7.152C21.827 8.417 21.838 8.797 21.838 12.001C21.838 15.206 21.826 15.585 21.769 16.85C21.62 20.075 20.105 21.621 16.85 21.769C15.584 21.827 15.206 21.839 12 21.839C8.796 21.839 8.416 21.827 7.151 21.769C3.891 21.62 2.38 20.07 2.232 16.849C2.174 15.584 2.162 15.205 2.162 12C2.162 8.796 2.175 8.417 2.232 7.151C2.381 3.924 3.896 2.38 7.151 2.232C8.417 2.175 8.796 2.163 12 2.163ZM12 0C8.741 0 8.333 0.014 7.053 0.072C2.695 0.272 0.273 2.69 0.073 7.052C0.014 8.333 0 8.741 0 12C0 15.259 0.014 15.668 0.072 16.948C0.272 21.306 2.69 23.728 7.052 23.928C8.333 23.986 8.741 24 12 24C15.259 24 15.668 23.986 16.948 23.928C21.302 23.728 23.73 21.31 23.927 16.948C23.986 15.668 24 15.259 24 12C24 8.741 23.986 8.333 23.928 7.053C23.732 2.699 21.311 0.273 16.949 0.073C15.668 0.014 15.259 0 12 0V0ZM12 5.838C8.597 5.838 5.838 8.597 5.838 12C5.838 15.403 8.597 18.163 12 18.163C15.403 18.163 18.162 15.404 18.162 12C18.162 8.597 15.403 5.838 12 5.838ZM12 16C9.791 16 8 14.21 8 12C8 9.791 9.791 8 12 8C14.209 8 16 9.791 16 12C16 14.21 14.209 16 12 16ZM18.406 4.155C17.61 4.155 16.965 4.8 16.965 5.595C16.965 6.39 17.61 7.035 18.406 7.035C19.201 7.035 19.845 6.39 19.845 5.595C19.845 4.8 19.201 4.155 18.406 4.155Z" fill="white"/><g clip-path="url(#clip0_460_75)">
<path fill-rule="evenodd" clip-rule="evenodd" d="M123.068 0C124.686 0 126 1.31391 126 2.93222V21.0678C126 22.6861 124.686 24 123.068 24H118.077V14.9571H121.199L121.793 11.0843H118.077V8.57095C118.077 7.51144 118.596 6.47864 120.261 6.47864H121.95V3.18145C121.95 3.18145 120.417 2.9198 118.951 2.9198C115.89 2.9198 113.89 4.77459 113.89 8.13248V11.0843H110.488V14.9571H113.89V24H104.932C103.314 24 102 22.6861 102 21.0678V2.93222C102 1.31391 103.314 0 104.932 0H123.068V0Z" fill="white"/>
</g></g></svg>