<?xml version="1.0" encoding="utf-8"?>
<svg id="master-artboard" viewBox="0 0 648.0628662109375 638.9588623046875" version="1.1" xmlns="http://www.w3.org/2000/svg" x="0px" y="0px" style="enable-background:new 0 0 1400 980;" width="648.0628662109375px" height="638.9588623046875px"><defs><linearGradient id="paint0_linear_387_7" x1="2.28429" y1="52.3701" x2="43.2257" y2="11.4468" gradientUnits="userSpaceOnUse">
<stop stop-color="#A055FF"/>
<stop offset="1" stop-color="#5200FF"/>
</linearGradient><linearGradient id="paint1_linear_387_7" x1="25.9867" y1="28.6692" x2="35.936" y2="18.7199" gradientUnits="userSpaceOnUse">
<stop stop-color="#A055FF"/>
<stop offset="1" stop-color="#5200FF"/>
</linearGradient><linearGradient id="paint0_linear_37_1076" x1="17.5937" y1="28.0249" x2="46.3641" y2="27.0365" gradientUnits="userSpaceOnUse">
<stop stop-color="#B820C7"/>
<stop offset="1" stop-color="#0127ED"/>
</linearGradient><linearGradient id="paint1_linear_37_1076" x1="244.567" y1="214.557" x2="663.783" y2="200.181" gradientUnits="userSpaceOnUse">
<stop stop-color="#B921C7"/>
<stop offset="1" stop-color="#1D33F2"/>
</linearGradient><linearGradient id="paint0_linear_388_13" x1="24" y1="48" x2="24" y2="0" gradientUnits="userSpaceOnUse">
<stop stop-color="#009EFD"/>
<stop offset="1" stop-color="#2AF598"/>
</linearGradient><linearGradient id="paint0_linear_515_233" x1="28.5325" y1="-9.0741" x2="12.186" y2="55.3475" gradientUnits="userSpaceOnUse">
<stop stop-color="#30FDD8"/>
<stop offset="1" stop-color="#009F82"/>
</linearGradient><linearGradient id="paint0_linear_515_251" x1="0.513625" y1="34.3706" x2="29.1906" y2="7.7713" gradientUnits="userSpaceOnUse">
<stop stop-color="#FFF33B"/>
<stop offset="0.04" stop-color="#FEE72E"/>
<stop offset="0.117" stop-color="#FED51B"/>
<stop offset="0.196" stop-color="#FDCA10"/>
<stop offset="0.281" stop-color="#FDC70C"/>
<stop offset="0.669" stop-color="#F3903F"/>
<stop offset="0.888" stop-color="#ED683C"/>
<stop offset="1" stop-color="#E93E3A"/>
</linearGradient><linearGradient id="paint0_linear_388_18" x1="-6.86466" y1="39.4969" x2="43.8144" y2="6.22356" gradientUnits="userSpaceOnUse">
<stop stop-color="#FFF33B"/>
<stop offset="0.04" stop-color="#FEE72E"/>
<stop offset="0.117" stop-color="#FED51B"/>
<stop offset="0.196" stop-color="#FDCA10"/>
<stop offset="0.281" stop-color="#FDC70C"/>
<stop offset="0.669" stop-color="#F3903F"/>
<stop offset="0.888" stop-color="#ED683C"/>
<stop offset="1" stop-color="#E93E3A"/>
</linearGradient><linearGradient id="paint1_linear_388_18" x1="-59.962" y1="298.676" x2="325.199" y2="45.7857" gradientUnits="userSpaceOnUse">
<stop stop-color="#FFF33B"/>
<stop offset="0.04" stop-color="#FEE72E"/>
<stop offset="0.117" stop-color="#FED51B"/>
<stop offset="0.196" stop-color="#FDCA10"/>
<stop offset="0.281" stop-color="#FDC70C"/>
<stop offset="0.669" stop-color="#F3903F"/>
<stop offset="0.888" stop-color="#ED683C"/>
<stop offset="1" stop-color="#E93E3A"/>
</linearGradient><linearGradient id="paint2_linear_388_18" x1="45.5723" y1="410.543" x2="430.733" y2="157.653" gradientUnits="userSpaceOnUse">
<stop stop-color="#FFF33B"/>
<stop offset="0.04" stop-color="#FEE72E"/>
<stop offset="0.117" stop-color="#FED51B"/>
<stop offset="0.196" stop-color="#FDCA10"/>
<stop offset="0.281" stop-color="#FDC70C"/>
<stop offset="0.669" stop-color="#F3903F"/>
<stop offset="0.888" stop-color="#ED683C"/>
<stop offset="1" stop-color="#E93E3A"/>
</linearGradient><linearGradient id="paint3_linear_388_18" x1="142.577" y1="622.005" x2="616.359" y2="-276.182" gradientUnits="userSpaceOnUse">
<stop stop-color="#FFF33B"/>
<stop offset="0.04" stop-color="#FEE72E"/>
<stop offset="0.117" stop-color="#FED51B"/>
<stop offset="0.196" stop-color="#FDCA10"/>
<stop offset="0.281" stop-color="#FDC70C"/>
<stop offset="0.669" stop-color="#F3903F"/>
<stop offset="0.888" stop-color="#ED683C"/>
<stop offset="1" stop-color="#E93E3A"/>
</linearGradient><linearGradient id="paint0_linear_515_209" x1="30.5455" y1="1.55494" x2="5.24512" y2="30.385" gradientUnits="userSpaceOnUse">
<stop stop-color="#04B4FF"/>
<stop offset="0.895833" stop-color="#ACCDFF"/>
</linearGradient></defs><g transform="matrix(1.1587318181991577, 0, 0, 1.1587318181991577, 1.4624410218789308, 1.419821766720645)"><rect id="ee-background" x="0" y="0" width="648.0628662109375" height="638.9588623046875" style="fill: white; fill-opacity: 0; pointer-events: none;"/><g transform="matrix(5.276678085327148, 0, 0, 5.276678085327148, -3160.598021507263, -232.45123291015625)"><g id="g-1" transform="matrix(1, 0, 0, 1, 0, 0)">
	<g id="g-2">
		<path class="st0" d="M652,46c27.6,0,50,22.4,50,50s-22.4,50-50,50s-50-22.4-50-50S624.4,46,652,46z" style="fill: rgb(4, 187, 253); fill-opacity: 0.23;" transform="matrix(1.0092889070510864, 0, 0, 1.0092889070510864, -6.288587093353328, -0.427291296903217)"/>
	<path d="M 649.176025390625 59.637386322021484" style="fill: rgb(248, 167, 42); fill-opacity: 0.17; stroke: rgb(0, 0, 0); stroke-opacity: 1; stroke-width: 0; paint-order: fill;" transform="matrix(1.0092889404296874, 0, 0, 1.0092889404296874, -5.591942138671827, -0.4272912597656213)"/><path d="M 633.3854370117188 63.58504104614258" style="fill: rgb(244, 27, 27); fill-opacity: 0.17; stroke: rgb(0, 0, 0); stroke-opacity: 1; stroke-width: 0; paint-order: fill;"/><path d="M 635.475341796875 58.24409484863281" style="fill: rgb(4, 187, 253); fill-opacity: 0.23; stroke: rgb(0, 0, 0); stroke-opacity: 1; stroke-width: 0; paint-order: fill;"/></g>
</g></g></g><g transform="matrix(10.751197814941406, 0, 0, 10.751197814941406, 139.43499941089453, 120.68484311840211)"><path d="M17.5 16.4469C20.0196 16.4469 22.0695 14.328 22.0695 11.7234C22.0695 9.11889 20.0197 7 17.5 7C14.9803 7 12.9305 9.11896 12.9305 11.7234C12.9305 14.3279 14.9804 16.4469 17.5 16.4469ZM17.5 9.2612C18.8135 9.2612 19.882 10.3657 19.882 11.7234C19.882 13.0811 18.8135 14.1857 17.5 14.1857C16.1865 14.1857 15.118 13.0811 15.118 11.7234C15.118 10.3657 16.1866 9.2612 17.5 9.2612ZM21.2676 18.2683C20.043 18.0667 18.7754 17.9645 17.5 17.9645C16.2246 17.9645 14.9571 18.0667 13.7325 18.2683C10.7507 18.7592 8.58648 21.3807 8.58648 24.5018V27.8694C8.58648 28.4938 9.07621 29 9.68023 29H25.3198C25.9239 29 26.4136 28.4938 26.4136 27.8694V24.5018C26.4136 21.3807 24.2494 18.7592 21.2676 18.2683ZM24.2261 26.7389H10.774V24.5019C10.774 22.4988 12.1629 20.8164 14.0766 20.5013C15.1877 20.3185 16.3395 20.2257 17.5001 20.2257C18.6606 20.2257 19.8125 20.3185 20.9236 20.5013C22.8372 20.8164 24.2262 22.4988 24.2262 24.5019V26.7389H24.2261ZM27.6826 16.2887C29.811 16.2887 31.5427 14.4988 31.5427 12.2986C31.5427 10.0985 29.811 8.30853 27.6826 8.30853C25.5542 8.30853 23.8226 10.0985 23.8226 12.2986C23.8226 14.4988 25.5541 16.2887 27.6826 16.2887ZM27.6826 10.5697C28.6048 10.5697 29.3552 11.3453 29.3552 12.2986C29.3552 13.2519 28.6048 14.0275 27.6826 14.0275C26.7604 14.0275 26.0101 13.2519 26.0101 12.2986C26.0101 11.3453 26.7603 10.5697 27.6826 10.5697ZM35 22.4688V24.3476C35 24.972 34.5103 25.4782 33.9062 25.4782H28.0186C27.4146 25.4782 26.9248 24.972 26.9248 24.3476C26.9248 23.7232 27.4146 23.217 28.0186 23.217H32.8125V22.4688C32.8125 20.9887 31.7862 19.7455 30.3722 19.5128C29.4997 19.3691 28.5948 19.2963 27.6825 19.2963C26.8979 19.2963 26.1159 19.3503 25.3583 19.457C24.7596 19.541 24.2084 19.108 24.127 18.4893C24.0455 17.8706 24.4646 17.3008 25.0631 17.2165C25.9182 17.096 26.7995 17.0351 27.6825 17.0351C28.7096 17.0351 29.7302 17.1174 30.7162 17.2797C33.1984 17.6883 35 19.8706 35 22.4688ZM7.31746 16.2887C9.4459 16.2887 11.1775 14.4988 11.1775 12.2986C11.1775 10.0985 9.4459 8.30853 7.31746 8.30853C5.18902 8.30853 3.45734 10.0985 3.45734 12.2986C3.45734 14.4988 5.18902 16.2887 7.31746 16.2887ZM7.31746 10.5697C8.2397 10.5697 8.99001 11.3453 8.99001 12.2986C8.99001 13.2519 8.2397 14.0275 7.31746 14.0275C6.39516 14.0275 5.64484 13.2519 5.64484 12.2986C5.64484 11.3453 6.39522 10.5697 7.31746 10.5697ZM8.07516 24.3477C8.07516 24.972 7.58543 25.4783 6.98141 25.4783H1.09375C0.489727 25.4783 0 24.972 0 24.3477V22.4689C0 19.8706 1.80161 17.6883 4.28381 17.2798C5.26969 17.1175 6.29036 17.0351 7.31746 17.0351C8.20046 17.0351 9.08175 17.0962 9.93686 17.2165C10.5353 17.3008 10.9545 17.8707 10.873 18.4894C10.7915 19.1081 10.2404 19.5417 9.64161 19.457C8.88398 19.3504 8.10202 19.2963 7.31739 19.2963C6.40521 19.2963 5.50026 19.3692 4.62779 19.5128C3.21378 19.7455 2.1875 20.9887 2.1875 22.4688V23.217H6.98141C7.5855 23.2171 8.07516 23.7232 8.07516 24.3477Z" fill="url(#paint0_linear_515_209)"/></g></svg>