<?xml version="1.0" encoding="utf-8"?>
<svg id="master-artboard" viewBox="0 0 648.0628662109375 638.9588623046875" version="1.1" xmlns="http://www.w3.org/2000/svg" x="0px" y="0px" style="enable-background:new 0 0 1400 980;" width="648.0628662109375px" height="638.9588623046875px"><defs><linearGradient id="paint0_linear_387_7" x1="2.28429" y1="52.3701" x2="43.2257" y2="11.4468" gradientUnits="userSpaceOnUse">
<stop stop-color="#A055FF"/>
<stop offset="1" stop-color="#5200FF"/>
</linearGradient><linearGradient id="paint1_linear_387_7" x1="25.9867" y1="28.6692" x2="35.936" y2="18.7199" gradientUnits="userSpaceOnUse">
<stop stop-color="#A055FF"/>
<stop offset="1" stop-color="#5200FF"/>
</linearGradient><linearGradient id="paint0_linear_37_1076" x1="17.5937" y1="28.0249" x2="46.3641" y2="27.0365" gradientUnits="userSpaceOnUse">
<stop stop-color="#B820C7"/>
<stop offset="1" stop-color="#0127ED"/>
</linearGradient><linearGradient id="paint1_linear_37_1076" x1="244.567" y1="214.557" x2="663.783" y2="200.181" gradientUnits="userSpaceOnUse">
<stop stop-color="#B921C7"/>
<stop offset="1" stop-color="#1D33F2"/>
</linearGradient><linearGradient id="paint0_linear_388_13" x1="24" y1="48" x2="24" y2="0" gradientUnits="userSpaceOnUse">
<stop stop-color="#009EFD"/>
<stop offset="1" stop-color="#2AF598"/>
</linearGradient><linearGradient id="paint0_linear_515_233" x1="28.5325" y1="-9.0741" x2="12.186" y2="55.3475" gradientUnits="userSpaceOnUse">
<stop stop-color="#30FDD8"/>
<stop offset="1" stop-color="#009F82"/>
</linearGradient></defs><g transform="matrix(1.1587318181991577, 0, 0, 1.1587318181991577, 1.4624410218789308, 1.419821766720645)"><rect id="ee-background" x="0" y="0" width="648.0628662109375" height="638.9588623046875" style="fill: white; fill-opacity: 0; pointer-events: none;"/><g transform="matrix(5.276678085327148, 0, 0, 5.276678085327148, -3160.598021507263, -232.45123291015625)"><g id="g-1" transform="matrix(1, 0, 0, 1, 0, 0)">
	<g id="g-2">
		<path class="st0" d="M652,46c27.6,0,50,22.4,50,50s-22.4,50-50,50s-50-22.4-50-50S624.4,46,652,46z" style="fill: rgb(38, 236, 163); fill-opacity: 0.17;"/>
	</g>
</g></g></g><g transform="matrix(10.961023330688478, 0, 0, 10.961023330688478, 143.5721692213226, 125.53182890783393)"><path d="M25.5714 11.6997H24.1428V10.2497C24.1428 8.32699 23.3903 6.48299 22.0507 5.1234C20.7112 3.76381 18.8944 3 17 3C15.1056 3 13.2888 3.76381 11.9492 5.1234C10.6097 6.48299 9.85716 8.32699 9.85716 10.2497V11.6997H8.42859C8.04971 11.6997 7.68635 11.8525 7.41844 12.1244C7.15053 12.3963 7.00002 12.7651 7.00002 13.1496V24.407C6.99731 25.2155 7.21776 26.0086 7.63638 26.6964C8.05501 27.3842 8.65508 27.9393 9.36859 28.2987L16.3614 31.8467C16.5599 31.9475 16.7788 32 17.0007 32C17.2226 32 17.4415 31.9475 17.64 31.8467L24.6328 28.2987C25.3461 27.9391 25.9459 27.3839 26.3642 26.6961C26.7826 26.0083 27.0028 25.2154 27 24.407V13.1496C27 12.7651 26.8495 12.3963 26.5816 12.1244C26.3136 11.8525 25.9503 11.6997 25.5714 11.6997ZM12.7143 10.2497C12.7143 9.09609 13.1658 7.98969 13.9695 7.17394C14.7733 6.35818 15.8634 5.8999 17 5.8999C18.1366 5.8999 19.2267 6.35818 20.0304 7.17394C20.8342 7.98969 21.2857 9.09609 21.2857 10.2497V11.6997H12.7143V10.2497ZM24.1428 24.407C24.144 24.6767 24.0705 24.9413 23.9309 25.1707C23.7912 25.4001 23.5909 25.5851 23.3528 25.7047L17 28.928L10.6472 25.7033C10.4093 25.5838 10.2092 25.399 10.0695 25.1698C9.92988 24.9407 9.85631 24.6764 9.85716 24.407V14.5996H24.1428V24.407ZM18.4286 18.9494V21.8493C18.4286 22.2339 18.2781 22.6027 18.0101 22.8746C17.7422 23.1465 17.3789 23.2993 17 23.2993C16.6211 23.2993 16.2578 23.1465 15.9898 22.8746C15.7219 22.6027 15.5714 22.2339 15.5714 21.8493V18.9494C15.5714 18.5649 15.7219 18.1961 15.9898 17.9242C16.2578 17.6522 16.6211 17.4995 17 17.4995C17.3789 17.4995 17.7422 17.6522 18.0101 17.9242C18.2781 18.1961 18.4286 18.5649 18.4286 18.9494Z" fill="url(#paint0_linear_515_233)"/></g></svg>