<?xml version="1.0" encoding="utf-8"?>
<svg id="master-artboard" viewBox="0 0 648.0628662109375 638.9588623046875" version="1.1" xmlns="http://www.w3.org/2000/svg" x="0px" y="0px" style="enable-background:new 0 0 1400 980;" width="648.0628662109375px" height="638.9588623046875px"><defs><linearGradient id="paint0_linear_387_7" x1="2.28429" y1="52.3701" x2="43.2257" y2="11.4468" gradientUnits="userSpaceOnUse">
<stop stop-color="#A055FF"/>
<stop offset="1" stop-color="#5200FF"/>
</linearGradient><linearGradient id="paint1_linear_387_7" x1="25.9867" y1="28.6692" x2="35.936" y2="18.7199" gradientUnits="userSpaceOnUse">
<stop stop-color="#A055FF"/>
<stop offset="1" stop-color="#5200FF"/>
</linearGradient><linearGradient id="paint0_linear_37_1076" x1="17.5937" y1="28.0249" x2="46.3641" y2="27.0365" gradientUnits="userSpaceOnUse">
<stop stop-color="#B820C7"/>
<stop offset="1" stop-color="#0127ED"/>
</linearGradient><linearGradient id="paint1_linear_37_1076" x1="244.567" y1="214.557" x2="663.783" y2="200.181" gradientUnits="userSpaceOnUse">
<stop stop-color="#B921C7"/>
<stop offset="1" stop-color="#1D33F2"/>
</linearGradient><linearGradient id="paint0_linear_388_13" x1="24" y1="48" x2="24" y2="0" gradientUnits="userSpaceOnUse">
<stop stop-color="#009EFD"/>
<stop offset="1" stop-color="#2AF598"/>
</linearGradient><linearGradient id="paint0_linear_515_233" x1="28.5325" y1="-9.0741" x2="12.186" y2="55.3475" gradientUnits="userSpaceOnUse">
<stop stop-color="#30FDD8"/>
<stop offset="1" stop-color="#009F82"/>
</linearGradient><linearGradient id="paint0_linear_515_251" x1="0.513625" y1="34.3706" x2="29.1906" y2="7.7713" gradientUnits="userSpaceOnUse">
<stop stop-color="#FFF33B"/>
<stop offset="0.04" stop-color="#FEE72E"/>
<stop offset="0.117" stop-color="#FED51B"/>
<stop offset="0.196" stop-color="#FDCA10"/>
<stop offset="0.281" stop-color="#FDC70C"/>
<stop offset="0.669" stop-color="#F3903F"/>
<stop offset="0.888" stop-color="#ED683C"/>
<stop offset="1" stop-color="#E93E3A"/>
</linearGradient></defs><g transform="matrix(1.1587318181991577, 0, 0, 1.1587318181991577, 1.4624410218789308, 1.419821766720645)"><rect id="ee-background" x="0" y="0" width="648.0628662109375" height="638.9588623046875" style="fill: white; fill-opacity: 0; pointer-events: none;"/><g transform="matrix(5.276678085327148, 0, 0, 5.276678085327148, -3160.598021507263, -232.45123291015625)"><g id="g-1" transform="matrix(1, 0, 0, 1, 0, 0)">
	<g id="g-2">
		<path class="st0" d="M652,46c27.6,0,50,22.4,50,50s-22.4,50-50,50s-50-22.4-50-50S624.4,46,652,46z" style="fill: rgb(248, 167, 42); fill-opacity: 0.17;" transform="matrix(1.0092889404296874, 0, 0, 1.0092889404296874, -5.591942138671827, -0.4272912597656213)"/>
	<path d="M 649.176025390625 59.637386322021484" style="fill: rgb(248, 167, 42); fill-opacity: 0.17; stroke: rgb(0, 0, 0); stroke-opacity: 1; stroke-width: 0; paint-order: fill;" transform="matrix(1.0092889404296874, 0, 0, 1.0092889404296874, -5.591942138671827, -0.4272912597656213)"/></g>
</g></g></g><g transform="matrix(9.78593921661377, 0, 0, 9.78593921661377, 169.94644464903263, 154.03596311351924)"><path d="M24.7711 31C24.3766 31.0003 23.9882 30.9032 23.6395 30.7173L17.1632 27.287C17.113 27.2599 17.057 27.2458 17.0001 27.2458C16.9432 27.2458 16.8871 27.2599 16.8369 27.287L10.3616 30.7173C9.96038 30.9301 9.50802 31.0255 9.05576 30.9926C8.6035 30.9598 8.16938 30.8 7.80253 30.5314C7.43569 30.2629 7.15075 29.8962 6.97997 29.4729C6.8092 29.0495 6.75939 28.5865 6.83619 28.1362L8.07264 20.8703C8.08214 20.8134 8.07764 20.755 8.05952 20.7002C8.04141 20.6454 8.01024 20.596 7.96874 20.5562L2.73406 15.4076C2.40905 15.0885 2.17922 14.684 2.07061 14.24C1.962 13.796 1.97896 13.3303 2.11956 12.8955C2.26016 12.4607 2.51878 12.0743 2.86612 11.7801C3.21346 11.4858 3.63564 11.2955 4.08481 11.2307L11.3196 10.172C11.3759 10.1638 11.4294 10.1418 11.4754 10.1081C11.5214 10.0743 11.5585 10.0298 11.5836 9.97832L14.8181 3.36585C15.0184 2.95593 15.3287 2.61073 15.7137 2.36933C16.0987 2.12794 16.543 2 16.9964 2C17.4499 2 17.8942 2.12794 18.2792 2.36933C18.6642 2.61073 18.9744 2.95593 19.1748 3.36585L22.4114 9.97622C22.4367 10.0275 22.4739 10.0719 22.5198 10.1056C22.5658 10.1394 22.6191 10.1614 22.6753 10.1699L29.9164 11.2296C30.3653 11.2948 30.7872 11.4853 31.1343 11.7796C31.4814 12.0739 31.7398 12.4602 31.8804 12.8948C32.0209 13.3295 32.038 13.795 31.9296 14.2389C31.8212 14.6828 31.5918 15.0872 31.2671 15.4065L26.0273 20.552C25.9859 20.5919 25.9548 20.6414 25.9367 20.6961C25.9186 20.7508 25.914 20.8092 25.9234 20.8661L27.1598 28.132C27.2193 28.483 27.2022 28.843 27.1096 29.1867C27.017 29.5304 26.8512 29.8497 26.6237 30.1222C26.3963 30.3948 26.1126 30.6142 25.7925 30.765C25.4723 30.9159 25.1234 30.9947 24.77 30.9958L24.7711 31ZM17.0001 25.1509C17.3941 25.1508 17.7822 25.2478 18.1306 25.4336L24.6059 28.8629C24.6632 28.8959 24.7289 28.911 24.7947 28.9063C24.8606 28.9017 24.9236 28.8774 24.9758 28.8367C25.0302 28.799 25.0725 28.7462 25.0974 28.6846C25.1224 28.623 25.1288 28.5554 25.116 28.4901L23.8785 21.2232C23.8124 20.8321 23.8414 20.4307 23.963 20.0533C24.0846 19.676 24.2952 19.334 24.5768 19.0567L29.8166 13.9102C29.8634 13.864 29.8965 13.8056 29.912 13.7415C29.9276 13.6774 29.9251 13.6102 29.9048 13.5475C29.8845 13.4848 29.8472 13.429 29.7971 13.3865C29.747 13.3441 29.6861 13.3165 29.6213 13.3071L22.3813 12.2463C21.9915 12.1895 21.6213 12.0378 21.3027 11.8045C20.9841 11.5711 20.7266 11.2631 20.5526 10.9071L17.3118 4.29568C17.2828 4.23651 17.2379 4.1867 17.1823 4.15188C17.1266 4.11705 17.0625 4.09859 16.997 4.09859C16.9315 4.09859 16.8673 4.11705 16.8116 4.15188C16.756 4.1867 16.7112 4.23651 16.6821 4.29568L13.4476 10.905C13.2734 11.2612 13.0158 11.5693 12.697 11.8026C12.3782 12.036 12.0078 12.1875 11.6178 12.2443L4.37886 13.3071C4.31393 13.3163 4.25288 13.3438 4.20267 13.3863C4.15246 13.4288 4.1151 13.4846 4.09485 13.5475C4.0746 13.6104 4.07228 13.6777 4.08814 13.7418C4.10399 13.8059 4.1374 13.8643 4.18456 13.9102L9.4234 19.0567C9.70493 19.334 9.91552 19.676 10.0371 20.0533C10.1587 20.4307 10.1877 20.8321 10.1216 21.2232L8.88414 28.4901C8.87291 28.5554 8.88009 28.6225 8.90487 28.6839C8.92965 28.7453 8.97103 28.7984 9.0243 28.8373C9.07757 28.8761 9.14058 28.8991 9.20618 28.9036C9.27178 28.9081 9.33732 28.894 9.39534 28.8629L15.8696 25.4325C16.2181 25.2476 16.6062 25.1509 17.0001 25.1509Z" fill="url(#paint0_linear_515_251)"/></g></svg>